<?xml version="1.0" encoding="utf-8"?>
<!-- Generator: Adobe Illustrator 27.9.4, SVG Export Plug-In . SVG Version: 9.03 Build 54784)  -->
<svg version="1.1" id="向量圖層_00000141442127229756346940000005190096315965912462_"
	 xmlns="http://www.w3.org/2000/svg" xmlns:xlink="http://www.w3.org/1999/xlink" x="0px" y="0px" viewBox="0 0 650 624"
	 style="enable-background:new 0 0 650 624;" xml:space="preserve">
<style type="text/css">
	.st0{fill:#576377;}
	.st1{fill:#F7D55B;}
	.st2{fill:#DFDFDF;}
</style>
<path class="st0" d="M72.14,240.26c-1.51-1.03-1.56-2.97-1.53-4.63c0.04-1.56,0.13-3.11,0.25-4.66c0.54-8.54,1.51-17.04,2.14-25.57
	c0.54-11.96,0.5-23.94,0.28-35.9c-0.28-6.61-0.51-13.16-1.23-19.71c-1.02-8.68-2.98-17.21-4.98-25.71
	c-1.92-8.17-4.5-16.15-6.59-24.27c-1.69-6-3.43-12.26,1.89-17.03c4-3.88,7.49-8.73,12.83-10.84c3.18-1.13,5.75,3.03,7.64,5.03
	c4.5,5.66,10.05,10.24,15.32,15.1c6.74,6.39,13.45,12.82,20.42,18.96c4.21,3.87,8.87,7.42,12.02,12.27
	c6.21,9.98,8.2,21.78,9.62,33.25c1.44,9.72,2.66,19.47,3.35,29.28c0.41,2.2-1.16,7.04-4.04,4.86c-2.05-1.81-1.69-4.71-1.97-7.17
	c-0.62-8.41-1.77-16.77-3-25.11c-1.33-10.42-2.98-21.36-8.36-30.49c-4.51-6.55-11.22-11.23-16.86-16.76
	c-7.96-7.41-15.23-14.28-23.23-21.33c-3.69-3.15-6.63-7.04-10-10.48c-2.81,1.31-4.73,3.84-6.92,5.94c-1.35,1.36-2.74,2.7-3.97,4.16
	c-0.7,0.71-0.71,1.57-0.49,2.49c2.29,10.68,5.94,21.02,8.33,31.68c2.76,11.69,5.16,23.52,5.57,35.56
	c1.01,20.28,1.19,40.72-1.24,60.91c-0.46,4.68-0.97,9.36-1.64,14.02c-0.33,1.72-0.2,3.57-0.9,5.19
	C74.35,240.23,73.11,240.94,72.14,240.26z"/>
<path class="st0" d="M92.88,250.65c-1.18-2.53-0.05-5.36,0.06-8.01c0.58-5.22,1.4-10.4,2.09-15.6c1.32-12.14,2.93-24.25,4-36.42
	c0.3-6.25,0.1-13.06-0.2-19.15c-1.09-26.76-11.9-51.72-18.42-77.39C78.7,88,76.89,82.7,74.99,76.82c-0.1-0.8,0.24-1.68,1.01-2.01
	c0.66-0.28,1.27,0.11,1.79,0.47c3.52,3.29,5.14,8.12,6.81,12.54c2.49,7.23,4.28,15.15,6.52,22.37c4.23,13.21,8.03,26.56,11.13,40.08
	c3.57,18.8,3.04,38.17,0.15,57.02c-1.26,10.78-2.25,21.59-3.86,32.33c-0.3,2.42-0.59,4.84-0.91,7.26c-0.18,1.52-0.33,3.11-1.37,4.31
	C95.19,252.53,93.61,252.38,92.88,250.65z"/>
<path class="st0" d="M118.23,204.56c-1.94-1.74-1.56-4.55-1.9-6.89c-1.21-10.06-2.09-20.22-4.72-30.04
	c-1.78-7.59-4.45-14.93-8.35-21.69c-3.32-4.89-6.91-9.64-9.42-15.02c-0.74-1.84-2.6-4.54-0.62-6.15c0.74-0.45,1.55,0.26,1.65,1.01
	c4.43,4.7,8.61,9.66,12.42,14.87c7.55,12.2,11.06,26.46,12.68,40.59c0.66,5.8,1.3,11.61,1.81,17.43c0.19,1.79,0.33,3.73-0.72,5.29
	C120.48,205.02,119.17,205.54,118.23,204.56z"/>
<path class="st0" d="M98.67,238.04c-2.06-1.33-1.93-4.65-0.11-6.11c1.67-1.45,2.95-3.28,4.42-4.92c3.85-4.04,7.2-8.5,10.03-13.31
	c1.84-3.04,3.44-6.23,4.51-9.62c0.35-1.05,0.8-3.25,2.35-2.71c0.64,0.22,0.81,1.02,0.59,1.63c0.07,2.32,0.03,4.64-0.5,6.91
	c-1.72,7.41-5.82,14.18-10.75,19.9C106.8,231.93,102.16,239.97,98.67,238.04z"/>
<path class="st0" d="M114.76,212.88c-0.93-2.25,0.78-5.04,1.09-7.37c0.59-2.55-0.13-5.67,1.91-7.65c0.31-0.33,0.66-0.32,0.98-0.02
	c1.63,1.39,1.44,3.76,1.27,5.69c-0.26,3.15-0.76,6.38-1.79,9.35C117.5,214.37,115.45,214.42,114.76,212.88z"/>
<path class="st0" d="M363.3,332.53c-6.07-0.76-12-2.86-17.23-6.02c-4.17-2.71-8.75-4.65-13.52-6.02
	c-16.03-3.98-32.05-8.03-48.1-11.93c-9.74-2.62-19.69-4.18-29.66-5.59c-3.22-0.67-6.66-0.47-9.77-1.51
	c-2.72-1.55-3.68-4.19-0.16-5.78c0.9-0.41,1.86-0.41,2.82-0.28c2.43,0.23,4.85,0.48,7.27,0.8c16.63,1.88,32.86,6.03,49.05,10.16
	c12.69,3.68,26.05,5.41,38.2,10.75c2.64,1.22,5.06,2.83,7.5,4.4c2.99,1.79,6.26,3,9.58,4c8.07,2.77,13.78-0.83,20.43-5.03
	c8.34-5.08,16.02-11.11,23.76-17.04c10.8-8.13,21.18-16.95,31.25-25.93c8.65-8.28,17.53-16.74,23.57-27.19
	c-15.55-11.11-33.39-18.51-50.63-26.5c-9.58-3.99-18.89-9.51-29.31-10.92c-6.93-0.24-13.91,0.03-20.84,0.42
	c-20.11,2.72-40.02,6.79-60.19,9.17c-9.75,1.24-19.46,3-29.29,3.47c-16.62,0.48-32.79-4.23-49.04-7.11
	c-14.6-3.17-28.78-7.91-43.4-10.96c-11.6-3.22-37.51-8.06-34.69-24.16c-0.34-0.55-0.06-1.63,0.67-1.46c1.1,0.04,1.54,1.03,1.93,1.9
	c0.82,2.07,1.72,4.19,3.38,5.74c1.7,1.5,3.75,2.51,5.76,3.51c13.89,6.35,29.2,8.21,43.79,12.35c16.16,5.16,32.43,7.91,49.02,10.98
	c6.24,1.24,12.55,2.16,18.92,2.16c8.98,0.04,17.87-1.55,26.74-2.73c6.6-0.92,13.22-1.7,19.81-2.71c19.99-2.68,39.73-8.05,60-7.91
	c6.57-0.46,13.15,0.44,19.23,2.99c18.3,7.71,36.5,15.79,54.09,25.01c4.94,2.75,9.91,5.47,14.61,8.62c2.12,1.47,4.31,3.07,5.44,5.46
	c4.59,6.35-22.82,31.79-28,36.54c-12.48,11-25.47,21.39-38.87,31.25c-5.32,3.94-10.81,7.65-16.5,11.04
	C375.59,329.63,369.77,333.26,363.3,332.53z"/>
<path class="st0" d="M222.04,317.68c4.04-5.68,8.41-11.22,13.99-15.47c1.73-1.23,8.01-6.78,9.83-5.4c1.14,0.96,0.41,2.57-0.61,3.34
	C238.12,306.7,231.08,313.86,222.04,317.68z"/>
<path class="st0" d="M369.74,316.74c-13.3-0.43-24.58-8.36-36.55-13.19c-11.67-5.07-23.86-8.57-36.25-11.34
	c-6.81-1.74-13.52-3.87-20.07-6.45c-1.64-0.59-3.25-1.4-4.93-1.82c-3,0.52-5.45,2.56-8.03,4.05c-6.86,4.17-13.88,8.1-20.48,12.68
	c-1.67,1.36-3.78,2.49-4.82,4.39c0.08,0.6-0.11,1.33-0.73,1.56c-0.62,0.23-1.22-0.3-1.33-0.89c-0.51-1.4-0.08-2.91,0.75-4.1
	c2.36-3.28,5.73-5.72,8.88-8.22c5.35-4.16,11.09-7.78,16.86-11.31c5.47-7.69,10.05-15.92,13.76-24.57
	c3.5-6.6,7.16-13.84,13.68-17.91c11.41-5.73,24.09-8.55,36.36-11.83c42.46-11.35,40.16-9.72,80.71,5.39
	c8.12,2.6,15.8,6.26,23.4,10.09c6.13,3.53,21.74,5.9,16.13,15.88c-11.05,13.07-25.22,22.91-38.77,33.18
	c-7.94,6.34-16.32,11.71-24.81,17.17C379.09,312.07,375.15,316.7,369.74,316.74z M370.27,310.64c1.33-0.09,2.88-1.29,3.73-1.86
	c3.39-2.39,6.77-4.82,10.23-7.12c7.92-4.97,14.95-9.89,22.17-15.59c12.48-9.43,25.14-18.72,35.8-30.21
	c-3.71-2.07-7.88-3.18-11.69-5.06c-6.21-2.82-11.45-5.82-17.62-8.09c-11.76-3.95-23.79-9.3-35.55-12.78
	c-15.67-5.35-31.92,0.35-47.39,3.73c-8.8,2.02-17.49,4.14-26.03,7.03c-5.63,2.01-12.09,3.49-15.79,8.59
	c-7,8.8-9.74,20.05-16.59,28.95c3.27,0.08,6.48,2.14,9.64,3.05c3.87,1.43,7.79,2.72,11.75,3.88c10.68,2.94,21.57,4.9,31.85,9.1
	c7.39,2.85,14.68,5.92,21.74,9.51C354.02,307.18,361.85,310.78,370.27,310.64z"/>
<path class="st0" d="M289.06,287.38c-0.68-1.31-0.37-2.89-0.25-4.3c0.27-3.2,0.67-6.8,0.87-9.96c0.42-8.08,0.4-16.27,2.43-24.16
	c0.43-1.2,1.14-6.13,3.09-4.43c0.38-0.07,0.56,0.28,0.56,0.63c0,0.25-0.09,0.49-0.27,0.59c-0.89,8.55-0.92,17-0.92,25.56
	c-0.05,4.83-0.56,9.64-0.91,14.45C293.64,288.4,290.55,290.16,289.06,287.38z"/>
<path class="st0" d="M229.39,533.5c-0.73-1.78,0.19-3.51,0.82-5.16c1.34-3.47,2.63-6.95,3.91-10.44
	c3.56-9.64,7.16-19.27,10.79-28.89c1.82-4.78,3.65-9.55,5.44-14.35c2.76-6.99,5.24-14.43,3.38-21.98
	c-1.99-10.58-7.04-20.38-8.14-31.16c-0.94-7.68,1.6-15.2,3.98-22.39c1.65-4.98,4.22-9.56,6.93-14.03
	c5.42-8.85,11.38-17.36,17.17-25.97c3.4-4.79,6.35-9.26,6.95-15.12c1.73-10.19,2.88-20.51,5.75-30.47c0.83-2.4,1.23-5.15,2.82-7.16
	c1.21-1.06,2.6,0.63,1.9,1.88c-2.31,10.77-2.92,21.9-4.48,32.8c-0.56,4.06-1.03,8.19-2.41,12.08c-2.54,6.15-6.97,11.29-10.59,16.81
	c-8.21,12.35-18,24.15-21.86,38.75c-1.04,3.44-1.84,6.99-1.62,10.6c0.7,9.29,4.76,17.81,7.1,26.73c3.49,12.19,2.55,19.47-2.08,31.13
	c-5.37,14.46-10.83,28.9-16.16,43.38c-1.52,4.12-2.98,8.25-4.56,12.34C233.74,535.37,230.62,536.6,229.39,533.5z"/>
<path class="st0" d="M218.76,323.53c-6.55-0.66-12.74-3.02-18.88-5.26c-13.39-4.66-25.9-11.39-39.07-16.57
	c-19.94-7.56-41.02-12.79-59.45-23.84c-4.36-2.85-7.98-7.15-8.7-12.44c-0.85-6.6-1.02-13.47,0.65-19.95
	c0.25-1.24,1.23-3.46,2.79-2.55c0.47,0.39,0.34,1.22-0.21,1.45c-0.59,3.87,0.09,7.82,0.5,11.68c0.71,4.6,0.65,9.98,4.55,13.2
	c6.61,5.39,14.91,8.03,22.56,11.54c8.79,3.69,17.9,6.51,26.92,9.56c21.11,6.76,40.35,18.29,61.68,24.47
	c3.13,0.59,9.86,2.96,12.16,0.41c0.8-0.84,1.9-1.53,3.11-1.42c0.53,0.04,1.05,0.18,1.43,0.59c1.44,2.08,0.48,5.07-1.08,6.82
	C225.44,323.66,221.89,323.99,218.76,323.53z"/>
<path class="st0" d="M223.36,319.87c-2.41-2.07,1.31-4.36,2.6-5.91c3.2-3.58,7.08-6.48,11.59-8.19c-2.3,4.6-5.24,9.13-9.54,12.14
	C226.67,318.78,225.08,320.56,223.36,319.87z"/>
<path class="st0" d="M98.6,429.7c-2.58-3.98-3.01-9.19-3.65-13.68c-1.61-9.01-3.62-17.93-6.08-26.76
	c-2.75-10.39-5.7-20.96-8.74-31.24c-4-12.1-9.08-23.83-12.51-36.14c-2.66-12.07-1.14-24.73-0.51-36.97
	c0.87-15.96,2.18-31.92,3.8-47.82c0.54-2.71,0.99-10.35,4.08-10.7c0.65-0.09,1.09,0.57,0.73,1.13c-0.16,0.29-0.48,0.19-0.66,0.41
	c-0.19,0.33-0.23,0.6-0.31,0.93c-0.56,4.95-0.04,9.97-0.12,14.95c0.39,9.76-0.5,19.52-1.09,29.24c-0.52,13.29-2.01,26.57-1.33,39.87
	c0.14,3.29,0.79,6.51,1.81,9.63c2.61,8.58,5.49,17.08,8.63,25.48c4.5,13.41,7.64,27.23,11.14,40.92c1.71,6.61,3.24,13.26,4.38,19.99
	C99.33,415.76,101.98,423.13,98.6,429.7C98.61,429.7,98.6,429.7,98.6,429.7z"/>
<path class="st0" d="M184.51,557.82c-17.7-0.56-35.59-0.4-53.05-3.65c-7.27-1.55-13.5-3.73-20.51-5.42
	c-10.82-2.83-21.29-5.59-31.73-9.38c-4.67-1.97-7.66-6.2-9.69-10.67c-5.5-10.49-8.27-22.01-12.43-33.02
	c-7.76-18.21-9.9-30.26-1.73-48.91c6.84-16.19,14.53-32.1,19.45-49.02c2.11-6.82,3.21-13.88,4.64-20.86
	c0.92-5.41,3.07-10.78,2.9-16.29c-0.11-0.03-0.23-0.03-0.35-0.02c-0.82,0.05-0.89-1.53-0.1-1.64c4.67-1.75,1.74,12.64,1.76,15.02
	c-1.07,11.41-2.3,22.91-6.05,33.8c-5.2,17.56-14.22,33.65-20.32,50.86c-4.18,11.69,0.58,23.71,5.16,34.52
	c3.34,8.47,5.42,17.5,9.24,25.77c1.92,3.95,3.32,8.36,6.39,11.59c3.62,3.09,8.54,3.76,12.94,5.17c3.79,1.14,7.56,2.36,11.37,3.42
	c11.31,2.65,22.36,6.51,33.8,8.59c12.14,1.99,23.92,2.24,36.11,2.69c7.81,0.16,15.64,0.59,23.45,0.17
	c12.12-1.07,23.51-7.38,30.7-17.22c1.92-2.01,5.47-8.96,8.27-4.58c1.28,2.63-0.49,4.06-2.11,5.84c-1.39,1.82-2.71,3.68-4.12,5.48
	C218.61,554.13,200.98,558.97,184.51,557.82z"/>
<path class="st0" d="M277.63,274.88c-0.47-1.32-2.12-8.9,0.18-8.74c0.44,0.08,0.69,0.52,0.75,0.9
	C278.71,269.67,278.43,272.37,277.63,274.88C277.63,274.89,277.63,274.89,277.63,274.88z"/>
<path class="st0" d="M230.66,419.07c-1.32-5.37,0.15-10.67,2.13-15.67c1.75-4.93,3.41-9.93,6.01-14.49
	c3.87-6.68,8.34-13.13,12.27-19.75c2.92-4.99,6.23-9.48,8.54-14.68c4.49-10.19,7.18-20.94,10.36-31.56c0.32-0.95,0.89-3.14,2.2-2.12
	c0.52,0.55,0.62,1.63-0.09,2.06c-3.13,13.82-5.75,28.13-13.09,40.48c-5.63,10.08-12.95,19.38-18.72,29.28
	C236.09,401.01,233.3,410.14,230.66,419.07C230.67,419.08,230.66,419.07,230.66,419.07z"/>
<path class="st0" d="M211.7,534.42c-0.9-1.88,0.55-3.73,1.34-5.38c1.52-2.88,3.13-5.7,4.71-8.54c3.23-5.91,6.48-11.81,9.77-17.69
	c3.02-5.44,5.61-11.1,8.13-16.78c1.39-3.6,3.98-7,4.09-10.95c-0.17-1.79-0.71-3.54-0.68-5.36c-0.2-1.23,0.86-2.99,2.06-1.63
	c0.59,0.99,0.07,2.23,0.42,3.32c1.89,5.49-1.09,10.72-3.3,15.57c-3.06,7.09-6.4,14.02-10.3,20.69c-3.99,7.14-7.94,14.29-11.97,21.41
	C214.93,530.47,213.72,535.09,211.7,534.42z"/>
<path class="st0" d="M368.88,117.03c-3.16-1.25-3.38-5.29-4.88-7.94c-3.2-6.69-7.08-13.38-12.7-18.32
	c-23.23-15.12-24.09-5-32.21,15.7c0.11,0.47-0.18,0.87-0.46,1.21c-0.33,0.83-0.72,2.15-1.87,1.78c-2.24-1.26-0.62-5.52-0.32-7.55
	c3.34-14.27,9.15-31.02,27.08-22.66c6.62,2.59,12.74,6.63,16.79,12.57c4.62,6.28,8.68,13.21,10.97,20.7
	C371.57,114.15,371.3,117.79,368.88,117.03z"/>
<path class="st0" d="M368.63,113.9c-1.34-1.44-0.7-3.41-0.39-5.11c0.59-3.21,1.44-6.73,1.99-9.75c1.07-5.6,1.93-17.91-2.19-22.21
	c-8.88-1.02-17.58,3.28-25.64,6.55c-0.5,1.66-2.46,1.24-2.64-0.28c-0.95-4.33,9.15-7.95,12.33-9.61c4.36-1.98,9.11-2.73,13.86-2.9
	c6.38-0.67,8.75,6.56,9.44,11.67c1.28,7.99,0.11,16.06-1.67,23.87c-0.61,2.33-0.8,4.8-1.6,7.07
	C371.51,114.53,369.65,115.13,368.63,113.9z"/>
<path class="st0" d="M288.89,199.61c-4.2-1.5-8.04-3.7-11.97-5.68c-3.69-2-6.77-4.84-9.87-7.62c-3.47-2.63-7.22-6.33-5.81-11.09
	c1.06-5.34,3.96-10.04,6.61-14.71c8.44-14.87,21.2-27.14,33.54-38.67c4.84-4.67,9.49-9.56,14.66-13.87
	c3.86-3.52,9.72-5.94,14.54-2.84c2.36,1.21,6.42,5.79,4.75,8.48c-0.31,0.34-0.79,0.33-1.11,0c-2.73-2.94-7.43-5.08-11.28-3.09
	c-2.19,1.15-3.95,2.96-5.76,4.62c-5.39,5.16-11.05,11.14-16.4,16.03c-10.12,9.73-20.04,19.91-27.48,31.88
	c-2.61,4.61-5.89,9.07-6.96,14.34c1.54,2.08,3.8,3.52,5.66,5.31c3.83,3.7,8.51,6.25,13.32,8.46c5.52,3.46,9.83,3.07,13.41-2.7
	c4.4-7.5,8.2-15.35,12.23-23.06c6.19-11.53,11.37-23.57,17.39-35.18c1.07-1.97,2.22-3.9,3.42-5.79c1.09-1.44,1.79-3.83,3.91-3.86
	c1.98,0.11,2.59,2.52,2.13,4.14c-0.6,1.76-2.35,3.85-3.14,5.32c-4.4,7.3-7.53,15.23-11.18,22.91c-5.81,12.04-11.9,23.97-18.39,35.66
	C302.13,194.75,296.53,201.47,288.89,199.61z"/>
<path class="st0" d="M281.24,189.59c-2.41-1.31,8.98-18.9,10.44-21.43c8.46-12.65,17.41-25.04,27.79-36.2
	c3.77-4.21,7.59-8.37,11.21-12.7c1.49-2.35,4.17-0.49,3.54,1.91c-0.26,1.12-1.2,1.86-1.89,2.71c-1.85,2.05-3.74,4.06-5.57,6.13
	c-3.11,3.54-6.08,7.26-9.04,10.92c-4.79,5.89-9.08,12.16-13.63,18.23c-7.42,9.42-14.2,19.29-21.14,29.05
	c0.14,0.47-0.29,0.73-0.59,0.99C282.15,189.61,281.64,189.95,281.24,189.59z"/>
<path class="st0" d="M293.09,188.91c-1.65-0.73-0.14-2.89,0.24-4.05c1.23-2.75,2.61-5.42,4.02-8.08c3.95-7.44,8.14-14.78,13-21.68
	c1.35-1.94,2.74-3.87,4.13-5.79c0.68-1.03,1.77-2.07,3.12-1.85c2.03,0.57,1.4,3.56,0.54,4.92c-1.64,2.4-3.34,4.76-4.99,7.16
	c-2.33,3.35-4.61,6.73-6.86,10.12c-3.94,6.22-8.54,12.09-12.29,18.42C293.94,188.56,293.61,188.97,293.09,188.91z"/>
<path class="st0" d="M336.66,125.36c-2.48-0.56,1.7-6.35,0.75-8.43c-0.55-1.55-1.01-3.17-1.01-4.83c2.58-1.25,4.81,1.71,4.85,4.09
	c0.25,3.18-1.23,6.44-3.49,8.58C337.46,125.05,337.08,125.38,336.66,125.36z"/>
<path class="st0" d="M348.5,140.33c-5.65-2.72-11.01-6.08-16.09-9.69c-1.43-4.56,6.47-0.96,8.26-0.26c2.67,1.03,5.4,1.95,7.97,3.23
	c7.62,4.11,10.44-1.2,14.6-6.67c1.26-1.38,2.23-4.22,4.55-3.52c1.99,0.75,2.1,3.64,0.94,5.14c-1.61,2.27-3.15,4.59-4.78,6.85
	C360.48,140.97,354.58,143.27,348.5,140.33z"/>
<path class="st0" d="M370.92,131.54c-2.11-0.7-4.51-2.17-4.87-4.54c-0.07-0.86,0.25-2.04,1.18-2.34c0.62-0.24,1.18,0.13,1.61,0.55
	c0.26,0.14,0.63,0.14,0.77,0.43c2.4,0.79,5.2,1.51,7.68,0.82c1.46-1.17,2.29-3.12,3.3-4.57c2.85-4.57,4.82-9.59,6.79-14.57
	c2.11-5.3,4.16-10.74,4.6-16.47c0.49-3.89-1.24-7.49-4.14-10.03c-2.53-2.46-5.69-4.03-8.8-5.63c-2.54-1.25-4.92-2.98-7.68-3.7
	c-2.46,0.03-4.63,1.43-6.97,1.99c-1.69,0.36-3.56,0.15-5.11-0.53c0.98-1.88,2.36-3.66,4.24-4.71c7.66-3.79,9.69-2.35,16.73,1.45
	c5.59,2.65,11.24,6.01,14.37,11.55c4.86,9.75-0.2,20.87-3.48,30.36c-2.21,6.3-4.87,12.14-8.98,17.37
	C379.79,132.94,374.85,133.04,370.92,131.54z"/>
<path class="st0" d="M396.55,93.43c0.01-0.89,1.09-0.89,1.09,0C397.64,94.32,396.56,94.32,396.55,93.43z"/>
<path class="st0" d="M462.01,131.3c-1.95-2.74,0.26-5.92,0.98-8.7c1.52-5.91,2.57-12.25,1.2-18.28c-9.89,1.25-19.89,1.3-29.82,2.09
	c-6.19,0.47-12.86,1.46-18.55-1.62c-5.24-2.71-10.15-6.02-15.17-9.12c-1.53-0.96-3.06-1.93-4.67-2.74c-1.38-0.35-2.4-1.55-2.16-3.02
	c0.13-1.06,1-2.3,2.21-2.05c2.01,0.35,3.94,1.03,5.71,2.04c5.18,2.88,10.04,6.34,15.34,8.99c2.67,1.46,5.53,1.86,8.52,1.77
	c11.44-0.94,22.9-1.59,34.35-2.4c2.66-0.01,6.18-1.75,8.02,0.97c1.78,3.31,1.88,7.36,1.89,11.05
	C469.76,113.7,467.55,134.64,462.01,131.3z"/>
<path class="st0" d="M441.18,143.93c-4.35-0.08-8.7-0.36-13.03-0.85c-5.75-0.79-11.75-1.14-17.16-3.37c-3.99-2.17-6.64-6.5-9.5-9.76
	c-3.64-4.91-8.09-9.11-12-13.79c-0.54-0.61-1.09-1.21-1.63-1.81c-0.5-0.56-1.3-1.23-1.02-2.06c0.09-0.28,0.36-0.43,0.6-0.39
	c0,0,0-0.01-0.01-0.01c5.73,2.41,10.59,6.61,14.92,11c3.29,3.48,6.16,7.42,9.75,10.6c5.28,2.4,11.36,2.49,17.05,3.21
	c6.32,0.55,12.69,0.62,19.03,0.28c3-0.4,6.85,0.41,9.46-1.23c1.64-1.64,1.83-5.13,4.68-5.22c1.2,0.05,1.6,1.54,1.73,2.5
	c0.23,1.47-0.3,2.9-0.92,4.21c-1.66,4.14-5.03,6.21-9.44,6.23C449.53,143.82,445.35,143.97,441.18,143.93z"/>
<path class="st0" d="M448.07,131.06c-3.94-0.08-7.86-0.62-11.77-0.86c-5.12-0.07-10.13-1.25-14.79-3.38
	c12.46-3.25,25.4,0.2,38.11-0.23c1.62,0.11,6-0.47,4.71,2.36c-1.22,1.15-3.22,0.99-4.79,1.36
	C455.73,130.77,451.9,131.1,448.07,131.06z"/>
<path class="st0" d="M410.81,123.47c-2.3-0.9-4.43-2.24-6.1-4.07c-0.71-0.77-1.34-1.69-1.8-2.6c2.88,1.14,5.81,2.27,8.27,4.23
	c0.87,0.52,1.96,1.35,1.12,2.42C411.88,123.94,411.29,123.67,410.81,123.47z"/>
<path class="st0" d="M357.42,414.25c-5.56-0.39-17.16-0.48-20.76-4.83c-1.25-2.54-1.24-5.45-1.4-8.24
	c0.21-13.01,4.18-11.47,14.76-14.22c20.96-5.31,38.46-8.06,54.46-23.84c7.41-7.29,14.51-15.2,19.37-24.45
	c3.1-5.48,3.38-12.3,7.64-17.13c9.59-9.22,23-13.15,35.51-16.73c12.73-3.66,25.58-7.35,38.88-8.09c17.13-0.91,40.09-2.51,29.3,22.2
	c-2.42,6.89-5.15,13.68-8.2,20.32c-3.08,7.21-6.04,14.62-11.15,20.69c-3.49,4.31-6.95,8.8-11.47,12.07
	c-6.73,4.38-14.36,7.15-21.67,10.38c-24.87,11.41-51.15,19.2-77.8,25.21C389.28,410.95,373.45,414.21,357.42,414.25z M348.31,408.95
	c21.05,0.75,41.72-4.74,62.05-9.56c22.16-5.61,44.13-12,64.99-21.42c8.8-4,18.08-7.32,26.27-12.4c3.47-2.66,6.26-6.08,9.04-9.42
	c5.81-6.64,8.81-14.95,12.34-22.89c1.72-3.83,3.26-7.59,4.72-11.51c1.26-3.37,2.53-6.75,3.62-10.18c0.33-1.42,1.03-2.91,0.69-4.37
	c-3.55-4.42-14.7-3.41-20.03-3.48c-13.86,0.3-27.51,2.9-40.82,6.65c-11.68,2.98-23.36,6.25-33.36,13.18
	c-4.66,2.71-5.77,8.08-7.29,12.79c-5.14,13.6-15.91,25.4-26.59,35.03c-4.15,3.52-8.57,6.69-13.33,9.34
	c-15.34,7.94-32.9,10.13-49.3,15.08c-0.64,1.95-0.67,4.06-0.63,6.09c0.06,2.12,1.04,4.38,0.03,6.41
	C343.22,408.7,345.77,408.81,348.31,408.95z"/>
<path class="st0" d="M355.83,542.18c-1.53-3.58,1.45-7.12,3.16-10.08c2.52-3.92,5.16-7.76,7.77-11.62
	c4.01-5.97,8.24-11.79,12.59-17.52c5.13-6.65,12.79-16.36,6.28-24.49c-3.8-4.33-8.88-7.26-13.24-10.96
	c-3.63-2.92-7.1-6.05-10.55-9.2c-6.29-5.96-13.26-11.47-17.99-18.82c-3.28-5.3-5.4-11.24-7.23-17.17
	c-1.41-4.75-2.66-9.65-2.14-14.64c0.33-3.65,1.09-7.26,2.29-10.73c0.19-0.53,0.43-1.16,0.9-1.49c0.83-0.61,1.78,0.23,1.73,1.15
	c-0.2,4.19-0.76,8.39-0.56,12.6c0.36,5.11,2.08,10,3.75,14.8c2.46,7.26,6.16,14.09,11.82,19.35c7.07,6.86,13.79,13.29,21.29,19.56
	c6.38,5.43,14.96,9.91,16.88,18.77c2.19,9.61-3.69,18.51-9.2,25.86c-5.12,6.96-10.11,14-14.84,21.21
	c-2.49,3.85-5.33,7.51-7.38,11.63c-0.48,1.37-1.16,3.05-2.78,3.31C357.29,543.86,356.28,543.19,355.83,542.18z"/>
<path class="st0" d="M453.71,551.86c-19.36-0.61-37.6-7.77-56.34-11.91c-5.74-1.18-12.01-1.94-17.44,0.77
	c-5.52,2.25-14.01,9.61-19.86,6.49c-1.96-1.07-2.26-4.34-0.3-5.56c0.79-0.5,1.79-0.34,2.53,0.18c4.64,0.77,12.36-5.9,16.96-7.65
	c9.24-4.12,19.51-0.89,28.76,1.55c4.98,1.23,9.94,2.49,14.83,4.05c12.79,3.74,26.08,6.13,39.45,5.7c8.55-0.03,17.12-0.51,25.42-2.67
	c6.32-1.69,12.81-2.84,18.86-5.39c11.65-4.94,22.61-11.41,33.38-18.02c8.44-5.77,17.19-11.04,25.93-16.34
	c3.75-2.29,7.9-5.09,10.97-7.95c7.93-7.44,3.95-15.83,17.51-18.53c0.04-0.16,0.07-0.32,0.1-0.48c0.13-0.78,0.23-1.57,0.32-2.36
	c-12.57-19.43-15.32-28-11.87-51.13c0.45-4.72,1.87-9.87-0.1-14.4c-1.56-2.3-3.71-4.12-5.62-6.12
	c-14.46-13.81-25.06-25.97-30.23-45.87c-2.81-10.14-4.84-20.46-7.53-30.63c-0.88-4.08-5.39-20.74-1.86-22.03
	c0.66-0.21,1.19,0.21,1.44,0.8c2.41,10.18,5.81,20.12,8.5,30.23c2.79,10.55,4.74,21.4,9.23,31.41c4.6,10.35,12.08,19.03,20.23,26.77
	c3.33,3.53,7.01,6.79,9.92,10.68c3.08,4.8,2.61,10.86,1.9,16.27c-0.9,7.39-2.46,14.78-2.04,22.27c0.04,9.01,5.25,16.71,9.57,24.22
	c3.65,5.78,4.18,4.83,2.91,12.05c-0.97,7.37-9.41,2.74-12.12,9.77c-2.13,6.97-7.2,12.39-13.2,16.32
	c-6.37,4.4-13.18,8.08-19.68,12.29c-15.04,9.93-30.31,19.74-46.89,26.92c-7.3,2.97-15.13,4.4-22.77,6.25
	C474.43,551.83,464.01,551.95,453.71,551.86z"/>
<path class="st0" d="M433.7,514.75c-6.59-0.29-4.84-6.67-4.29-11.14c0.57-5.44,4.53-9.96,4.99-15.38
	c-7.48-4.69-14.35-10.2-21.27-15.68c-10.28-7.39-19.15-16.44-26.48-26.75c-1.59-2.1-3.2-4.18-4.76-6.3
	c-0.85-1.34-3.04-3.48-1.4-4.92c0.57-0.33,1.19,0.07,1.39,0.63c0.31,0.88,0.96,1.57,1.51,2.31c4.21,5.01,8.37,10.08,12.78,14.91
	c7.48,8.34,16.94,14.44,25.72,21.26c4.72,4.07,10.14,7.16,15.2,10.74c3.8,4.62-0.08,11.04-2.01,15.64
	c-1.53,3.13-2.27,6.65-2.58,9.97c0,0,0,0,0,0c1.47,1.18,3.66,0.22,5.11,1.4c1.74,1.1,0.32,2.83-1.16,3.21
	C435.54,514.84,434.61,514.8,433.7,514.75z"/>
<path class="st0" d="M534.34,474.78c-17.02-2.29-33.95-5.36-50.65-9.38c-5.31-1.37-10.66-2.59-15.89-4.24
	c-1.66-0.63-3.55-0.95-4.97-2.04c-0.82-0.85-0.02-2.68,1.23-1.96c16.35,5.1,33.47,7.67,50.36,10.39c6.97,1.11,14.03,1.73,20.98,2.85
	C538.52,471.66,537.76,475.12,534.34,474.78z"/>
<path class="st0" d="M511.96,340.34c-1.51-1.79-2.03-4.07-2.32-6.32c-0.55-3.02-1.26-6-2.11-8.84c-2.11-7.03-5.46-14.42-11.81-18.5
	c-1.37-0.9-4.29-2-2.79-4.05c0,0,0,0-0.01,0c0.66-0.7,1.88-0.32,2.46-0.16c5,1.7,8.77,5.97,11.17,10.55
	C509.47,318.35,514.72,334.95,511.96,340.34C511.97,340.34,511.97,340.34,511.96,340.34z"/>
<path class="st0" d="M531.99,427.17c-3.21-5.38-6.72-11.02-6.41-17.52c-0.09-5.73-2.2-11.39-2.68-17.01
	c-0.21-1.61,1.79-1.99,1.87-0.23c0.19,3.84,1.63,7.29,1.96,11.01c0.46,3.44,0.09,6.98,0.54,10.4
	C527.94,418.61,531.98,422.32,531.99,427.17z"/>
<path class="st0" d="M537.79,457.54c-0.01-1.08-1.27-6.3,0.07-6.38c1.37,0.17,0.05,5.3-0.05,6.39
	C537.8,457.55,537.79,457.54,537.79,457.54z"/>
<path class="st0" d="M460.38,524.67c0.04-2.69,2.6-4.06,4.36-5.7c1.75-1.54,3.48-3.1,5.26-4.61c7.25-6.38,15.88-10.83,24.89-14.17
	c9-3.58,18.02-7.09,27.19-10.23c4.57-1.5,9.12-3.38,13.91-4.04c1.07-0.22,1.84,0.55,2.33,1.41c0.32,0.39-0.14,1.2-0.61,0.75
	c-0.22-0.25-0.41-0.62-0.75-0.68c-5.63,0.88-10.91,3.39-16.29,5.21c-4.46,1.65-8.94,3.25-13.32,5.09
	c-8.3,3.74-17.08,6.72-24.96,11.25c-3.71,2.21-7.22,4.76-10.52,7.55c-1.78,1.51-3.49,3.1-5.2,4.7
	C464.82,522.59,463.03,525.71,460.38,524.67z"/>
<path class="st1" d="M126.48,536.57c3.7-1.27,7.66-4.3,7.06-8.7c-3.6-10.95-15.71-19.71-24.51-26.63
	c-11.32-9.05-23.54-16.84-35.65-24.75c-0.41-1.09-1.34-2.29-2.61-2.32c-3.17,0-3.47,4.14-3.23,6.48c0.61,5.36,1.2,10.77,2.68,15.97
	c3.3,11.29,8.26,22.5,16.25,31.26c4.07,4.55,9.89,6.52,15.54,8.24c2.32,0.81,4.74,1.6,7.3,1.72
	C115.03,537.91,120.96,538.2,126.48,536.57z M150.67,426.44c3.72-9.41,7.77-19.7,6.07-29.96c-0.88-5.7-5.55-9.38-10.04-12.43
	c-4.09-2.94-8.45-5.47-12.76-8.06c-10.2-6.43-20.71-12.42-30.09-20.02c-1.61-1.04-4.59-3.47-6.43-1.92
	c-0.71,0.68-0.24,2.54,0.87,2.05c0.03,0.01,0.05,0.02,0.08,0.04c-1.05,1.03-1.09,2.58-0.88,3.95c0.2,1.96,0.35,3.94,0.49,5.91
	c0.95,10.16,1.1,20.63,4.79,30.27c2.57,7.07,4.83,14.56,9.68,20.47c6.78,7.05,14.63,13.89,24.05,17.01
	C143.77,436.04,148.12,433.38,150.67,426.44z M238.24,486.99c2.21-4.84,5.19-10.08,3.3-15.57c-0.34-1.09,0.18-2.33-0.42-3.32
	c-1.2-1.36-2.26,0.4-2.06,1.63c-0.03,1.82,0.51,3.57,0.68,5.36c-0.11,3.95-2.7,7.35-4.09,10.95c-2.52,5.68-5.11,11.34-8.13,16.78
	c-3.29,5.88-6.54,11.78-9.77,17.69c-1.58,2.84-3.2,5.66-4.71,8.54c-0.79,1.65-2.24,3.5-1.34,5.38c2.02,0.67,3.23-3.95,4.28-5.34
	c4.02-7.12,7.97-14.27,11.97-21.41C231.84,501.01,235.18,494.08,238.24,486.99z M272.09,322.86c0.71-0.44,0.61-1.52,0.09-2.06
	c-1.32-1.02-1.89,1.17-2.2,2.12c-3.18,10.62-5.87,21.38-10.36,31.56c-2.31,5.21-5.62,9.69-8.54,14.68
	c-3.93,6.61-8.4,13.06-12.27,19.75c-2.6,4.56-4.27,9.56-6.01,14.49c-1.98,5-3.45,10.3-2.13,15.67c0,0,0,0.01,0.01,0.01
	c2.62-8.93,5.42-18.07,9.6-26.46c5.77-9.9,13.08-19.2,18.72-29.28C266.33,351,268.96,336.68,272.09,322.86z M284.45,308.55
	c1.07,0.26,2.14,0.52,3.2,0.78c-0.48,1.38-0.82,2.85-1.29,4.21c-2.87,9.96-4.02,20.28-5.75,30.47c-0.6,5.86-3.55,10.33-6.95,15.12
	c-5.79,8.61-11.75,17.12-17.17,25.97c-2.71,4.47-5.28,9.05-6.93,14.03c-2.39,7.19-4.93,14.71-3.98,22.39
	c1.11,10.78,6.16,20.57,8.14,31.16c1.87,7.55-0.61,14.99-3.38,21.98c-1.79,4.79-3.62,9.57-5.44,14.35
	c-3.62,9.62-7.23,19.25-10.79,28.89c-1.28,3.49-2.57,6.97-3.91,10.44c-0.07,0.17-0.14,0.35-0.21,0.52c-1.39,1.44-2.66,3.5-3.57,4.45
	c-7.18,9.84-18.57,16.14-30.7,17.22c-7.8,0.41-15.64-0.01-23.45-0.17c-12.19-0.45-23.97-0.7-36.11-2.69
	c-11.44-2.09-22.48-5.94-33.8-8.59c-3.81-1.06-7.58-2.28-11.37-3.42c-4.4-1.41-9.32-2.09-12.94-5.17
	c-3.07-3.23-4.47-7.64-6.39-11.59c-3.82-8.26-5.9-17.3-9.24-25.77c-4.57-10.81-9.34-22.82-5.16-34.52
	c6.1-17.21,15.12-33.3,20.32-50.86c3.75-10.89,4.98-22.39,6.05-33.8c0-0.49,0.12-1.5,0.27-2.77c1.7,6.02,3.36,12.08,4.94,18.07
	c2.45,8.82,4.46,17.75,6.08,26.76c0.64,4.49,1.07,9.7,3.65,13.68c0,0,0,0,0.01,0c3.37-6.57,0.72-13.94-0.44-20.75
	c-1.14-6.73-2.68-13.38-4.38-19.99c-3.5-13.7-6.64-27.51-11.14-40.92c-3.14-8.4-6.01-16.9-8.62-25.48
	c-1.02-3.12-1.66-6.34-1.81-9.63c-0.67-13.3,0.81-26.59,1.33-39.87c0.59-9.72,1.48-19.48,1.09-29.24c0.02-1.38,0-2.77-0.04-4.15
	c0.1-0.12,0.18-0.25,0.25-0.38c0.7-1.62,0.57-3.47,0.9-5.19c0.67-4.66,1.18-9.34,1.64-14.02c2.43-20.19,2.25-40.62,1.24-60.91
	c-0.4-12.04-2.81-23.87-5.57-35.56c-2.39-10.66-6.04-21-8.33-31.68c-0.23-0.92-0.21-1.78,0.49-2.49c1.23-1.46,2.62-2.8,3.98-4.16
	c2.11-2.04,3.99-4.46,6.65-5.8c1.58,4.86,3.11,9.45,4.56,14.61c6.51,25.67,17.33,50.63,18.42,77.39c0.29,6.09,0.5,12.9,0.2,19.15
	c-1.07,12.17-2.68,24.28-4,36.42c-0.68,5.2-1.51,10.38-2.09,15.6c-0.09,2.25-0.93,4.64-0.45,6.86c0,0,0,0.01,0,0.01
	c-0.77,5.25-0.52,10.67,0.16,15.91c0.72,5.28,4.34,9.59,8.7,12.44c18.44,11.04,39.51,16.27,59.45,23.84
	c13.17,5.18,25.68,11.91,39.07,16.57c6.14,2.24,12.34,4.6,18.88,5.26c3.13,0.46,6.68,0.13,8.95-2.32c1.02-1.15,1.79-2.83,1.79-4.44
	v0c2.72-2.29,4.85-5.21,6.62-8.3c2.81-2.41,5.51-4.97,8.21-7.47c0.21,0.16,0.45,0.31,0.69,0.45c3.11,1.04,6.55,0.84,9.77,1.51
	C264.76,304.37,274.7,305.93,284.45,308.55z"/>
<path class="st1" d="M293.62,244.65c-0.82,1.05-1.23,3.5-1.52,4.31c-2.03,7.89-2.02,16.07-2.43,24.16c-0.19,3.15-0.6,6.75-0.87,9.96
	c-0.02,0.26-0.05,0.52-0.08,0.79c-2.54-0.81-5.05-1.68-7.55-2.59c-3.15-0.91-6.36-2.97-9.64-3.05c2-2.59,3.64-5.38,5.14-8.25
	c0.18,2.04,0.71,4.25,0.95,4.91c0,0.01,0.01,0.01,0.01,0.01c0.8-2.52,1.08-5.22,0.92-7.85c-0.02-0.15-0.08-0.32-0.16-0.46
	c2.91-5.96,5.57-12.07,9.74-17.31C289.6,247.25,291.51,245.79,293.62,244.65z"/>
<path class="st1" d="M387.84,80.82c2.89,2.54,4.63,6.14,4.14,10.03c-0.44,5.73-2.49,11.17-4.6,16.47c-1.97,4.99-3.95,10-6.79,14.57
	c-1.01,1.45-1.84,3.41-3.3,4.57c-2.48,0.69-5.29-0.04-7.68-0.82c-0.05-0.1-0.12-0.17-0.21-0.21c-0.19-0.89-0.7-1.66-1.6-2
	c-2.31-0.7-3.29,2.14-4.55,3.52c-4.16,5.48-6.98,10.78-14.6,6.67c-2.57-1.28-5.3-2.2-7.97-3.23c-0.86-0.34-3.14-1.35-5.11-1.8
	c0.82-1.23,1.82-2.63,2.25-3.87c2.23-2.14,3.68-5.38,3.44-8.53c-0.04-2.38-2.28-5.34-4.85-4.09c0,1.66,0.46,3.28,1.01,4.83
	c0.4,0.88-0.11,2.43-0.66,3.96c-0.3-0.19-0.65-0.31-1.06-0.34c-0.57,0.01-1.03,0.18-1.43,0.46c0.47-2.32-2.12-4.05-3.58-1.75
	c-3.62,4.33-7.45,8.5-11.21,12.7c-10.38,11.16-19.34,23.55-27.79,36.2c-1.34,2.32-11.06,17.35-10.77,20.8
	c-3.21-1.72-6.26-3.72-8.9-6.28c-1.86-1.79-4.12-3.23-5.66-5.31c1.07-5.27,4.35-9.73,6.96-14.34c7.43-11.97,17.36-22.15,27.48-31.88
	c5.35-4.89,11.02-10.87,16.41-16.03c1.81-1.66,3.56-3.46,5.76-4.62c3.84-1.99,8.54,0.15,11.27,3.09c0.31,0.33,0.8,0.34,1.11,0
	c1.66-2.69-2.39-7.27-4.75-8.48c-3.54-2.28-7.63-1.58-11.09,0.34c7.77-20.02,8.97-29.56,31.82-14.69c5.62,4.94,9.5,11.63,12.7,18.32
	c1.49,2.65,1.71,6.69,4.88,7.94c1.77,0.56,2.39-1.26,2.48-2.91c0.32-0.23,0.59-0.55,0.76-0.92c0.81-2.27,0.99-4.74,1.6-7.07
	c1.78-7.82,2.95-15.88,1.67-23.87c-0.5-3.73-1.9-8.58-5.09-10.67c0.35-0.06,0.7-0.09,1.05-0.1c2.76,0.73,5.14,2.45,7.68,3.7
	C382.14,76.78,385.3,78.36,387.84,80.82z"/>
<path class="st1" d="M412.29,123.46c0.84-1.06-0.25-1.9-1.12-2.42c-2.45-1.96-5.38-3.09-8.27-4.23c0.46,0.91,1.1,1.82,1.8,2.6
	c1.67,1.83,3.8,3.17,6.1,4.07C411.29,123.67,411.88,123.94,412.29,123.46z M464.2,104.33c1.37,6.03,0.31,12.37-1.21,18.28
	c-0.33,1.28-0.98,2.64-1.39,4.01c-0.76-0.02-1.5,0.01-1.99-0.02c-12.7,0.43-25.64-3.02-38.11,0.23c4.66,2.13,9.67,3.31,14.79,3.38
	c3.91,0.23,7.83,0.77,11.77,0.86c3.83,0.04,7.66-0.29,11.46-0.76c0.58-0.14,1.22-0.2,1.86-0.28c0.05,0.2,0.13,0.41,0.23,0.61
	c-2.21,0.6-2.5,3.63-3.99,5.12c-2.6,1.64-6.45,0.82-9.45,1.23c-6.34,0.34-12.7,0.27-19.03-0.28c-5.68-0.71-11.77-0.81-17.05-3.21
	c-3.59-3.18-6.46-7.12-9.75-10.6c-3.54-3.59-7.42-7.04-11.85-9.5c0.22-0.59,0.44-1.19,0.65-1.79c1.99-5.75,4.63-12.11,5.32-18.4
	c0.04,0.02,0.07,0.04,0.11,0.05c-0.01,0.05-0.02,0.11-0.02,0.18c0,0.75,0.76,0.87,1.01,0.37c1.05,0.6,2.07,1.24,3.08,1.88
	c5.02,3.1,9.93,6.41,15.17,9.12c5.7,3.09,12.37,2.09,18.55,1.62C444.3,105.62,454.31,105.58,464.2,104.33z"/>
<path class="st2" d="M436.43,514.67c1.48-0.39,2.9-2.11,1.16-3.21c-1.45-1.18-3.64-0.22-5.11-1.4c0,0,0,0,0,0
	c0.31-3.32,1.05-6.84,2.58-9.97c1.93-4.61,5.81-11.03,2.01-15.64c-5.05-3.58-10.47-6.67-15.2-10.74
	c-8.78-6.82-18.24-12.92-25.72-21.26c-4.41-4.83-8.57-9.9-12.78-14.91c-0.55-0.74-1.2-1.43-1.51-2.31c-0.2-0.56-0.82-0.96-1.39-0.63
	c-1.63,1.44,0.55,3.58,1.4,4.92c1.57,2.12,3.17,4.21,4.76,6.3c7.33,10.32,16.21,19.36,26.48,26.75
	c6.92,5.48,13.79,10.99,21.27,15.68c-0.45,5.42-4.42,9.94-4.99,15.38c-0.54,4.47-2.29,10.85,4.29,11.14
	C434.61,514.8,435.54,514.84,436.43,514.67z M532,427.17c-0.02-4.86-4.05-8.56-4.72-13.35c-0.46-3.42-0.08-6.96-0.54-10.4
	c-0.32-3.71-1.77-7.17-1.96-11.01c-0.08-1.76-2.08-1.38-1.87,0.23c0.48,5.62,2.59,11.28,2.68,17.01
	C525.27,416.16,528.78,421.79,532,427.17z M534.34,474.78c3.43,0.34,4.18-3.11,1.06-4.38c-6.95-1.12-14.02-1.74-20.98-2.85
	c-16.89-2.72-34.01-5.29-50.36-10.39c-1.25-0.72-2.04,1.11-1.23,1.96c1.42,1.09,3.31,1.42,4.97,2.04
	c5.23,1.64,10.59,2.88,15.89,4.24C500.38,469.42,517.32,472.49,534.34,474.78z M537.8,457.55c0.11-1.09,1.42-6.23,0.05-6.39
	c-1.34,0.08-0.07,5.3-0.07,6.38C537.79,457.54,537.8,457.55,537.8,457.55z M537.71,488.09c0.46,0.45,0.92-0.36,0.61-0.75
	c-0.49-0.86-1.26-1.63-2.33-1.41c-4.79,0.66-9.34,2.53-13.91,4.04c-9.17,3.14-18.19,6.64-27.19,10.23
	c-9.01,3.34-17.64,7.79-24.89,14.18c-1.78,1.5-3.51,3.06-5.26,4.6c-1.76,1.64-4.32,3.01-4.36,5.7c2.64,1.05,4.44-2.07,6.3-3.46
	c1.71-1.6,3.41-3.19,5.2-4.7c3.3-2.79,6.8-5.34,10.52-7.55c7.87-4.52,16.66-7.51,24.96-11.25c4.38-1.84,8.87-3.43,13.32-5.09
	c5.38-1.82,10.66-4.33,16.29-5.21C537.3,487.47,537.49,487.84,537.71,488.09z M594.77,473.74c-0.09,0.79-0.19,1.58-0.32,2.36
	c-0.04,0.16-0.07,0.32-0.1,0.48c-13.57,2.7-9.58,11.09-17.51,18.53c-3.07,2.87-7.22,5.66-10.97,7.95
	c-8.74,5.3-17.49,10.57-25.93,16.34c-10.77,6.6-21.73,13.07-33.38,18.02c-6.04,2.56-12.54,3.71-18.86,5.39
	c-8.3,2.16-16.88,2.64-25.42,2.67c-13.36,0.43-26.66-1.95-39.45-5.7c-4.89-1.56-9.85-2.82-14.83-4.05
	c-9.25-2.44-19.52-5.67-28.76-1.55c-4.59,1.76-12.32,8.43-16.96,7.66c-0.44-0.31-0.98-0.5-1.51-0.48c0.14-0.32,0.26-0.65,0.37-0.96
	c2.05-4.12,4.89-7.78,7.38-11.63c4.74-7.22,9.73-14.26,14.84-21.21c5.51-7.35,11.4-16.25,9.2-25.86
	c-1.92-8.85-10.5-13.34-16.88-18.77c-7.49-6.27-14.21-12.7-21.29-19.56c-5.66-5.26-9.36-12.09-11.82-19.35
	c-1.45-4.16-2.93-8.38-3.54-12.75c4.89,2.55,13.73,2.67,18.37,2.99c16.03-0.04,31.86-3.3,47.47-6.65c26.65-6,52.93-13.8,77.8-25.21
	c7.32-3.23,14.94-6,21.68-10.38c4.52-3.27,7.98-7.77,11.47-12.07c5.11-6.07,8.06-13.48,11.14-20.69c3.05-6.64,5.78-13.43,8.2-20.32
	c0.74-1.7,1.32-3.27,1.76-4.73c0.81,4.64,2.06,9.46,2.48,11.41c2.7,10.17,4.73,20.5,7.53,30.63c5.17,19.9,15.77,32.05,30.23,45.87
	c1.91,1.99,4.06,3.82,5.62,6.12c1.97,4.53,0.54,9.68,0.1,14.39C579.45,445.74,582.2,454.31,594.77,473.74z"/>
<path class="st2" d="M532.03,307.2c0.34,1.46-0.37,2.95-0.69,4.37c-1.09,3.43-2.36,6.8-3.62,10.18c-1.46,3.92-3,7.68-4.72,11.51
	c-3.52,7.95-6.53,16.25-12.34,22.89c-2.78,3.34-5.57,6.77-9.04,9.42c-8.19,5.09-17.47,8.4-26.27,12.4
	c-20.86,9.41-42.83,15.81-64.99,21.42c-20.33,4.82-41,10.31-62.05,9.56c-2.54-0.14-5.09-0.24-7.6-0.68
	c1.01-2.03,0.03-4.29-0.04-6.41c-0.04-2.04-0.01-4.14,0.63-6.09c16.39-4.95,33.95-7.14,49.3-15.08c4.75-2.64,9.18-5.82,13.33-9.34
	c10.68-9.63,21.45-21.42,26.59-35.03c1.52-4.71,2.62-10.08,7.29-12.79c10-6.93,21.68-10.2,33.36-13.18
	c7.38-2.08,14.88-3.81,22.45-4.98c0.68,0.5,1.52,0.91,2.1,1.29c6.36,4.09,9.7,11.47,11.81,18.5c0.85,2.84,1.55,5.82,2.11,8.84
	c0.29,2.26,0.81,4.54,2.32,6.32l0,0c2.75-5.4-2.5-22-5.4-27.33c-1.69-3.22-4.07-6.3-7.07-8.43c4.14-0.48,8.31-0.78,12.5-0.87
	C517.33,303.78,528.48,302.77,532.03,307.2z"/>
<path class="st2" d="M368.05,76.82c4.12,4.31,3.26,16.62,2.19,22.21c-0.39,2.16-0.95,4.58-1.44,6.95
	c-2.27-5.02-5.24-9.75-8.49-14.17c-3.17-4.64-7.6-8.12-12.55-10.66C354.27,78.48,361.1,76.03,368.05,76.82z"/>
<path class="st2" d="M331.59,124.71c-1.13,1.8-2.22,3.62-3.23,5.49c-3.29,6.33-6.32,12.79-9.4,19.21c-0.04-0.9-0.41-1.68-1.35-1.95
	c-1.34-0.22-2.44,0.82-3.12,1.85c-1.4,1.92-2.78,3.84-4.13,5.79c-4.86,6.89-9.06,14.23-13,21.68c-1.41,2.66-2.79,5.33-4.02,8.08
	c-0.38,1.16-1.89,3.33-0.24,4.05c0.52,0.06,0.86-0.35,0.91-0.82c3.74-6.33,8.34-12.2,12.29-18.42c2.25-3.4,4.53-6.78,6.86-10.12
	c0.96-1.4,1.95-2.8,2.93-4.19c-1.65,3.37-3.34,6.71-5.12,10.02c-4.02,7.71-7.82,15.56-12.23,23.06c-3.57,5.77-7.89,6.16-13.41,2.7
	c-1.1-0.5-2.19-1.03-3.26-1.58c0.12-0.1,0.23-0.22,0.3-0.36c0.3-0.25,0.73-0.52,0.59-0.98c6.95-9.76,13.73-19.63,21.14-29.05
	c4.55-6.07,8.84-12.34,13.63-18.23c2.96-3.66,5.93-7.38,9.04-10.92C328.34,128.23,329.98,126.48,331.59,124.71z"/>
<path class="st2" d="M447.09,259.16c5.61-9.98-10-12.36-16.13-15.88c-7.59-3.84-15.27-7.5-23.39-10.09
	c-40.54-15.12-38.25-16.75-80.71-5.39c-12.27,3.29-24.95,6.11-36.36,11.83c-6.53,4.07-10.18,11.31-13.68,17.91
	c-3.71,8.65-8.3,16.88-13.77,24.57c-5.78,3.54-11.51,7.15-16.86,11.32c-2.8,2.23-5.79,4.41-8.08,7.19
	c-0.89,0.69-1.63,1.29-2.07,1.61c-5,3.8-9.03,8.64-12.71,13.7c-2.84,1.36-8.45-0.57-11.23-1.09c-21.33-6.18-40.56-17.71-61.68-24.47
	c-9.02-3.05-18.13-5.87-26.92-9.56c-7.65-3.51-15.95-6.15-22.56-11.54c-3.89-3.23-3.84-8.6-4.55-13.2c-0.16-1.48-0.35-2.96-0.5-4.45
	c0.13-0.11,0.26-0.24,0.39-0.39c1.05-1.2,1.2-2.79,1.38-4.3c0.31-2.42,0.6-4.84,0.91-7.26c0.08-0.51,0.15-1.02,0.22-1.54
	c3.48,1.73,8.05-6.19,10.45-8.29c4.92-5.72,9.03-12.49,10.75-19.9c0.4-1.73,0.52-3.49,0.52-5.26c0.22-0.18,0.41-0.41,0.55-0.68
	c1.05-1.57,0.91-3.51,0.72-5.29c-0.51-5.82-1.15-11.62-1.81-17.43c-1.62-14.13-5.14-28.39-12.68-40.59
	c-3.38-4.63-7.05-9.06-10.94-13.28c-1.64-5.76-3.39-11.48-5.21-17.18c-2.15-6.91-3.88-14.48-6.21-21.46
	c0.39,0.37,0.79,0.73,1.2,1.07c8,7.05,15.28,13.93,23.23,21.33c5.64,5.53,12.34,10.21,16.86,16.76c5.38,9.13,7.04,20.07,8.36,30.49
	c1.23,8.34,2.39,16.7,3.01,25.11c0.28,2.46-0.08,5.36,1.97,7.17c0.86,0.65,1.59,0.68,2.2,0.34c4.74,10.41,24.22,14.2,33.84,16.86
	c14.62,3.05,28.8,7.79,43.4,10.96c16.25,2.87,32.42,7.59,49.04,7.11c9.83-0.47,19.54-2.23,29.29-3.47
	c20.16-2.38,40.08-6.45,60.19-9.17c6.93-0.39,13.9-0.67,20.84-0.42c10.42,1.41,19.72,6.93,29.31,10.92
	c17.24,8,35.08,15.4,50.62,26.5c-6.03,10.45-14.92,18.9-23.57,27.19c-10.07,8.98-20.46,17.8-31.25,25.93
	c-7.74,5.93-15.42,11.96-23.76,17.04c-6.64,4.21-12.36,7.81-20.43,5.04c-3.32-1-6.59-2.21-9.58-4c-2.44-1.57-4.86-3.18-7.5-4.4
	c-12.15-5.34-25.51-7.07-38.2-10.75c-16.19-4.12-32.42-8.28-49.05-10.16c-1.3-0.17-2.61-0.32-3.91-0.46
	c4.26-2.63,8.6-5.14,12.88-7.74c2.57-1.49,5.03-3.54,8.03-4.05c1.68,0.42,3.29,1.23,4.93,1.82c6.55,2.57,13.25,4.71,20.07,6.45
	c12.39,2.77,24.59,6.27,36.25,11.34c11.98,4.83,23.25,12.77,36.55,13.2c5.41-0.04,9.34-4.67,13.76-7.23
	c8.5-5.46,16.88-10.83,24.81-17.17C421.87,282.06,436.03,272.22,447.09,259.16z"/>
<path class="st1" d="M487.99,497.72c4.28-4.22,8.97-8.05,14.73-10.02c6.91-2.89,14.11-5.37,21.62-6.05c2.67-0.2,6.18-0.79,8.18,1.39
	c0.35,0.56,0.02,1.37-0.49,1.7c-3.4,2.44-7.51,3.42-11.58,4.13c-8.1,1.35-15.39,5.26-23.18,7.57
	C494.23,497.12,490.99,497.2,487.99,497.72z"/>
<path class="st1" d="M475.33,507.2c-2.75-2.82,0.77-7.96,4.34-6.34C483.3,503.22,478.71,509.42,475.33,507.2z"/>
<path class="st1" d="M554.14,395.32c-1.53-1.89-2.68-4.04-4.21-5.93c-2.89-2.94-5.49-6.17-7.47-9.81
	c-3.17-6.26-4.09-13.41-5.39-20.24c-0.68-4.34-1.28-8.69-1.71-13.07c-0.07-1.43-0.41-2.96-0.01-4.35c0.38-1.21,1.93-1.16,2.45-0.09
	c1.13,2.33,2.36,4.61,3.05,7.13c1.76,6.54,2.36,13.31,4.07,19.86c0.74,3.47,1.81,6.87,3.91,9.77c1.97,3.1,5.32,6.03,7.18,9.04
	c1.11,1.86,2.94,3.35,3.38,5.55C560.05,396.94,556.39,398.49,554.14,395.32z"/>
<path class="st1" d="M555.94,425.6c-1.99-2.55,0.99-4.6,2.12-6.73c2.74-4.28,4.99-8.85,7.21-13.4c0.93-1.83-0.34-4.48,1.75-5.71
	c1.86-0.75,3.71,0.15,4.7,1.82c1.24,2.48,4.43,3.96,4.28,7.06c1.7,1.95,1.35,5.44-1.11,6.56c-2.39,1.11-4.36,2.92-6.58,4.32
	c-2.78,1.87-5.86,3.31-8.42,5.48C558.93,426.6,557.27,427.26,555.94,425.6z"/>
<path class="st1" d="M573.72,486.28c-0.23-3.36,1.18-6.42,3.25-8.98c1.88-2.53,3.31-5.39,5.26-7.85c-3.61-3.64-6.26-8.05-6.82-13.18
	c-0.25-2.78-1.02-5.81-0.24-8.53c0.31-0.6,0.98-0.82,1.58-0.47c0.79,0.44,0.8,1.32,0.87,2.11c1.18,4.14,2.24,8.58,5.09,11.92
	c2.56,2.94,7.26,5.83,5.86,10.35c-0.79,1.9-2.01,3.92-3.74,5.06c-1.63,2.54-3.45,4.95-5.39,7.26
	C578.04,485.64,575.79,486.22,573.72,486.28z"/>
<path class="st1" d="M580.36,475c-1.46-1.44-1.48-3.88-1-5.76c0.54-1.13,0.83-6.15,2.65-5.21c1.08,0.83,0.56,2.49,0.82,3.68
	c0.17,2.21,0.58,4.78-0.98,6.61C581.57,474.65,580.89,475.28,580.36,475z"/>
<path class="st1" d="M411.88,370.17c1.52-2.39,2.84-4.93,4.79-7c2.96-2.95,5.78-5.92,7.94-9.41c1.98-3.14,3.91-6.3,5.55-9.63
	c2.07-4.69,3.93-9.51,6.96-13.7c5.3-8.93,16.01-11.34,25.45-13.4c7.42-1.44,15.16-3.29,22.72-2.1c1.47,0.23,3.19,1.76,1.91,3.21
	c-1.85,1.58-4.53,1.75-6.83,2.34c-7.12,1.37-14.27,2.72-21.29,4.55c-5.24,1.34-10.73,2.8-14.88,6.47c-4.86,5.15-7.12,12.07-11,17.89
	C427.33,357.29,421.34,366.48,411.88,370.17z"/>
<path class="st1" d="M376.51,391.61c-0.87-0.65-0.79-2.22-0.05-2.93c0.67-0.65,1.63-0.99,2.46-1.39c2.93-1.5,5.77-3.15,8.48-5.01
	c1.17-0.82,1.97-2.08,3.29-2.75c1-0.66,2.05-1.37,3.31-0.98c2.24,0.85,2.39,4.28,0.8,5.82C391.03,387.4,381.3,393.45,376.51,391.61z
	"/>
<path class="st1" d="M403.87,414.76c-0.29-0.81,0.33-1.86,1.24-1.72c8.73-4.05,18.02-6.62,27.27-9.19c9.16-2.6,18.27-5.43,27.57-7.5
	c9.04-2.03,17.98-4.42,26.96-6.72c2.62-0.43,4.78-2.19,7.41-2.55c1.37-0.21,2.77-0.13,4.11-0.04c-0.88,2.29-2.14,4.48-4.1,6.02
	c-1.86,1.4-4.1,2.27-6.38,2.69c-9.06,2.09-18.1,4.19-27.16,6.29c-13.83,3.12-27.41,7.21-41.22,10.41c-3.94,0.93-7.87,1.96-11.84,2.8
	C406.49,415.33,404.54,416.2,403.87,414.76z"/>
<path class="st1" d="M510.51,375.61c-1.8-0.58-0.54-2.72,0.23-3.7c2.03-3.1,4.48-6.12,7.56-8.15c-0.95,4.24-3.8,7.59-6.51,10.84
	C511.61,375.18,511.15,375.72,510.51,375.61z"/>
<path class="st1" d="M444.57,483.06c-4.05-2.17-7.79-4.89-11.8-7.16c-1.99-1.13-4.12-2.03-5.97-3.4c-2.88-2.29-5.65-4.82-7.93-7.72
	c-1.05-1.4-1.97-2.89-3.23-4.11c-2.3-2.02-4.7-3.98-6.73-6.28c-0.7-0.88,0.18-2.79,1.39-2.18c3.28,2.42,7.4,3.56,10.29,6.52
	c4.52,4.77,9.63,8.93,15.7,11.53c2.27,1.21,4.46,2.55,6.69,3.82c1.8,1.24,4.51,1.75,5.32,4
	C449.21,480.4,447.34,483.93,444.57,483.06z"/>
<path class="st1" d="M446.98,481.95c-1.15-1.38-2.05-2.98-3.57-4.01c-2.09-1.45-5.06-1.67-4.59-4.97
	c-4.59-1.21-7.95-4.03-11.65-6.61c-1.63-1.07-3.27-2.12-4.81-3.32c-0.52-0.4-1.27-0.88-1.38-1.58c-0.21-1.76,1.87-1.09,2.93-1.03
	c3.38,0.36,6.51,1.77,9.52,3.28c3.81,2.14,8.11,2.95,12.36,3.73c6.77,1.37,13.55,2.87,20.07,5.2c3.35,1.22,2.54,6.57-0.75,7.32
	c-3.45,1.04-6.75,2.2-10.19,3.21C452.2,483.96,448.92,484.56,446.98,481.95z"/>
<path class="st1" d="M437.59,506.97c-0.11-0.68-0.52-1.25-0.64-1.94c-0.27-1.58,0.32-3.62,1.96-4.23c1.05-0.39,2.28-0.44,3.39-0.58
	c3.04-0.35,7.42-3.38,8.01,1.63c0.08,0.01,0.16,0.01,0.23,0.02c-0.02,0.09-0.16,0.14-0.23,0.22c-0.08,4.21-5.36,4.76-8.39,6.15
	C440.32,509.31,438.23,508.97,437.59,506.97z"/>
<path class="st2" d="M231.51,417.65c-4.16-4.36,11.04-32.1,13.78-38.07c2.78-4.94,6.34-9.45,10.86-12.89
	c3.38-2.64,6.77-5.47,10.79-7.08c1.94-0.89,5.5-1.3,5.23,1.76c-0.08,0.63-0.47,1.23-1.03,1.44c-1.23,1.16-2.46,2.34-3.77,3.41
	c2.5,2.25-0.97,5.16-2.2,7.17c-3.32,4.36-6.7,8.68-9.99,13.06c-5.49,6.73-9.9,14.04-13.86,21.66c-1.5,2.68-3.08,5.33-4.87,7.83
	C235.4,417.64,233.3,419.72,231.51,417.65z"/>
<path class="st2" d="M268.91,364.47c0.1-1.69,2.03-1.42,2.01,0.16C270.82,366.32,268.89,366.05,268.91,364.47z"/>
<path class="st2" d="M261.35,375.44c0.9-2.58,1.98-5.12,3.54-7.38c0.64-0.92,6.07-8.01,6.53-4.92
	C269.12,367.91,265.68,372.38,261.35,375.44z"/>
<path class="st2" d="M267.09,368.93c-1.7-1.32,1.71-4.78,2.4-6.21c0.39-0.71,1.47-1.61,2.23-0.95c0.25,0.56,0.17,1.23-0.04,1.8
	c0.58,0.7-0.41,0.99-0.74,1.44c-0.78,0.94-1.44,1.94-2.16,2.92C268.41,368.45,267.85,369.41,267.09,368.93z"/>
<path class="st2" d="M269.28,366.13c-1.2-1.47,2.06-3.69,3.11-4.36C271.99,362.54,270.32,367.08,269.28,366.13z"/>
<path class="st2" d="M156.74,396.48c1.69,10.27-2.36,20.56-6.07,29.96c-2.55,6.94-6.9,9.6-14.16,7.3
	c-9.43-3.12-17.27-9.96-24.05-17.01c-4.84-5.91-7.11-13.39-9.68-20.47c-3.7-9.64-3.84-20.11-4.79-30.27
	c-0.14-1.97-0.29-3.95-0.49-5.91c-0.2-1.37-0.16-2.91,0.88-3.95c-0.03-0.01-0.05-0.02-0.08-0.04c-1.11,0.49-1.59-1.36-0.87-2.05
	c1.83-1.55,4.82,0.89,6.43,1.92c9.38,7.6,19.89,13.6,30.09,20.02c4.32,2.59,8.67,5.12,12.76,8.06
	C151.19,387.1,155.87,390.77,156.74,396.48z"/>
<path class="st2" d="M133.55,527.87c0.59,4.39-3.37,7.42-7.06,8.7c-5.52,1.63-11.46,1.34-17.16,1.28c-2.56-0.12-4.98-0.91-7.3-1.72
	c-5.66-1.72-11.48-3.69-15.54-8.24c-7.99-8.76-12.95-19.97-16.25-31.26c-1.48-5.21-2.07-10.61-2.68-15.97
	c-0.24-2.34,0.06-6.49,3.23-6.48c1.27,0.04,2.2,1.23,2.61,2.32c12.11,7.92,24.32,15.7,35.65,24.75
	C117.84,508.16,129.95,516.92,133.55,527.87z"/>
</svg>
