<?xml version="1.0" encoding="utf-8"?>
<!-- Generator: Adobe Illustrator 27.9.4, SVG Export Plug-In . SVG Version: 9.03 Build 54784)  -->
<svg version="1.1" id="向量圖層_00000157309455051303046320000013178340788488690586_"
	 xmlns="http://www.w3.org/2000/svg" xmlns:xlink="http://www.w3.org/1999/xlink" x="0px" y="0px" viewBox="0 0 1530 920"
	 style="enable-background:new 0 0 1530 920;" xml:space="preserve">
<style type="text/css">
	.st0{fill:#FFFFFF;}
</style>
<path d="M378.61,425.24c-0.01,0.08-0.03,0.16-0.04,0.24C378.58,425.4,378.59,425.32,378.61,425.24z"/>
<path d="M340.28,389.45c-0.06,0.02-0.12,0.04-0.18,0.05C340.16,389.49,340.22,389.47,340.28,389.45z"/>
<path d="M377.35,408.91c0.02,0.05,0.04,0.1,0.06,0.16C377.39,409.02,377.37,408.97,377.35,408.91z"/>
<path d="M378.61,425.24c-0.01,0.08-0.03,0.16-0.04,0.24C378.58,425.4,378.59,425.32,378.61,425.24z"/>
<path d="M344.33,388.63c-0.07,0.01-0.15,0.02-0.22,0.03C344.18,388.65,344.25,388.64,344.33,388.63z"/>
<path d="M649.95,416.09c0-0.05,0.01-0.1,0.01-0.15c0,0.07-0.01,0.14-0.01,0.21C649.95,416.13,649.95,416.11,649.95,416.09z"/>
<path d="M611.15,384.04c-0.06,0.02-0.12,0.03-0.18,0.05C611.02,384.07,611.09,384.06,611.15,384.04z"/>
<path d="M648.2,403.44c0.02,0.07,0.05,0.14,0.07,0.22C648.24,403.59,648.22,403.52,648.2,403.44z"/>
<path d="M649.95,416.09c0-0.05,0.01-0.1,0.01-0.15c0,0.07-0.01,0.14-0.01,0.21C649.95,416.13,649.95,416.11,649.95,416.09z"/>
<path d="M615.19,383.22c-0.08,0.01-0.15,0.02-0.23,0.03c-0.02,0-0.05,0.01-0.07,0.01C614.99,383.25,615.09,383.24,615.19,383.22z"/>
<path class="st0" d="M1296.61,451.79c0.05-3.33-0.09-6.66-0.31-9.99c-0.18-2-0.45-3.98-0.85-5.96c0-0.01,0-0.02-0.01-0.04
	c-1.53-4.93-3.2-9.82-4.98-14.68c-5.05-13.5-11.01-26.67-17.72-39.35c-7.83-14.62-16.67-28.71-26.39-42.27
	c-10.59-14.67-22.2-28.64-34.57-41.97c-0.01-0.01-0.02-0.02-0.03-0.04l-0.32-0.34c-14.82-15.77-30.73-30.58-47.5-44.52
	c-19.07-15.68-39.18-30.17-59.45-43.15c-12.28-7.79-24.8-15.2-37.56-22.26c-13.18-7.28-26.64-14.1-40.29-20.58
	c-15.36-7.2-30.93-13.98-46.75-20.2c-15.67-6.16-31.53-11.85-47.11-16.95c-18.04-5.84-36.26-11.11-54.66-15.82
	c-17.7-4.53-35.57-8.43-53.54-11.88c-19-3.57-38.12-6.61-57.33-8.97c-18.94-2.33-37.93-4.06-56.6-5.23
	c-18-1.05-36.03-1.66-54.07-1.62c-18.34,0.04-36.67,0.6-54.84,1.73c-17.4,1.15-34.75,2.8-52.04,4.98c-16.99,2.14-33.9,4.92-50.4,8.1
	c-14.19,2.8-28.3,5.95-42.29,9.57c-14.12,3.64-28.1,7.73-41.95,12.22c-12.3,4.07-24.45,8.47-36.48,13.22
	c-11.61,4.58-23.01,9.61-34.18,14.86c-0.03,0.01-0.06,0.03-0.09,0.04l-0.11,0.05c-9.72,4.67-19.3,9.57-28.73,14.74
	c-9.26,5.08-18.3,10.51-26.83,15.91c-7.83,5.03-15.53,10.23-23.01,15.7c-2.18,1.59-4.34,3.2-6.48,4.84
	c-5.18,4.86-10.26,9.81-15.27,14.83c-6.36,6.36-12.62,12.79-18.44,19.02c-11.25,12.14-21.93,24.75-31.86,37.88
	c-2.15,2.85-4.26,5.73-6.23,8.46c-0.05,0.07-0.11,0.15-0.16,0.22l-0.11,0.16c-9.4,13.23-18.04,26.95-25.61,41.14
	c-6.76,12.76-12.73,25.87-17.69,39.16c-0.04,0.09-0.07,0.19-0.11,0.29l-0.04,0.11c-4.57,12.51-8.32,25.26-11.16,38.23
	c-1.06,5.03-2,10.08-2.78,15.16c-0.43,7.09-0.71,14.19-0.72,21.29c-0.01,8.49,0.26,16.98,0.8,25.16c0.02,0.19,0.03,0.37,0.04,0.56
	l0,0.05c0.54,7.24,1.28,14.45,2.27,21.65c1.07,7.73,2.47,15.42,3.95,22.34c3.03,13.84,7,27.45,11.86,40.82
	c4.93,13.2,10.7,26.08,17.05,38.17c0.1,0.19,0.2,0.38,0.31,0.58l0.01,0.01c7.2,13.45,15.29,26.4,24.2,38.89
	c9.46,13.07,19.8,25.54,30.87,37.43c12.1,12.82,25.02,24.89,38.54,36.15c15.33,12.63,31.46,24.3,48.29,35.09
	c19.44,12.31,39.68,23.39,60.07,33.11c0.17,0.08,0.34,0.16,0.51,0.24l0.03,0.01c24.05,11.3,48.84,21.05,74.2,29.39
	c14.33,4.64,28.8,8.88,43.43,12.61c14.71,3.74,29.54,7.03,44.46,9.91c16.05,3.03,32.19,5.57,48.42,7.63
	c16.74,2.13,33.56,3.65,50.42,4.74c17.61,1.05,35.25,1.59,52.9,1.59c17.81,0,35.62-0.64,52.54-1.71
	c17.61-1.17,35.17-2.82,52.67-5.03c17.84-2.27,35.59-5.11,52.43-8.32c16.96-3.29,33.8-7.06,50.52-11.33
	c16.95-4.33,33.7-9.28,50.3-14.68c15.15-5.01,30.15-10.45,44.96-16.32c14.16-5.62,28.11-11.73,41.85-18.19
	c12.82-6.11,25.46-12.54,37.87-19.36c12.11-6.66,23.95-13.7,34.93-20.64c10.64-6.8,21.06-13.88,31.27-21.25
	c9.84-7.1,19.38-14.57,28.71-22.25c8.21-6.86,16.23-13.91,24.04-21.17c7.99-7.44,15.66-15.19,23.13-23.09
	c6.62-7.12,13.07-14.39,19.22-21.88c6.26-7.64,12.26-15.45,18.02-23.43c5.05-7.13,9.89-14.38,14.5-21.77
	c3.04-4.86,5.93-9.8,8.73-14.79c0.74-1.09,1.46-2.2,2.16-3.31c1.7-2.7,3.26-5.48,4.78-8.25c0.86-1.55,1.67-3.12,2.44-4.71
	c0,0,0,0,0-0.01c0.61-1.26,1.2-2.53,1.77-3.81c0.64-1.45,1.31-2.89,1.95-4.34c0.64-1.46,1.27-2.92,1.77-4.43
	c0.48-1.44,0.89-2.89,1.36-4.34c0.49-1.53,1.06-3.03,1.57-4.55c0.52-1.56,0.98-3.12,1.37-4.71c0.17-0.7,0.34-1.41,0.5-2.12
	c2.7-7.9,4.84-15.99,6.59-24.12c1.22-5.76,2.14-11.55,2.61-17.4C1296.38,459.1,1296.56,455.45,1296.61,451.79z M1324.75,459.43
	c0.96-2.33,2.52-4.64,2.32-7.26c-0.05-1.25-0.15-2.5-0.2-3.76c-1.27-2.4-2.7-4.73-4.23-6.95c-3.89-6.49-9.65-11.4-14.1-17.4
	c-2.74-3.58-5.6-7.06-8.44-10.55c0.14,0.39,0.28,0.77,0.42,1.16c0.34,0.91,0.66,1.85,1.01,2.76c0.04,0.11,0.08,0.21,0.12,0.32
	c0.08,0.19,0.15,0.38,0.23,0.56c0.1,0.23,0.2,0.46,0.3,0.7c1.14,3.12,2.39,6.19,3.72,9.23c0.14,0.34,0.29,0.67,0.44,1.01
	c1,3.09,1.95,6.2,2.86,9.31c0.38,2.02,0.74,4.05,1.11,6.07c0.05,2.11,0.01,4.21-0.04,6.32c-0.06,2.25-0.12,4.48-0.16,6.73
	c-0.02,0.58-0.05,1.16-0.09,1.74c0,0.06-0.01,0.12-0.01,0.18c0,0.04-0.01,0.08-0.01,0.12c-0.04,0.62-0.09,1.25-0.16,1.87
	c-0.26,2.41-0.53,4.83-0.85,7.24c-0.05,0.33-0.09,0.66-0.14,1c-0.05,0.34-0.09,0.67-0.14,1c-0.05,0.34-0.1,0.67-0.16,1
	c-0.05,0.33-0.11,0.67-0.16,1c-0.16,1.02-0.34,2.05-0.52,3.07c0.01-0.04,0.02-0.08,0.03-0.12c-0.07,0.38-0.15,0.77-0.22,1.16
	c-0.6,3.09-1.24,6.18-1.86,9.27c-0.3,1.48-0.64,2.95-0.98,4.41c-0.23,0.96-0.46,1.93-0.7,2.9c1.16-1.57,2.3-3.14,3.45-4.72
	c4.36-7.14,8.58-14.37,13.05-21.45C1322.37,464.71,1323.59,462.26,1324.75,459.43z M1403.19,452.23c0.04-1.2,0.02-2.38-0.04-3.57
	c-0.14-1.68-0.39-3.34-0.72-4.99c-0.36-1.54-0.79-3.07-1.21-4.6c-0.48-1.71-0.86-3.44-1.42-5.13c-0.57-1.44-1.24-2.84-1.95-4.21
	c-1.43-2.61-3.08-5.08-4.77-7.56c-1.7-2.52-3.36-5.06-5.09-7.57c-0.19-0.27-0.38-0.53-0.55-0.8l-0.07-0.08
	c-2.26-3.15-4.68-6.2-7.05-9.27c-2.53-3.3-4.91-6.7-7.47-9.97c-2.5-3.19-5.2-6.24-7.77-9.38c-2.75-3.36-5.45-6.75-8.39-9.97
	c-2.93-3.07-5.94-6.05-8.97-9.03c-3-2.93-5.96-5.91-9.02-8.79c-3.04-2.86-6.19-5.61-9.29-8.41c-3.07-2.78-6.16-5.54-9.32-8.22
	c-2.58-2.11-5.23-4.11-7.9-6.12c-2.59-1.95-5.14-3.96-7.85-5.75c-0.77-0.46-1.54-0.9-2.34-1.31c-1.17-0.53-2.36-1-3.57-1.42
	c-0.81-0.24-1.63-0.45-2.46-0.62c-0.99-0.16-1.98-0.29-2.98-0.37c-1.6-0.07-3.19-0.04-4.78,0.04c-1.06,0.08-2.1,0.2-3.14,0.38
	c-0.72,0.16-1.43,0.35-2.13,0.56c-0.46,0.17-0.92,0.35-1.37,0.54c-0.24,0.12-0.48,0.25-0.71,0.39c-0.35,0.23-0.69,0.48-1.02,0.74
	c-0.39,0.34-0.76,0.7-1.12,1.06c-1.71,1.91-3.23,3.98-4.44,5.64c-0.23,0.33-0.47,0.66-0.63,0.88l-0.38,0.52
	c-1.32,1.85-2.64,3.7-4.04,5.51c-1.18,1.53-2.48,2.96-3.65,4.5c11.95,18.04,22.36,37.01,30.78,56.74c0.54,0.15,0.96,0.53,1.28,0.98
	c2.77,2.87,5.82,5.51,8.33,8.64c0.01,0.02,0.03,0.03,0.04,0.05c6.3,6.86,11.67,14.49,17.63,21.64c2.19,2.85,4.53,5.58,6.64,8.5
	c0.45,0.56,0.91,1.19,1.15,1.83c4.02,7.22,0.59,14.46-3.63,21.91c-2.25,4.92-5.25,9.48-8.02,14.11c-2.02,3.6-4.32,7.02-6.71,10.36
	c-1.78,2.77-3.69,5.45-5.8,7.98c-1.11,1.32-3.56,4.98-5.79,5.92c-0.36,0.45-0.74,1.01-1.13,1.54c-0.12,0.36-0.25,0.71-0.38,1.07
	c-1,2.86-2.02,5.71-3.08,8.54c-0.15,0.4-0.3,0.8-0.45,1.2c0.42-0.59,0.83-1.18,1.24-1.78c-0.8,1.62-1.6,3.25-2.39,4.87
	c-0.08,0.16-0.16,0.33-0.24,0.5c-1.21,2.48-2.42,4.97-3.62,7.46c-0.25,0.5-0.49,1-0.73,1.5c-0.41,0.83-0.81,1.66-1.22,2.48
	c-0.7,1.36-1.39,2.71-2.08,4.07c-0.69,1.36-1.38,2.71-2.06,4.07c-0.38,0.75-0.76,1.5-1.13,2.25c-0.37,0.75-0.75,1.51-1.12,2.27
	c-0.2,0.39-0.4,0.78-0.59,1.17c-0.2,0.39-0.4,0.78-0.59,1.17c-0.45,0.88-0.88,1.75-1.32,2.62c-0.28,0.56-0.55,1.11-0.83,1.67
	c-0.37,0.75-0.84,1.5-1.02,2.32c-0.01,0.05-0.02,0.1-0.03,0.15c-4.56,8.17-9.42,16.18-14.56,24.03c0.16,0.27,0.32,0.54,0.49,0.8
	c1,1.37,2.05,2.7,3,4.1c1.67,2.44,3.11,5.02,4.79,7.46c0.34,0.45,0.7,0.9,1.07,1.33c0.25,0.25,0.5,0.49,0.75,0.73
	c0.19,0.15,0.38,0.29,0.58,0.43c0.29,0.16,0.57,0.32,0.86,0.47c0.32,0.14,0.65,0.27,0.98,0.39c0.25,0.07,0.5,0.13,0.76,0.19
	c0.47,0.07,0.95,0.13,1.43,0.17c0.45,0.02,0.89,0.02,1.34,0.01c0.57-0.05,1.15-0.13,1.71-0.23c0.6-0.13,1.19-0.29,1.78-0.47
	c0.86-0.3,1.69-0.63,2.52-0.99c1.5-0.74,2.95-1.56,4.38-2.39c1.68-0.96,3.35-1.93,4.99-2.94c3.32-2.19,6.43-4.63,9.61-7.01
	c3.38-2.52,6.84-4.95,10.15-7.56c2.84-2.4,5.52-4.95,8.23-7.48c2.77-2.58,5.59-5.1,8.35-7.69c5.4-5.05,10.49-10.4,15.55-15.75
	c2.4-2.59,4.74-5.22,7.05-7.88c2.35-2.7,4.73-5.38,6.96-8.17c4.46-5.6,8.55-11.47,12.77-17.24c4.02-5.7,7.86-11.51,11.41-17.47
	c3.44-5.76,6.95-11.49,10.13-17.38c1.8-3.54,3.39-7.14,4.8-10.86c0.86-2.38,1.62-4.77,2.23-7.22
	C1402.94,454.1,1403.09,453.17,1403.19,452.23z M1414.7,441.79c0.88,4.18,1.2,8.48,0.75,12.72c-0.45,4.27-1.98,8.46-3.5,12.48
	c-1.5,3.98-3.22,7.87-5.24,11.64c-2,3.73-4.15,7.37-6.32,11.02c-2.21,3.71-4.39,7.44-6.66,11.12c-2.26,3.63-4.65,7.19-7.08,10.72
	c-2.53,3.65-5.21,7.2-7.81,10.81c-2.62,3.62-5.23,7.27-8.08,10.75c-2.79,3.4-5.7,6.72-8.61,10.03c-3.01,3.42-6.14,6.75-9.31,10.02
	c-3.07,3.16-6.1,6.33-9.25,9.42c-3.06,3.02-6.27,5.88-9.44,8.79c-3.2,2.94-6.29,6.02-9.63,8.81c-3.5,2.93-7.26,5.53-10.91,8.27
	c-3.5,2.62-6.92,5.34-10.59,7.73c-1.91,1.25-3.89,2.38-5.87,3.52c-1.69,0.96-3.36,1.94-5.12,2.77c-3.88,1.86-8.13,3.08-12.49,3.08
	c-0.24,0-0.48,0-0.72-0.01c-4.05-0.12-8.07-1.23-11.37-3.5c-2.91-2-5-4.75-6.78-7.66c-1.23-2.02-2.41-4.06-3.71-6.04
	c-3.38,4.84-6.86,9.62-10.44,14.34c-13.48,17.77-28.46,34.47-44.42,50.29c-15.73,15.59-32.68,30.05-50.3,43.72
	c-17.86,13.85-36.75,26.54-56.15,38.38c-37.58,22.93-77.79,42.02-119.31,57.71c-42.55,16.09-86.75,28.48-131.64,37.18
	c-45.03,8.72-90.76,13.94-136.7,15.43c-9.2,0.3-18.41,0.45-27.61,0.45c-39.16,0-78.31-2.72-117.05-8.21
	c-44.67-6.34-88.77-16.59-131.33-30.89c-40.94-13.75-80.37-31.44-117.21-53.21c-19.48-11.51-38.1-24.31-55.74-38.2
	c-17.27-13.6-33.51-28.45-48.36-44.39c-14.23-15.27-27.2-31.52-38.7-48.73c-7.43-11.12-14.16-22.66-20.15-34.52
	c-1.05-1.52-1.93-3.14-2.86-4.73c-1.02-1.74-2-3.51-2.96-5.29c-2.91-5.36-5.66-10.77-8.18-16.31c-6.29-13.8-11.39-28.11-15.22-42.69
	c-4.12-15.72-6.7-31.79-7.73-47.96c-0.51-8.04-0.64-16.09-0.39-24.14c0.06-1.95,0.15-3.89,0.25-5.83c0.05-0.87,0.1-1.73,0.16-2.6
	c0.02-0.28,0.03-0.57,0.05-0.85c-0.01-0.4,0.01-0.8,0.06-1.19c0.03-0.89,0.16-1.78,0.23-2.63c0.32-3.93,0.73-7.84,1.23-11.75
	c1.03-8.14,2.46-16.22,4.25-24.24c3.57-16.11,8.56-31.89,14.79-47.26c1.06-2.61,2.15-5.2,3.29-7.79c2.09-6.46,4.45-12.83,7.06-19.12
	c4.38-10.49,9.55-20.66,15.23-30.56c10.69-18.62,23.75-36.01,38.3-52.11c14.88-16.46,31.46-31.45,49.1-45.25
	c8.61-6.74,17.55-13.1,26.69-19.19c8.79-5.86,17.8-11.43,27-16.69c19.88-11.39,40.55-21.49,61.8-30.41
	c21.98-9.22,44.58-17.16,67.56-23.86c11.14-3.25,22.34-6.23,33.63-8.96c11.5-2.78,23.08-5.22,34.71-7.46
	c45.34-8.78,91.59-13.22,137.84-14.3c47.35-1.1,94.79,1.83,141.67,8.11c23.83,3.19,47.51,7.43,70.96,12.49
	c23.22,5.02,46.23,10.95,68.91,17.85c22.14,6.73,43.97,14.29,65.45,22.73c21.8,8.57,43.16,18.16,64.02,28.6
	c40.5,20.25,78.94,44.32,114.11,72.08c32.1,25.36,61.38,54.12,85.99,86.11c3.8,4.94,7.49,9.96,11.05,15.07
	c0.64-1.2,1.37-2.38,2.05-3.54c1.93-3.3,3.84-6.56,6.05-9.69c1.29-1.82,2.62-3.59,4.34-5.07c1.84-1.57,3.91-2.74,6.21-3.59
	c4.04-1.5,8.39-1.88,12.69-2c4.26-0.11,8.44,0.53,12.44,1.91c2.21,0.76,4.41,1.7,6.4,2.9c2.02,1.22,3.93,2.57,5.82,3.96
	c3.35,2.49,6.74,4.95,9.99,7.56c7.03,5.64,13.61,11.79,20.25,17.82c3.16,2.87,6.15,5.9,9.2,8.88c3.3,3.23,6.62,6.45,9.79,9.8
	c1.7,1.8,3.35,3.62,4.94,5.5c1.36,1.61,2.65,3.27,3.98,4.89c2.84,3.46,5.75,6.86,8.57,10.34c2.57,3.18,4.86,6.57,7.35,9.81
	c2.52,3.29,5.09,6.54,7.45,9.81c0.07,0.1,0.14,0.2,0.18,0.25c0.02,0.02,0.03,0.04,0.05,0.07c0,0,0,0.01,0.01,0.01
	c0.16,0.2,0.31,0.4,0.41,0.57c2.56,3.57,4.95,7.26,7.39,10.91c2.36,3.52,4.5,7.25,5.99,11.19c0.76,2,1.23,4.1,1.79,6.16
	C1413.73,437.89,1414.28,439.82,1414.7,441.79z"/>
<path class="st0" d="M382.97,425.63c1.37-7.58,0.13-15.47-3.29-22.34c-0.01-0.02-0.02-0.03-0.03-0.05c0-0.01-0.01-0.02-0.01-0.04
	c0-0.01-0.01-0.02-0.01-0.02c-0.11-0.23-0.24-0.45-0.36-0.67c0,0,0.01,0.01,0.01,0.02c-0.02-0.04-0.04-0.08-0.06-0.12
	c-0.03-0.04-0.05-0.09-0.07-0.13c-1.16-2.1-2.51-4.06-4.05-5.88c-4.73-3.69-9.64-7.23-15.07-9.78c-2.04-0.91-4.31-1.32-6.34-2.23
	c-1.77-0.28-3.56-0.41-5.36-0.41c-2.03,0-4.06,0.18-6.07,0.53c-4.29,0.76-8.37,2.34-12.09,4.59c-0.15,0.09-0.28,0.2-0.39,0.32
	c-0.33,0.2-0.66,0.41-0.98,0.62c-0.66,0.43-1.31,0.93-1.94,1.43c-1.47,1.15-2.87,2.41-4.14,3.79c-2.71,2.94-4.95,6.33-6.53,10.01
	c-2.94,6.87-3.73,14.65-2.06,21.95c1.81,7.85,6.21,15.09,12.55,20.04c3.09,2.42,6.54,4.36,10.24,5.63c3.52,1.22,7.2,1.86,10.92,1.94
	c0.22,0.01,0.44,0.01,0.66,0.01c8.36,0,16.79-3.16,23.03-8.78c2.96-2.66,5.5-5.73,7.45-9.23
	C380.91,433.35,382.26,429.56,382.97,425.63z M390.75,418.32c0.05,1.29,0,2.6-0.11,3.9c-0.11,1.4-0.24,2.8-0.5,4.19
	c-0.52,2.79-1.23,5.56-2.28,8.2c-2.07,5.15-5.09,9.85-8.96,13.8c-1.88,1.91-3.93,3.68-6.16,5.17c-2.39,1.59-4.89,3.05-7.56,4.09
	c-1.42,0.55-2.85,1.05-4.3,1.48c-1.35,0.41-2.74,0.68-4.12,0.92c-2.25,0.4-4.55,0.59-6.84,0.59c-0.49,0-0.98,0-1.46-0.02
	c-2.89-0.11-5.85-0.48-8.65-1.25c-2.64-0.72-5.29-1.59-7.74-2.86c-1.34-0.7-2.67-1.41-3.96-2.22c-1.18-0.73-2.3-1.57-3.4-2.42
	c-2.21-1.72-4.19-3.7-6-5.84c-1.91-2.26-3.5-4.73-4.91-7.34c-1.34-2.49-2.3-5.18-3.11-7.89c-0.8-2.67-1.2-5.47-1.42-8.25
	c-0.23-2.92-0.07-5.82,0.29-8.73c0.17-1.38,0.45-2.76,0.78-4.11c0.35-1.41,0.75-2.82,1.26-4.2c0.95-2.54,2.04-5.03,3.48-7.34
	c0.78-1.26,1.6-2.48,2.49-3.66c0.86-1.14,1.83-2.19,2.79-3.25c1.92-2.1,4.17-3.85,6.47-5.48c2.41-1.71,5.09-3.01,7.81-4.12
	c2.61-1.06,5.33-1.69,8.09-2.18c1.08-0.19,2.18-0.3,3.27-0.36c0.18-0.15,0.43-0.19,0.63-0.04c0.03,0,0.06,0,0.09,0
	c1.34-0.05,2.69-0.08,4.02,0.02c1.22,0.1,2.43,0.24,3.62,0.43c7.98,0.71,15.8,3.67,22.06,8.52c0.21,0.24,0.52,0.52,0.86,0.83
	c0.75,0.25,1.44,0.72,1.93,1.38c1.38,1.64,2.77,3.25,4,5.02c1.51,2.16,2.77,4.48,3.86,6.89c1.11,2.43,1.99,5,2.59,7.61
	C390.3,412.63,390.64,415.44,390.75,418.32z"/>
<path class="st0" d="M379.1,417.54c0.07,1.34,0.06,2.68-0.02,4.02c-0.09,1.22-0.25,2.44-0.46,3.64c0,0.01,0,0.02-0.01,0.04
	c-0.07,0.33-0.14,0.66-0.21,0.98c-0.17,0.76-0.37,1.51-0.6,2.26c-0.07,0.25-0.15,0.5-0.23,0.75c0,0,0,0.01,0,0.02s0,0.01,0,0.01
	c0,0,0,0.01,0,0.01c0,0.01,0,0.01,0,0.02c-0.42,1.21-0.89,2.38-1.43,3.54c-0.62,1.27-1.31,2.51-2.08,3.7
	c-0.71,1.06-1.47,2.09-2.29,3.07c-0.38,0.44-0.77,0.86-1.18,1.28c-0.18,0.19-0.36,0.38-0.55,0.56c-0.03,0.03-0.06,0.06-0.09,0.09
	c-0.27,0.28-0.56,0.56-0.85,0.83c-1.09,0.98-2.23,1.88-3.43,2.71c-1.04,0.7-2.11,1.34-3.21,1.93c-1.34,0.68-2.7,1.26-4.11,1.76
	c-0.94,0.31-1.89,0.59-2.85,0.82c-1.69,0.31-3.44,0.48-5.24,0.48c-0.33,0-0.65,0-0.98-0.02c-12.21,0.14-20.43-6.25-26.79-16.25
	c-4.87-6.71-5.56-15.88-3.36-23.95c0.14-0.45,0.29-0.89,0.45-1.33c0.47-1.23,1.02-2.45,1.62-3.63c0.66-1.24,1.39-2.44,2.2-3.6
	c0.73-1.02,1.52-1.99,2.35-2.93c0.93-1,1.9-1.95,2.94-2.83c0.82-0.69,1.65-1.37,2.54-1.96c0.37-0.23,0.75-0.45,1.12-0.67
	c0.09-0.05,0.2-0.09,0.28-0.15c0.01-0.01,0.02-0.01,0.03-0.01c0.01-0.01,0.01-0.01,0.02-0.02c0,0-0.01,0-0.02,0.01
	c0.01-0.01,0.03-0.02,0.05-0.03c0.03-0.02,0.07-0.04,0.1-0.06c0.03-0.02,0.05-0.03,0.08-0.04c-0.01,0-0.02,0.01-0.04,0.02
	c0.01,0,0.02-0.02,0.04-0.02c0.54-0.31,1.07-0.59,1.62-0.88c0.93-0.46,1.9-0.88,2.87-1.29c0.88-0.34,1.76-0.64,2.66-0.9
	c1.34-0.36,2.7-0.65,4.08-0.86c-0.02,0-0.05,0.01-0.07,0.02c1.41-0.2,2.84-0.29,4.27-0.32c1.37,0.01,2.72,0.1,4.07,0.26
	c0,0,0.01,0,0.02,0c1.36,0.2,2.71,0.46,4.04,0.82c0,0,0,0,0,0c1.35,0.38,2.67,0.84,3.96,1.38c1.21,0.52,2.39,1.12,3.54,1.79
	c0.01,0.01,0.03,0.02,0.04,0.03c0.01,0.01,0.02,0.02,0.04,0.02c1.09,0.65,2.14,1.37,3.16,2.14c1.01,0.8,1.98,1.64,2.9,2.55
	c0.85,0.87,1.65,1.77,2.41,2.71c0.66,0.85,1.28,1.73,1.86,2.62c0.34,0.56,0.68,1.13,1.01,1.71c0,0,0,0,0.01,0
	c0.2,0.36,0.38,0.72,0.57,1.09c0.56,1.16,1.07,2.35,1.5,3.57c0,0.01,0,0.02,0.01,0.02c0.18,0.54,0.35,1.07,0.5,1.62
	c0.05,0.18,0.11,0.37,0.16,0.56c0.07,0.26,0.14,0.52,0.2,0.78c0.07,0.3,0.15,0.61,0.21,0.91C378.8,414.48,379,416,379.1,417.54z"/>
<path class="st0" d="M297.76,468.68c0.79,0.73,0.91,1.89,0.27,2.7c-0.43,0.61-1.16,0.97-1.83,1.29c-0.95,0.45-1.95,0.82-2.95,1.18
	c-2.2,0.81-4.45,1.49-6.68,2.18c-4.57,1.42-9.11,2.88-13.58,4.55c-5.84,2.23-11.51,4.77-17.04,7.61
	c-6.14,3.25-12.03,6.84-17.73,10.73c-6.84,4.79-13.32,9.97-19.51,15.5c-7.11,6.48-13.77,13.37-20.01,20.62
	c-5.21,6.14-10.16,12.51-14.7,19.11c-1.12,1.63-3.09,2.47-5.07,2.47c-1.27,0-2.54-0.34-3.59-1.04c-2.82-1.87-3.39-5.52-1.51-8.18
	c7.76-10.92,16.29-21.34,25.73-31c11.24-11.49,23.87-21.98,37.8-30.47c7.04-4.29,14.37-8.14,22.06-11.28
	c3.8-1.55,7.66-2.93,11.61-4.09c3.85-1.14,7.82-2.09,11.81-2.64c2.82-0.4,5.64-0.63,8.48-0.57c1.28,0.03,2.54,0.14,3.79,0.34
	C296.03,467.82,297.09,468.05,297.76,468.68z"/>
<path class="st0" d="M561.99,450.04c0,0.26,0,0.51-0.01,0.77c-0.01,0.16-0.04,0.33-0.05,0.5v0.01c0,0,0,0.01,0,0.01
	c-0.01,0.03-0.02,0.06-0.02,0.09c-4.75,3.23-9.5,6.45-14.25,9.67c-5.15,3.49-10.28,6.98-15.42,10.48
	c-5.17,3.53-10.35,7.05-15.51,10.59c-5.21,3.57-10.39,7.18-15.58,10.78c-2.55,1.77-5.11,3.54-7.65,5.33c-0.94,0.66-1.88,1.33-2.81,2
	c-0.8,0.51-1.59,1.05-2.38,1.59c-0.66,0.44-1.29,0.92-1.94,1.38c-0.64,0.46-1.27,0.94-1.9,1.41c-0.16,0.12-0.31,0.23-0.47,0.35
	c-0.28-0.03-0.56-0.04-0.84-0.04c-0.59,0-1.18,0.04-1.77,0.07c-0.54,0.04-1.07,0.1-1.62,0.16c-0.09,0.01-0.2,0.02-0.3,0.04
	c-1.54-0.89-3.07-1.77-4.62-2.65c-5.18-2.97-10.34-5.95-15.51-8.91c-5.43-3.11-10.85-6.22-16.28-9.32c0.04,0.02,0.08,0.05,0.12,0.07
	c-3.07-1.76-6.15-3.52-9.23-5.27c-5.39-3.06-10.79-6.14-16.21-9.18c0.08,0.04,0.15,0.08,0.22,0.12c-1.06-0.6-2.12-1.19-3.18-1.79
	c-5.34-2.97-10.72-5.87-16.11-8.75c-2.5-1.34-4.98-2.67-7.5-3.97c0.23-0.53,0.45-1.06,0.67-1.59c0.11-0.27,0.21-0.55,0.32-0.82
	c0.26-0.03,0.52-0.07,0.78-0.11c0.07,0,0.14,0,0.21,0c3.1,0,6.21-0.02,9.31-0.05c8.5-0.07,17.01-0.22,25.51-0.37
	c8.62-0.14,17.24-0.31,25.86-0.49c8.62-0.18,17.27-0.37,25.9-0.55c8.61-0.19,17.21-0.39,25.82-0.59c8.58-0.2,17.16-0.4,25.75-0.6
	c8.41-0.2,16.82-0.41,25.23-0.62c1.81-0.05,3.62-0.09,5.43-0.13C561.98,449.78,561.99,449.9,561.99,450.04z"/>
<path class="st0" d="M454.61,422.72c0.28,1.79-1.22,3.49-3.01,3.48c-3.41,0.06-6.82,0.19-10.23,0.19c-0.62,0-1.24,0-1.86-0.01
	c-0.61,0.06-1.32-0.14-1.9-0.48c-0.07,0.01-0.14,0.02-0.22,0.02c-0.37,0-0.76-0.14-1.11-0.49c-0.85-1.07-1.42-3.43,0.33-3.92
	c0-0.01,0-0.01,0-0.01c0.02,0,0.04-0.01,0.05-0.01c0.61-1.61,3.43-1.54,5.86-1.47c1.15,0.04,2.21,0.06,2.91-0.08
	c0.71,0.03,1.46-0.02,2.21-0.07c1.34-0.07,2.69-0.15,3.94,0.2C453.07,420.03,454.41,421.24,454.61,422.72z"/>
<path class="st0" d="M508.32,419.54c2.82,2.02,1.55,7.02-1.94,7.32c-1.61,0.13-3.21,0.19-4.82,0.19c-1.39,0-2.77-0.04-4.16-0.1
	c-3.27-0.16-10.07,0.14-8.62-4.99c1.68-3.63,9.01-2.32,12.12-2.9c0.73,0.01,1.5-0.09,2.27-0.18
	C504.97,418.65,506.8,418.42,508.32,419.54z"/>
<path class="st0" d="M653.83,420.22c1.37-7.58,0.12-15.47-3.3-22.34c0.03,0.05,0.05,0.1,0.08,0.15c-0.03-0.07-0.06-0.13-0.1-0.2
	c0-0.01-0.01-0.02-0.02-0.04v0.01c-0.11-0.23-0.23-0.46-0.35-0.68c-0.01-0.02-0.02-0.03-0.03-0.05c0,0.01,0.01,0.02,0.02,0.02
	c-0.02-0.03-0.04-0.06-0.05-0.09c-0.02-0.03-0.04-0.06-0.05-0.09c-1.16-2.11-2.53-4.09-4.07-5.92c0,0,0,0-0.01-0.01
	c-4.72-3.68-9.63-7.21-15.05-9.76c-2.05-0.92-4.33-1.33-6.37-2.25c-1.77-0.27-3.55-0.41-5.34-0.41c-2.03,0-4.06,0.18-6.07,0.54
	c-4.29,0.75-8.37,2.34-12.09,4.59c-0.15,0.09-0.28,0.2-0.39,0.32c-0.34,0.2-0.66,0.41-0.99,0.62c-0.66,0.43-1.31,0.93-1.94,1.43
	c-1.47,1.15-2.87,2.41-4.14,3.79c-2.71,2.93-4.95,6.33-6.52,10.01c-2.94,6.87-3.74,14.65-2.06,21.95c1.8,7.85,6.2,15.09,12.55,20.04
	c3.1,2.42,6.54,4.36,10.24,5.64c3.52,1.22,7.2,1.86,10.91,1.94c0.22,0.01,0.43,0.01,0.66,0.01c8.35,0,16.79-3.16,23.02-8.78
	c2.96-2.66,5.51-5.73,7.45-9.23C651.77,427.94,653.12,424.15,653.83,420.22z M661.61,412.91c0.05,1.29-0.01,2.6-0.11,3.89
	c-0.11,1.4-0.24,2.81-0.49,4.19c-0.52,2.79-1.23,5.56-2.29,8.2c-2.07,5.15-5.09,9.85-8.96,13.81c-1.88,1.91-3.93,3.68-6.16,5.17
	c-2.39,1.59-4.89,3.05-7.56,4.09c-1.42,0.55-2.85,1.05-4.3,1.48c-1.35,0.41-2.74,0.68-4.12,0.92c-2.25,0.4-4.55,0.6-6.84,0.6
	c-0.49,0-0.98,0-1.46-0.02c-2.89-0.11-5.85-0.48-8.65-1.25c-2.65-0.72-5.3-1.59-7.75-2.85c-1.35-0.7-2.67-1.42-3.96-2.22
	c-1.18-0.73-2.3-1.57-3.4-2.43c-2.21-1.72-4.19-3.7-6-5.84c-1.91-2.26-3.49-4.73-4.91-7.34c-1.35-2.49-2.3-5.18-3.11-7.89
	c-0.8-2.67-1.2-5.47-1.42-8.25c-0.23-2.92-0.07-5.82,0.29-8.73c0.17-1.38,0.45-2.76,0.79-4.11c0.35-1.42,0.75-2.82,1.26-4.2
	c0.95-2.54,2.04-5.03,3.48-7.34c0.78-1.25,1.6-2.48,2.49-3.66c0.87-1.14,1.83-2.19,2.79-3.24c1.91-2.1,4.16-3.85,6.47-5.48
	c2.41-1.71,5.08-3.01,7.8-4.12c2.6-1.06,5.33-1.69,8.09-2.18c1.08-0.19,2.18-0.3,3.28-0.37c0.18-0.14,0.43-0.19,0.64-0.03
	c0.03,0,0.05,0,0.08,0c1.33-0.05,2.68-0.08,4.02,0.02c1.25,0.1,2.5,0.24,3.73,0.45c7.94,0.72,15.73,3.68,21.96,8.51
	c0.21,0.24,0.52,0.52,0.86,0.83c0.75,0.25,1.43,0.73,1.93,1.38c1.38,1.64,2.77,3.25,4,5.01c1.51,2.16,2.77,4.48,3.86,6.89
	c1.1,2.43,1.99,5,2.58,7.61C661.17,407.22,661.5,410.03,661.61,412.91z"/>
<path class="st0" d="M649.96,412.13c0.07,1.32,0.06,2.64-0.01,3.96c-0.1,1.24-0.25,2.48-0.47,3.7c0,0.02-0.01,0.03-0.01,0.05
	c0,0,0,0,0,0.01c-0.26,1.35-0.61,2.67-1.03,3.97c0,0.01-0.01,0.02-0.01,0.04c0,0.01,0,0.02-0.01,0.02
	c-0.42,1.21-0.89,2.38-1.43,3.54c-0.62,1.27-1.31,2.51-2.08,3.7c-0.71,1.06-1.47,2.09-2.29,3.07c-0.42,0.48-0.85,0.96-1.3,1.41
	c-0.36,0.37-0.73,0.74-1.11,1.1c-0.09,0.09-0.17,0.17-0.26,0.25c-1.09,0.98-2.23,1.89-3.43,2.72c-1.04,0.69-2.11,1.34-3.21,1.93
	c-1.34,0.68-2.7,1.26-4.1,1.76c-0.95,0.31-1.89,0.59-2.85,0.83c-1.69,0.31-3.44,0.48-5.24,0.48c-0.33,0-0.65-0.01-0.99-0.02
	c-12.21,0.14-20.42-6.25-26.78-16.25c-4.87-6.7-5.56-15.88-3.36-23.95c0.14-0.45,0.29-0.89,0.45-1.33
	c-0.01,0.01-0.02,0.03-0.02,0.04c0.47-1.25,1.02-2.47,1.64-3.67c0.66-1.24,1.39-2.44,2.2-3.6c0.74-1.02,1.52-1.99,2.36-2.93
	c0.93-1,1.9-1.95,2.94-2.83c0.82-0.69,1.66-1.37,2.54-1.97c0.38-0.23,0.75-0.45,1.12-0.67c0.1-0.05,0.19-0.09,0.29-0.15
	c0-0.01,0.02-0.01,0.02-0.01s0,0,0.01-0.01c0.01-0.01,0.03-0.02,0.04-0.03c0.04-0.02,0.07-0.04,0.1-0.06
	c0.02-0.01,0.04-0.02,0.05-0.03c0.01-0.01,0.02-0.02,0.03-0.02c0.54-0.31,1.07-0.6,1.62-0.88c0.94-0.46,1.9-0.88,2.87-1.29
	c0.88-0.34,1.76-0.64,2.67-0.9c1.34-0.37,2.7-0.65,4.07-0.86c1.39-0.19,2.8-0.28,4.2-0.3c1.36,0.01,2.72,0.1,4.07,0.26
	c1.37,0.2,2.72,0.46,4.06,0.82c0,0,0,0,0,0c1.34,0.38,2.67,0.84,3.95,1.38c1.21,0.52,2.39,1.12,3.55,1.79
	c0.01,0.01,0.03,0.02,0.04,0.03c0.01,0,0.03,0.02,0.04,0.02c1.09,0.65,2.14,1.37,3.15,2.14c1.02,0.8,1.98,1.64,2.9,2.56
	c0.86,0.86,1.66,1.77,2.42,2.71c0.66,0.85,1.27,1.73,1.86,2.62c0.34,0.56,0.68,1.13,1,1.71c0,0,0,0,0,0.01
	c0.2,0.36,0.38,0.72,0.57,1.09c0.57,1.17,1.07,2.37,1.51,3.6c0.18,0.54,0.36,1.07,0.51,1.62c0.06,0.19,0.11,0.37,0.16,0.56
	c0.15,0.56,0.29,1.12,0.42,1.69C649.66,409.07,649.86,410.59,649.96,412.13z"/>
<path class="st0" d="M1201,575.45c0.99,1.23,1.54,2.66,1.4,4.22c-0.13,1.57-0.95,3.04-2.23,4.04c-1.12,0.88-2.58,1.32-4.02,1.32
	c-1.81,0-3.6-0.7-4.74-2.11c-0.88-1.09-1.83-2.13-2.82-3.14c-2.24-2.2-4.67-4.22-7.18-6.15c-5.12-3.83-10.57-7.25-16.15-10.46
	c-14.45-8.2-29.7-15.09-44.99-21.38c-18.46-7.54-37.29-14.28-56.29-20.51c-19.96-6.53-40.14-12.51-60.44-18.03
	c-1.25-0.34-2.5-0.68-3.23-0.88c-21.12-5.66-42.37-10.88-63.74-15.62c-21.34-4.73-42.79-9.04-64.34-12.82
	c-15.47-2.71-30.98-5.16-46-7.26c-21.48-2.95-43.04-5.36-64.68-6.87c-10.54-0.74-21.09-1.2-31.64-1.39
	c-12.94-0.16-25.87,0.28-38.44,1.52c-3.05,0.32-6.07,0.75-9.11,1.19c-1.37,0.2-2.75,0.42-4.12,0.61c-1.01,0.15-2.14,0.29-3.08-0.18
	c-1.02-0.51-1.47-1.65-1.11-2.63v0c0.65-1.66,2.88-2.45,4.42-3.16c2.23-1.03,4.61-1.8,6.98-2.48c4.89-1.39,9.84-2.34,14.89-3.07
	c5.27-0.76,10.62-1.19,15.93-1.46c5.35-0.28,10.7-0.45,16.05-0.5c21.95-0.21,43.91,1.4,65.71,3.62c21.91,2.23,43.71,5.35,65.42,8.89
	c21.44,3.5,42.77,7.57,64,12.09c21.57,4.58,43.01,9.65,64.33,15.17c20.58,5.32,41.05,11.1,61.31,17.43
	c19.69,6.16,39.23,12.76,58.43,20.17c18.11,7,36.04,14.58,53.1,23.65c8.78,4.66,17.39,9.74,25.21,15.75
	c4.01,3.08,7.89,6.44,11.04,10.33C1200.95,575.38,1200.98,575.42,1201,575.45z"/>
</svg>
