<?xml version="1.0" encoding="utf-8"?>
<!-- Generator: Adobe Illustrator 27.9.4, SVG Export Plug-In . SVG Version: 9.03 Build 54784)  -->
<svg version="1.1" id="向量圖層_00000093876850290913548250000011910130622314521788_"
	 xmlns="http://www.w3.org/2000/svg" xmlns:xlink="http://www.w3.org/1999/xlink" x="0px" y="0px" viewBox="0 0 650 624"
	 style="enable-background:new 0 0 650 624;" xml:space="preserve">
<style type="text/css">
	.st0{fill:#586478;}
	.st1{fill:#F7D55B;}
	.st2{fill:#5F6B7E;}
	.st3{fill:#DFDFDF;}
</style>
<path class="st0" d="M150.58,453.59c1.57-3.42,3.16-6.84,5.2-10.01c5.03-6.87,10.89-13.16,15.16-20.58
	c6.63-11.98,12.78-24.57,15.12-38.17c4.93-25.21,0.47-50.79,4.11-76.07c1.59-13.37,6.9-26.04,13.36-37.75
	c5.85-9.5,13.27-18.41,16.35-29.31c0.75-3.58-0.82-3.18-3.54-4.37c-2.62-1.08-5.23-2.49-7.02-4.75c-1.18-1.43-1.14-3.61-2.87-4.6
	c-4.73-2.65-10.63-1.67-15.83-1.5c-7.96,0.79-15.22,4.73-23.15,5.64c-6.22,0.62-13.54-0.84-17.11-6.45
	c-2.17-3.11-2.86-6.9-4.64-10.19c-2.14-3.74-7.07-3.24-10.57-4.86c-2.02-0.82-3.84-2.16-5.37-3.7c-3.21-3.22-3.91-7.95-5.98-11.84
	c-0.28-0.38-0.5-0.88-0.97-1.04c-0.3,0.07-0.54,0.28-0.8,0.43c-1.12,0.83-2.15,1.8-2.98,2.92c0.11,1.11-0.79,1.55-1.69,1.61
	c-0.76,0-1.31-0.66-1.53-1.32c-0.67-2.58,1.22-5.08,2.81-6.93c3.92-4.48,7.99-2.58,10.23,2.31c1.29,2.51,1.91,5.32,3.31,7.78
	c5.63,8.1,14.88,2.73,18.51,14.94c1.04,3.01,1.83,6.33,4.19,8.62c10.5,7.99,23.3-1.07,34.53-2.43c6.66-0.57,14.64-2.47,20.3,2.08
	c1.89,1.31,1.96,3.79,3.39,5.38c3.98,3.65,11.24,2.74,11.46,9.61c0.67,10.32-10.22,25.32-15.45,33.82
	c-2.18,3.56-4.02,7.35-5.66,11.18c-2.93,6.69-5.81,13.5-7.03,20.74c-5.8,31.3,1.88,64.17-8.55,94.76
	c-5.06,13.02-10.95,25.96-19.49,37.11C163.23,443.02,158.6,450.71,150.58,453.59z"/>
<path class="st0" d="M66.51,435.79c-3.16-1.47-2.98-5.64-3.97-8.54c-1.23-5.12-2.26-10.3-2.79-15.54
	c-0.63-7.49-0.01-15.04,0.36-22.53c0.67-10.23,1.5-20.54,4.06-30.49c1.95-7.7,6.1-14.55,9.57-21.63c4.1-8.48,8.25-16.94,12.63-25.29
	c6.55-13,13.2-26.32,15.97-40.7c1.71-9.86,3.15-19.79,3.75-29.79c0.79-10,2.32-19.93,4.37-29.74c0.82-3.83,1.74-7.72,3.26-11.34
	c0.71-1.71,1.52-3.46,2.64-4.96c0.58-0.82,1.45-1.54,2.51-1.46c0.7-0.01,0.73,1.03,0.33,1.39c0,0,0,0,0,0
	c0.01,1.92-0.66,3.73-1.24,5.54c-3.16,11.58-4.8,23.35-6.22,35.21c-0.92,12.7-2.17,25.38-4.51,37.91
	c-5.06,24.28-19.1,45.28-29.47,67.48c-2.96,5.95-6.43,11.71-8.34,18.12c-4.08,16.21-4.76,32.98-4.79,49.61
	c0.38,5.37,1.4,10.65,2.63,15.88c0.54,3.17,2.35,6.38,1.21,9.59C68.24,435.36,67.47,436.26,66.51,435.79z"/>
<path class="st0" d="M156.66,444.56c2.12-1,3.78,0.47,3.09,2.73c0,0.01-0.01,0.03-0.01,0.04c-1.39,2.97-3.76,5.54-6.14,7.79
	c-7.42,5.86-17.17,8.21-26.5,7.7c-9.46-0.42-18.73-2.45-27.73-5.34c-11.1-3.84-28.73-9.01-33.93-20.38
	c-0.18-0.61-0.39-1.54-0.52-2.56c-0.3-2.25-0.24-4.95,1.21-5.68c0.86-0.4,1.69-0.06,2.3,0.53c0.25,0.24,0.47,0.52,0.64,0.81
	c1.72,5.1,6.03,8.44,10.41,11.27c7.81,4.38,16.17,7.41,24.65,9.99c7.35,2.43,14.95,4.03,22.7,4.48c7.52,0.81,14.91-0.36,21.45-4.05
	c2.04-1.16,3.68-2.68,5.21-4.34c0.23-0.25,0.45-0.5,0.68-0.75C154.9,445.96,155.61,445.02,156.66,444.56z"/>
<path class="st0" d="M182.85,274.53c-14.94-1.52-29.56-5.95-43.25-12.08c-6.76-2.86-13.46-6.57-17.77-12.71
	c-0.73-1.09-1.57-2.21-1.9-3.5c-0.35-1.27,0.93-2.95,2.26-2.32c2.03,2,4.51,3.65,6.75,5.48c5.72,4.25,12.54,6.57,19.03,9.37
	c7.56,3.29,15.34,5.38,23.23,7.32c3.72,0.9,7.47,1.74,11.26,2.25c2.29,0.34,5.51-0.2,6.6,2.42c0.41,1.15-0.8,2.18-1.63,2.76
	C186.1,274.49,184.43,274.67,182.85,274.53z"/>
<path class="st0" d="M166.94,316.41c-15.38-2.13-30.31-7.46-43.48-15.7c-4.09-2.32-7.88-5.1-10.95-8.68
	c-0.67-0.73-1.27-1.54-1.86-2.34c-0.55-0.77-1.34-1.74-1.09-2.73c0.3-1.13,1.71-1.61,2.53-0.69c3.06,2.22,6.16,4.42,9.4,6.36
	c9.57,5.61,19.61,10.52,30.29,13.65c5.34,1.5,10.75,2.83,16.23,3.67c1.43,0.29,3.01,0.11,4.32,0.86c1.77,1.01,1.78,3.28,0.2,4.5
	c-1.57,1.49-3.81,1.43-5.81,1.08C166.73,316.38,166.94,316.41,166.94,316.41z"/>
<path class="st0" d="M163.83,368.3c1.65,0.29,3.43,1.95,2.72,3.75c-1.15,2.44-4.1,3.18-6.57,2.69
	c-12.14-1.27-23.88-5.19-34.93-10.24c-11.79-5.34-24.82-11.52-30.66-23.8c-0.32-0.82-0.73-1.62-0.84-2.5
	c-0.18-1.32,1.57-2.75,2.71-1.81c1.81,2.17,3.76,4.24,5.84,6.17c4.61,4.42,9.95,7.96,15.66,10.79c9.19,4.46,18.55,8.66,28.36,11.59
	C151.88,366.68,157.82,367.82,163.83,368.3z"/>
<path class="st0" d="M146.16,444c0.27,1.43-0.34,2.78-1.21,3.88c-3.7,4.46-10.11,4.76-15.46,4.27c-8-0.83-15.81-2.98-23.39-5.62
	c-6.33-2.45-30-8.67-26.93-17.81c-0.55-2.46,1.88-3.91,4.18-4.79c4.88,4.55,11.26,7.57,17.84,8.45c4.29-0.31,6.57-3.9,7.98-8.09
	c0.29,0.07,0.57,0.15,0.85,0.22c5.38,1.43,10.75,2.96,15.85,5.22c6.18,2.71,11.99,6.3,17.19,10.59
	C144.27,441.31,145.86,442.39,146.16,444z"/>
<path class="st0" d="M190.3,87.02c-3-2.01,0.87-7.26,1.55-9.87c0.97-2.23,1.45-4.48,2.14-6.74c0.27-0.48,0.84-0.91,1.41-0.84
	c0.95,0.08,1.22,1.09,1,1.89c-0.1,2.21-0.61,4.38-1.17,6.52C194.24,80.7,193.9,86.8,190.3,87.02z"/>
<path class="st0" d="M230.83,100.62c-1.25-2.41,0.81-4.8,1.54-7.05c3.62-9.7,0.55-8.32-7.36-11.69c-9.75-3.11-20.2-5.17-29.59-8.77
	c-1.62-4.86,8.87-1.6,11.17-1.47c8.37,1.51,16.73,3.63,24.68,6.68c6.76,2.22,8.39,5.83,6.59,12.62
	C237.13,93.48,234.62,102.92,230.83,100.62z"/>
<path class="st0" d="M195.54,73.61c-1.37-0.34-0.82-2.85,0.56-2.45C198.15,71.55,197.47,74.03,195.54,73.61z"/>
<path class="st0" d="M229.2,102.64c-12.67-4.3-25.53-7.92-38.03-12.64c-0.63-0.52-0.49-1.45,0.03-2c1.35-1.1,3.4-0.47,4.99-0.31
	c7.88,1.75,15.46,4.65,23.24,6.82c3.18,0.94,6.36,1.9,9.49,3c1.15,0.44,2.72,0.65,3.06,2.06
	C232.56,101.24,230.91,103.01,229.2,102.64z"/>
<path class="st0" d="M186.06,92.87c-0.62-0.66-0.6-1.66-0.3-2.47c0.7-2.08,2.9-2.85,4.7-3.71c0.12-1,0.23-2.16,0.88-2.96
	c0.62-0.64,1.37-0.07,1.42,0.7c0.17,1.02,0.19,2.06,0.28,3.09c0.16,0.72,0.05,1.54-0.5,2.07c-0.4,0.42-1.12,0.67-1.63,0.29
	c-0.67,0.43-1.35,0.88-1.95,1.41C188.77,92.56,187.23,94.08,186.06,92.87z"/>
<path class="st0" d="M231.93,108c-0.54-0.78-0.41-1.78-0.61-2.67c-0.28-1.21-1.22-2.25-1.22-3.51c0.99-3.92,5,0.65,5.13,2.81
	C235.81,106.34,233.76,109.71,231.93,108z"/>
<path class="st0" d="M244.51,150.46c-4.62-1.62-7.51-6.54-9.72-10.53c-1.76-3.71-6.19-4.08-9.83-4.13
	c-3.97,0.19-7.82,1.27-11.58,2.5c-3.6,1.29-7.14,3.01-11,3.33c-5.85,0.55-11.66-1.02-17.33-2.22c-3.73-0.97-7.41-2.24-10.75-4.19
	c-3.24-1.83-5.49-4.86-8.17-7.35c-2.66-2.24-6.2,0.09-9.24,0.11c-3.84,0.33-9.49-0.52-10.75-4.76c-0.6-4.18,8.47-10.83,11.41-13.74
	c7.9-7.15,16.62-14.27,27.42-16.11c0.96-0.12,2.07-0.46,2.95,0.08c0.57,0.41,0.51,1.37-0.04,1.77c-4.3,2.25-8.6,4.23-12.78,6.64
	c-8.9,5.63-17.11,12.37-24.42,19.93c5.43,3.77,12.04-2.33,17.44,1.03c2.55,1.73,4.28,4.4,6.68,6.33c6.31,4.85,14.69,6.22,22.18,7.75
	c4.84,0.95,9.49-0.63,13.82-2.69c7.71-2.88,17.27-5.48,24.75-0.75c2.18,1.74,3.2,4.4,4.58,6.75c1.37,2.23,3.24,4.26,5.61,5.43
	c0.81-4.78-1.97-9.04-3.35-13.43c-1.49-5.94-5.07-10.85-8.55-15.78c-0.66-1.03-1.61-1.9-2.08-3.04c-0.79-2.04,1.77-4.94,3.66-3.12
	c3.44,4.31,6.97,8.65,9.53,13.56c1.27,2.86,2.19,5.86,3.37,8.76c1.76,3.81,2.94,8,2.17,12.22
	C250.13,147.74,247.86,151.2,244.51,150.46z"/>
<path class="st0" d="M232.68,112.8c-2.5-0.13-0.44-6.17,1.21-6.33c0.67-0.07,0.94,0.57,0.89,1.12c0.12,0.63-0.27,1.28-0.21,1.95
	C234.87,110.83,234.23,112.82,232.68,112.8z"/>
<path class="st0" d="M233.41,112.27c-6.98-0.66-13.59-3.46-20.08-5.97c-3.14-1.46-6.4-1.97-9.42-3.47
	c-0.44-0.34-0.88-0.78-1.12-1.26c1.33-0.5,2.74-0.37,4.06,0.07c7.07,1.81,14,4.17,21.02,6.15c1.98,0.65,3.97,1.26,5.91,1.99
	c0.79,0.21,1.52,0.91,1.1,1.77C234.64,112.15,234,112.34,233.41,112.27z"/>
<path class="st0" d="M199.51,120.23c-6.76-2.01-13.49-4.15-20.23-6.24c-2.21-0.69-4.44-1.3-6.63-2.07
	c-0.41-0.15-0.89-0.32-1.05-0.78c-0.22-0.68,0.48-1.68,1.23-1.25c9.54,2.44,19.23,4.57,28.71,7.25c0.97,0.45,1.71,1.33,1.98,2.36
	C202.46,120.47,200.83,120.72,199.51,120.23z"/>
<path class="st0" d="M197.75,110.42c-0.8-0.26-2.08-0.04-2.57-0.79c-0.23-2.52,4.63,0.46,5.55,1.05
	C199.79,110.71,198.72,110.55,197.75,110.42z"/>
<path class="st0" d="M240.76,226.15c-1.27-1.82-0.82-4.88,1.38-5.78c0.14-0.06,0.29-0.11,0.44-0.15c0.7-1.19,2.19-1.89,3.52-1.34
	c4.46-1.11,5.05,6.5,1.06,7.35C245.5,227.95,242.26,228.29,240.76,226.15z"/>
<path class="st0" d="M240.56,202.42c-1.57-0.94-1.36-3.84,0.5-4.3c1.03-0.21,2.36-0.04,3.01,0.87c1.03,1.56,0.19,3.29-1.73,3.26
	C241.86,202.64,241.1,202.79,240.56,202.42z"/>
<path class="st0" d="M182.76,207.51c-1.33-1.08-1.32-3.71,0.26-4.59c0.66-0.37,1.38-0.29,1.94,0.1c1.37-0.02,2.96,1,2.59,2.53
	c-0.19,0.71-0.98,1.6-1.72,1.1c-0.01,0.01-0.02,0.01-0.04,0.02c-0.03,0.02-0.07,0.03-0.1,0.05
	C185.18,207.8,183.75,208.35,182.76,207.51z"/>
<path class="st0" d="M283.28,188.55c-6.11-2.74-3.84-10.38,2.73-10.24c3.33-0.53,8.84,1.29,7,5.54c-0.24,0.82-0.88,1.7-1.84,1.41
	C290.53,188.79,286.24,189.88,283.28,188.55z"/>
<path class="st0" d="M294.59,222.23c0.18-2.54,3.73-3.49,3.85-0.42C299.28,225.75,294.38,226.37,294.59,222.23z"/>
<path class="st0" d="M274.64,320.39c-12.84-2.04-10.54-24.96,4.5-22.01c5.43,0.91,9.58,6.18,7.76,11.68
	C285.42,315.48,280.74,321.05,274.64,320.39z M275.47,314.16c3.3-0.48,5.42-3.68,6.08-6.74c-1.96-2.33-6.46-2.75-8.61-0.46
	c-0.88,1.23-1.1,3.03-2.6,3.74C271.11,312.83,273.15,314.42,275.47,314.16z"/>
<path class="st0" d="M375.02,278.5c-4.43-1.63-5.12-7.09-3.41-10.97c0.48-1.19,0.86-2.91,2.26-3.29c1.28-0.24,1.68,1.63,1.02,2.48
	c-0.37,1.63-0.74,3.46-0.32,5.1c2.07,3.12,5.14-0.65,5.61-3.04c-0.56-0.56-1.38-0.64-2.05-1.01c-0.85-0.45-1.52-1.39-1.75-2.3
	c-0.52-2.16,1.55-4.28,3.7-3.73c2.06,0.54,3.91,1.92,4.79,3.9C387.41,271.1,381.39,280.68,375.02,278.5z"/>
<path class="st0" d="M377.4,154.67c-9.39-1.82-14.67-13.74-9.36-21.79c2.89-4.78,9.58-7.24,14.6-4.37
	c2.86-5.36,11.28,0.37,12.51,4.55C399.5,143.71,388.78,157.07,377.4,154.67z M380.88,147.98c5.2-0.51,10.96-6.31,9.05-11.71
	c-0.95-2.26-3.63-2.58-5.51-3.69c-0.31,0.78-1.09,1.2-1.45,0.21c-1.15-2.17-6.7-0.19-8.29,0.99
	C367.31,138.81,373.01,148.6,380.88,147.98z"/>
<path class="st0" d="M378.14,264.25c-1.36,0.07-3.55,0.52-3.5-1.53c0.12-2.91,3.11-3.76,4.86-1.46
	C381.18,262.17,380.01,265.6,378.14,264.25z"/>
<path class="st0" d="M372.08,270.14c-4.07-3.94,2.51-11.68,7.35-9.41c1.6,0.62,3.44,2.99,2.11,4.57c-0.29,0.23-0.68,0.25-0.98,0.08
	C374.96,264.58,375.71,271.2,372.08,270.14z"/>
<path class="st0" d="M372.73,273.53c-1.54-3.1-0.69-7.32,1.57-9.87c0.88-0.93,1.92-1.87,3.16-2.24c1.19-0.35,2.47,0.58,1.87,1.85
	c-0.2,0.45-0.74,0.66-1.18,0.46c-0.61,0.15-0.99,0.77-1.41,1.21c-1.29,1.76-1.96,3.63-2.85,5.46
	C373.45,271.43,372.84,272.44,372.73,273.53C372.73,273.54,372.73,273.54,372.73,273.53z"/>
<path class="st1" d="M389.93,136.26c1.9,5.41-3.86,11.2-9.05,11.71c-7.88,0.62-13.57-9.17-6.19-14.2c1.59-1.18,7.13-3.16,8.29-0.99
	c0.36,0.98,1.14,0.57,1.45-0.21C386.3,133.68,388.98,134,389.93,136.26z"/>
<path class="st1" d="M378.13,267.77c0.67,0.37,1.49,0.45,2.05,1.01c-0.47,2.39-3.54,6.16-5.61,3.04c-0.2-0.75-0.22-1.55-0.16-2.34
	c0.77-0.82,1.34-2.13,2.36-3.06C377.09,266.98,377.57,267.48,378.13,267.77z"/>
<path class="st1" d="M272.95,306.96c2.14-2.29,6.64-1.87,8.61,0.46c-0.66,3.06-2.78,6.25-6.08,6.74c-2.32,0.27-4.36-1.33-5.13-3.46
	C271.84,309.99,272.06,308.2,272.95,306.96z"/>
<path class="st2" d="M351.62,407.97c-2.1-0.52-4.23-1.59-5.97-2.87c-2.07-1.52-3.75-3.4-4.96-5.67c-2.36-4.39-2.35-9.71-0.8-14.36
	c0.57-1.7,1.33-3.33,2.29-4.83c0.24-0.38,0.49-0.75,0.75-1.12c0.42-0.58,0.87-1.13,1.37-1.65c1-1.1,2.13-2.08,3.38-2.93
	c1.85-1.24,4.08-2.12,6.33-2.34c2.04-0.37,4.26-0.26,6.23,0.21c1.78,0.42,3.41,1.06,5,1.95c1.53,0.86,2.98,2.1,4.07,3.48
	c0.49,0.62,0.94,1.29,1.34,1.97c0.54,0.91,1.07,2.05,1.29,3.09c0.27,1.23,0.56,2.48,0.54,3.75c-0.02,1.03-0.06,2.06-0.21,3.08
	c-0.15,0.97-0.33,1.93-0.54,2.89c-0.34,1.54-0.67,3.24-1.32,4.74l-0.03,0.08c-1.3,3.62-3.4,7.17-6.81,9.16
	c-1.66,0.97-3.36,1.52-5.25,1.88c-0.63,0.12-1.28,0.17-1.93,0.17C354.77,408.66,353.14,408.35,351.62,407.97z"/>
<path class="st1" d="M353.93,404.68c-18.06-2.86-13.01-30.43,3.03-29.45c5.37,1.32,11.3,4.3,11.69,10.55
	C368.97,394.25,364.5,407,353.93,404.68z"/>
<path class="st2" d="M466.87,354.08c-1.11-2.58-0.8-5.74,0.7-8.09c0.4-0.62,0.87-1.2,1.4-1.72c0.31-1.16,0.86-2.26,1.67-3.21
	c2.15-2.53,5.29-3.66,8.57-3.34c2.93,0.29,5.55,1.79,7.32,4.14c2.07,2.77,2.27,6.39,1.24,9.59c-1.26,3.92-3.93,7.83-8.07,9.02
	c-0.91,0.26-1.83,0.39-2.74,0.39C472.66,360.86,468.59,358.1,466.87,354.08z"/>
<path class="st1" d="M471.06,354.96c-3.22-3.07-2.09-8.48,1.75-10.44c2.36-5.18,10.84-3.56,11.82,1.8
	C485.85,353.94,477.51,361.58,471.06,354.96z"/>
<path class="st2" d="M424.79,216.77c-1.66-0.97-2.91-2.59-3.43-4.45c-0.55-1.98-0.2-3.95,0.75-5.75c0.87-1.63,2.36-2.98,3.62-4.32
	c1.37-1.46,2.8-2.86,4.23-4.27c3.14-3.11,6.25-6.27,9.55-9.22c3.5-3.12,7.11-6.09,10.75-9.04c1.73-1.41,3.46-2.81,5.25-4.14
	c0.95-0.7,1.92-1.38,2.92-1.99c1.23-0.75,2.71-1.21,4.16-1.21c1.68,0,3.16,0.6,4.51,1.55c2.97,2.11,3.58,6.4,1.84,9.45
	c-0.98,1.72-2.65,3.07-4.11,4.39c-1.46,1.32-2.96,2.61-4.45,3.88c-2.86,2.44-5.84,4.75-8.83,7.02c-1.35,1.02-2.71,2.04-4.07,3.05
	c-1.8,1.71-3.57,3.46-5.33,5.22c-2.49,2.49-5.02,4.93-7.38,7.54c-0.11,0.13-0.22,0.26-0.33,0.39c-1.04,1.25-2.33,2.2-3.92,2.63
	c-0.64,0.18-1.3,0.26-1.96,0.26C427.25,217.79,425.94,217.44,424.79,216.77z"/>
<path class="st1" d="M426.67,213.56c-5.48-4.31,2.98-9.31,5.66-12.64c6-6.12,12.29-11.95,19.02-17.27c3.74-2.25,8.45-9.2,13.15-7.08
	c1.74,1.07,2.25,3.2,1.3,4.99c-10.09,11.27-23.85,18.76-33.72,30.32C431.95,214.42,428.38,214.44,426.67,213.56z"/>
<path class="st2" d="M377.6,336.04c-3.18-2.46-3.69-7.04-1.32-10.22c1.02-1.37,2.53-2.32,3.9-3.3c1.6-1.14,3.22-2.25,4.39-3.04
	c2.28-1.54,4.58-3.06,6.9-4.54c1-0.64,2-1.28,3.03-1.86c0.83-0.48,1.67-0.97,2.54-1.36c1.52-0.67,2.95-0.99,4.62-0.82
	c2.01,0.21,3.87,1.54,4.88,3.25c1.23,2.11,1.16,4.65,0,6.76c-1.11,2.02-3.43,3.23-5.43,4.33c-2.42,1.7-4.79,3.45-7.17,5.21
	c-2.33,1.73-4.71,3.4-6.98,5.2c-1.39,1.24-3.17,1.88-4.96,1.88C380.45,337.54,378.9,337.05,377.6,336.04z"/>
<path class="st1" d="M381.57,334.08c-1.95,0.08-3.05-2.11-3.17-3.81c0-1.93,1.55-3.18,3.03-4.15c6.3-3.99,12.13-9.82,19.31-11.94
	c2.09-0.02,3.91,2.16,3.23,4.24c-1.37,3.15-5.38,4.25-8.02,6.15C391.04,327.42,386.96,332.45,381.57,334.08z"/>
<path class="st2" d="M276.83,379.91c-0.74-0.17-1.47-0.51-2.17-0.8c-0.61-0.25-1.21-0.51-1.81-0.78c-1.16-0.35-2.33-0.67-3.5-0.97
	c-1.99-0.51-4.05-0.84-5.87-1.87c-2.38-1.34-3.66-4.04-3.47-6.68c-0.14-0.42-0.22-0.87-0.23-1.36c-0.04-2.2,1.76-4.05,3.84-4.3
	c0.09-0.03,0.19-0.05,0.28-0.08c1.52-0.76,3.31-0.98,5.02-0.51c2.4,0.67,4.76,1.43,7.1,2.27c1.11,0.4,2.19,0.87,3.25,1.39
	c1.93,0.94,3.86,2.11,4.94,4.04c1.29,2.28,1.19,5.23-0.47,7.31c-0.01,0.01-0.02,0.03-0.04,0.04c-1.32,1.66-3.19,2.49-5.19,2.49
	C277.96,380.11,277.4,380.04,276.83,379.91z"/>
<path class="st1" d="M278.56,376.89c-2.75-0.26-5.15-1.97-7.75-2.77c-2.58-0.89-6.79-0.81-7.25-4.24c-3.88-2.22,0.28-6.49,3.15-4.04
	c3.99,1.06,16.19,3.01,15,8.66C281.24,375.84,280.04,376.97,278.56,376.89z"/>
<path class="st2" d="M256.09,478.3c-0.1-0.04-0.21-0.08-0.31-0.12c-0.11-0.03-0.21-0.06-0.32-0.08c-0.14-0.02-0.27-0.04-0.41-0.05
	c-0.38-0.01-0.76-0.01-1.14,0.01c-0.31,0.02-0.62,0.05-0.93,0.06c-2.64,0.14-4.98-2.12-5.32-4.64c-0.4-2.98,1.71-5.55,4.59-6.05
	c1.45-0.25,3.03-0.14,4.49-0.04c2.59,0.19,5.36,1.23,6.41,3.82c0.89,2.19,0.3,4.96-1.68,6.38c-1.03,0.74-2.14,1.09-3.28,1.09
	C257.51,478.69,256.8,478.56,256.09,478.3z"/>
<path class="st1" d="M256.97,475.85c-2.21-1.05-5.9,0.67-6.62-2.56c-3.39-4.54,7.16-3.6,9.16-2.36
	C262.45,472.72,260.09,477.09,256.97,475.85z"/>
<path class="st2" d="M474.21,470.27c-1.79-0.75-3.17-2.6-3.24-4.56c-0.17-0.44-0.31-0.9-0.39-1.38c-0.66-3.72,2.48-7.11,6.16-7.11
	c3.33,0,6,2.72,6.41,5.93c0.31,2.42-0.72,4.78-2.61,6.28c-1.11,0.88-2.5,1.33-3.89,1.33C475.81,470.75,474.98,470.59,474.21,470.27z
	"/>
<path class="st1" d="M473.69,467.32c-0.89-1.09-1.11-2.7-0.21-3.87c0,0,0,0,0,0c0.53-5.65,8.06-3.29,6.89,1.75
	C479.84,468.1,475.72,469.72,473.69,467.32z"/>
<path class="st2" d="M567.53,418.04c-0.23-1.02-0.21-2.09,0.25-3.05c0.55-1.15,1.5-2.06,2.75-2.41c1.12-0.3,2.24-0.08,3.23,0.48
	c0.17,0.09,0.34,0.2,0.51,0.31l0,0c0,0,0.01,0.01,0.01,0.01c1.49,0.49,2.59,1.96,2.36,3.7c-0.21,1.53-1.37,2.57-2.7,2.85
	c-0.07,0.06-0.14,0.12-0.22,0.18c-0.69,0.53-1.54,0.79-2.38,0.79C569.64,420.9,567.94,419.86,567.53,418.04z"/>
<path class="st1" d="M569.63,417.99c-1.36-2.68,1.89-5.02,4.07-3.03c2.12,0.52,1.27,3.93-0.86,3.29
	C572.05,419.24,570.2,419.21,569.63,417.99z"/>
<path class="st2" d="M612.06,238.44c-1.51-1.62-2.3-3.81-2.03-6.03c0.25-2.05,1.29-3.74,2.84-5.08c2.8-2.41,7.65-1.84,9.16,1.72
	c0.33,0.28,0.63,0.59,0.89,0.94c1.14,1.48,1.72,3.71,1.09,5.54c-0.41,1.18-0.92,2.21-1.81,3.1c-0.89,0.89-1.95,1.42-3.14,1.82
	c-0.58,0.19-1.18,0.28-1.8,0.28C615.32,240.71,613.34,239.81,612.06,238.44z"/>
<path class="st1" d="M613.92,236.15c-4.85-5.45,6.11-12.37,6.38-4.35C623.35,235.71,616.79,239.89,613.92,236.15z"/>
<path class="st2" d="M524.68,287.11c-0.41-0.19-0.81-0.43-1.11-0.73c-0.07-0.06-0.13-0.13-0.18-0.2c-0.52-0.67-0.43-1.58,0.14-2.18
	c0.51-0.55,1.33-0.79,2.08-0.95c0.16-0.22,0.34-0.43,0.53-0.62c1.02-1.02,2.32-1.48,3.73-1.55c1.47-0.07,2.95,0.06,4.41,0.21
	c1.78,0.17,3.98,0.48,5.24,1.86c0.58,0.57,1,1.29,1.22,2.08c0.34,1.24,0.12,2.47-0.47,3.59c-1.26,2.37-3.98,2.6-6.34,2.73
	c-1.35,0.08-2.7,0.09-4.06,0.09c0,0-0.01,0-0.01,0C527.31,291.44,525.14,289.54,524.68,287.11z"/>
<path class="st1" d="M527.28,286.7c-0.98-0.27-2.05-0.39-2.98-0.81c-0.27-0.13-0.45-0.4-0.44-0.71c0.17-1.5,3.33-0.94,4.47-1.13
	c1.41-0.92,3.29-0.43,4.89-0.43c1.21,0.12,2.47,0.1,3.64,0.42c0,0.01-0.01,0.01-0.01,0.02c1.95,0.4,2.32,3.28,0.57,4.24
	c-1.65,0.8-3.62,0.41-5.4,0.51C530.13,288.86,527.79,289.03,527.28,286.7z"/>
<path class="st3" d="M137.83,250.55c-19-7.69-20.16-16.31-15.38-34.91c2.65-7.67,9.23,1.97,11.82,4.88
	c2.69,2.87,5.12,5.94,6.86,9.49c2.53,4.62,4.65,9.8,3.58,15.16C144.25,249.01,142.11,252.43,137.83,250.55z"/>
<path class="st3" d="M115.86,379.38c0.53,5.65-0.8,11.32-1.23,16.95c-0.84,6.32-2.03,11.84-3.04,17.72
	c-0.64,2.79-1.22,6.73-2.41,10.24c-1.41,4.19-3.69,7.78-7.98,8.09c-6.59-0.89-12.96-3.91-17.84-8.45c-0.65-0.61-1.28-1.24-1.87-1.9
	c-1.82-2.02-3.9-3.89-4.7-6.58c-1.54-3.92-1.52-8.23-1.93-12.38c-0.32-5.22-0.18-10.46-0.07-15.7c0.04-5.24,0.35-10.59,2.23-15.54
	c1.62-4.28,4.68-7.83,7.79-11.12c0.59-0.51,1.14-1.36,2-1.27c1.89-4.48,15.61,2.95,18.54,4.73
	C110.63,367.62,114.75,373.1,115.86,379.38z"/>
<path class="st3" d="M131.71,320.14c1.86,7.28,2.29,31.62-9.54,29.41c-9.16-0.84-21.6-10.16-21.13-20.1
	c0.35-5.57,4.57-17.34,9.53-20.06c0.86-2.18,3.05-2.23,5.02-1.73c2.48,0.47,4.96,1.24,7.21,2.4
	C126.83,312.2,130.6,315.55,131.71,320.14z"/>
<path class="st3" d="M139.28,275.06c1.91,6.48,0.8,20.22-8.76,18.36c-2.56-0.53-4.84-1.83-6.84-3.46c-3.03-2.34-6.07-4.9-8.02-8.26
	c-2.42-4.08-0.81-8.99,0.34-13.22c1.9-6.73,4.29-9.9,11.16-5.66c2.91,1.76,5.35,4.17,7.75,6.56
	C136.64,271.04,138.57,272.68,139.28,275.06z"/>
<path class="st3" d="M187.06,113.39c-2.59-0.72-5.17-1.27-7.65-2.3c-1.13-0.43-2.27-0.96-2.81-2.11c-0.9-1.35-0.65-4.05,1.16-4.35
	c3.25-0.06,6.51,0.95,9.63,1.8c1.18,0.36,2.48,0.62,3.35,1.57C193.64,110.98,190.81,114.84,187.06,113.39z"/>
<path class="st3" d="M189.43,105.34c-1.57-0.85-3.79-1.9-3.63-4c0.07-0.64,0.47-1.25,1.12-1.4c0.4-0.09,0.8,0.07,1.17,0.21
	c1.05,0.42,2.21,0.53,3.18,1.12c1.04,0.71,2.2,1.96,2.02,3.29C192.47,105.75,190.66,105.86,189.43,105.34z"/>
<path class="st3" d="M174.24,123.89c-3.69-0.86-7.33-0.88-10.89-1.61c-1.86-0.35-2.86-2.56-1.98-4.22c0.8-1.67,7.3-4.92,7.58-1.62
	c2.21-4.22,8,0.19,8.38,3.59C177.76,121.93,176.38,124.32,174.24,123.89z"/>
<path class="st3" d="M225.02,81.88c7.91,3.37,10.98,1.99,7.36,11.69c-0.47,1.45-1.5,2.96-1.83,4.51c-0.52-0.22-1.11-0.38-1.61-0.57
	c-3.14-1.1-6.31-2.07-9.49-3c-7.78-2.17-15.36-5.07-23.24-6.82c-0.97-0.1-2.12-0.38-3.17-0.32c-0.06-0.68-0.09-1.36-0.16-2.04
	c1.32-2.06,1.69-5.49,2.37-7.34c0.37-1.43,0.73-2.88,0.95-4.35c0.14-0.02,0.27-0.05,0.38-0.1C205.65,76.88,215.66,78.9,225.02,81.88
	z"/>
<path class="st3" d="M146.9,428.3c-0.22-0.07-0.45-0.19-0.57-0.4c-1.36-3.86,1.89-7.04,4-9.87c3.25-4.37,6.55-8.71,9.47-13.31
	c2.8-4.77,4.65-10.03,6.33-15.28c0.33-1.23,0.69-2.46,0.84-3.72c0.1-0.7-0.03-1.53,0.5-2.08c1.13-1.1,2.24,0.52,2.33,1.63
	c0.74,4.46-0.56,8.98-1.62,13.29c-2.51,9.89-9.29,17.8-15.21,25.84C151.59,426.39,149.66,429,146.9,428.3z"/>
<path class="st3" d="M164.94,359.87c1.74-4.16,2.11-8.63,2.83-12.98c0.86-6.14,2.14-12.39,1.58-18.6c0.02,0.05,0.03,0.11,0.05,0.16
	c0.01,0.01,0.01,0.01,0.02,0.02c-0.35-0.94-0.05-2.22,1.03-2.48c1.99-0.16,2.4,2.56,2.73,4.04c0.75,4.17,0.69,8.43,0.41,12.64
	C173.42,349.24,171.83,357.33,164.94,359.87z"/>
<path class="st3" d="M171.93,297.25c0.2-4.46,1.4-8.68,3.2-12.61c0.63-1.59,1.2-3.18,1.77-4.79c0.27-0.9,1.42-1.31,2.09-0.55
	c1.26,1.55,0.68,3.84,0.51,5.66C178.8,289.82,176.52,294.98,171.93,297.25z"/>
<path class="st3" d="M189.91,261.07c-0.26-0.04-0.23-0.06-0.31-0.32c-1.25-4.58,2.11-8.45,4.14-12.23c1.15-1.51,3.45-8.1,5.73-4.83
	c0,0,0,0,0.01-0.01c0.39,0.73,0.28,1.55,0.06,2.32c-0.54,1.93-1.17,3.84-1.94,5.69C195.91,255.18,194.67,260.98,189.91,261.07z"/>
<path class="st3" d="M286.63,191.59c-4.09-1.21-6.23-6.53-3.77-10.11c0.93-1.39,2.51-2.47,4.25-2.17c2.98-1.22,6.1,1.59,6.99,4.32
	C295.88,188.26,291.41,193.25,286.63,191.59z"/>
<path class="st3" d="M434.42,278.46c-1.19-0.72-2.14-1.96-2.75-3.25c-2.81-2.8-3.9-7.24-3.19-11.09c0.94-4.94,6.78-7.55,11.38-6.64
	c5.53,2.52,7.55,9.64,5.64,15.14C444.34,277.26,439.01,281.32,434.42,278.46z"/>
<path class="st3" d="M327.68,334.05c-2.05-0.09-3.67-1.59-5.01-3.02c-3.54-3.33-5.45-8.36-3.97-13.12
	c-1.18-2.94,4.32-5.01,6.17-6.52c2.24-1.35,5.64-4.39,7.43-0.82c1.34,3.61,0.16,7.63-0.06,11.36
	C331.46,325.23,332.27,334.01,327.68,334.05z"/>
<path class="st3" d="M419.77,382.41c-2.27-1.44-1.43-4.46-1.57-6.72c-1.16-0.12-2.63-0.17-3.28-1.3c-0.78-1.16,0.18-3.51,1.76-2.77
	c1.04-0.09,1.91-0.78,2.94-0.89c2.03-0.12,2.82,2.25,3.15,3.85c0.3,2.45,1.56,5.72-0.63,7.62
	C421.45,382.73,420.53,382.88,419.77,382.41z"/>
<path class="st3" d="M415.96,382.12c-1.5-1.64-0.88-4.23-0.46-6.2c0.24-0.95,0.35-1.97,0.83-2.83c1.07-1.26,2.15,0,2.19,1.25
	c0.23,2.12,0.82,3.7,1.07,5.72C419.77,381.96,417.47,383.81,415.96,382.12z"/>
</svg>
