<?xml version="1.0" encoding="utf-8"?>
<!-- Generator: Adobe Illustrator 27.9.4, SVG Export Plug-In . SVG Version: 9.03 Build 54784)  -->
<svg version="1.1" id="向量圖層_00000146487494466944289860000005171408117025069992_"
	 xmlns="http://www.w3.org/2000/svg" xmlns:xlink="http://www.w3.org/1999/xlink" x="0px" y="0px" viewBox="0 0 650 624"
	 style="enable-background:new 0 0 650 624;" xml:space="preserve">
<style type="text/css">
	.st0{fill:#566376;}
	.st1{fill:#BAC4D4;}
	.st2{fill:#CDD4E1;}
	.st3{fill:#BAC4D5;}
	.st4{fill:#F6D55B;}
	.st5{fill:#F7D55B;}
	.st6{fill:#576377;}
	.st7{fill:#FFFFFF;}
</style>
<path class="st0" d="M253.19,404.38c1.56,0.55,3.12,1.1,4.67,1.65c-6.7,6.04-13.44,11.98-20.24,17.81
	c-16.37,13.84-33.16,26.9-50.76,37.31c-4.72,2.71-9.56,4.97-14.47,6.89c-0.63,0.26-1.34-0.3-1.52-1.23
	c-0.19-0.96,0.23-1.85,0.86-2.16c3.94-1.93,7.76-4.31,11.6-6.56c24.1-15.15,46.88-33.91,69.1-53.98
	C252.69,404.2,252.94,404.29,253.19,404.38z"/>
<path class="st0" d="M268.93,399.33c-1.87,1.72-3.75,3.44-5.62,5.15c-0.9-0.31-1.79-0.63-2.69-0.95c-1.8-0.64-3.61-1.28-5.41-1.93
	c-0.9-0.32-1.79-0.64-2.69-0.97c1.87-1.71,3.74-3.43,5.6-5.16c0.91,0.33,1.81,0.65,2.72,0.97c1.81,0.64,3.62,1.29,5.43,1.93
	C267.16,398.7,268.04,399.01,268.93,399.33z"/>
<path class="st0" d="M324.77,334.02c1.46,1.04,2.92,2.07,4.37,3.09c-19.71,20.19-39.68,39.85-60.05,58.66
	c-0.59-0.22-1.18-0.44-1.77-0.66c-1.21-0.44-2.42-0.88-3.63-1.31c7.31-6.78,14.58-13.67,21.82-20.57
	C298.73,360.42,311.78,347.28,324.77,334.02z"/>
<path class="st0" d="M335.84,330.23c0.74,0.52,1.47,1.04,2.21,1.57c-1.49,1.54-2.99,3.06-4.48,4.58c-0.74-0.51-1.48-1.02-2.21-1.54
	c-1.45-1.02-2.91-2.06-4.35-3.11c-0.71-0.52-1.43-1.04-2.14-1.56c1.47-1.52,2.95-3.03,4.42-4.55c0.73,0.51,1.46,1.02,2.19,1.53
	C332.94,328.18,334.39,329.2,335.84,330.23z"/>
<path class="st0" d="M384.04,272.88c1.49,1.06,2.99,2.09,4.5,3.08c-14.01,14.93-28.45,29.06-42.58,43.76
	c-2.62,2.74-5.25,5.48-7.88,8.2c-1.45-1.02-2.91-2.04-4.36-3.05c14.66-15.05,29.27-30.21,43.97-45.18
	C379.81,277.43,381.93,275.16,384.04,272.88z"/>
<path class="st0" d="M395.3,268.87c0.74,0.44,1.49,0.86,2.24,1.28c-1.46,1.61-2.92,3.22-4.39,4.81c-0.78-0.47-1.56-0.95-2.34-1.44
	c-1.54-0.97-3.07-1.97-4.58-3.01c-0.7-0.48-1.41-0.97-2.1-1.47c0.87-0.93,1.74-1.86,2.6-2.8c0.56-0.61,1.12-1.22,1.68-1.83
	c0.7,0.49,1.4,0.97,2.11,1.45c1.53,1.02,3.08,2,4.65,2.93C395.22,268.82,395.26,268.84,395.3,268.87z"/>
<path class="st0" d="M441.5,215.78c0.72,0.51,1.44,1,2.16,1.47c-15.63,15.43-30.85,31.68-45.75,48.5c-0.18,0.2-0.35,0.39-0.52,0.58
	c-0.32-0.19-0.65-0.38-0.97-0.58c-1.23-0.75-2.45-1.52-3.67-2.31c15.35-16.7,30.61-33.56,46.42-49.34
	C439.94,214.67,440.72,215.23,441.5,215.78z"/>
<path class="st0" d="M449.96,211.11c0.84,0.46,1.68,0.9,2.53,1.33c-1.46,1.41-2.91,2.82-4.35,4.24c-0.8-0.47-1.61-0.95-2.4-1.45
	c-1.55-0.97-3.09-1.99-4.62-3.05c-0.73-0.51-1.46-1.03-2.18-1.56c1.3-1.28,2.61-2.54,3.92-3.8c0.75,0.5,1.49,0.98,2.25,1.45
	C446.7,209.27,448.32,210.22,449.96,211.11z"/>
<path class="st0" d="M504.07,168.4c0.07,0.86-0.72,1.08-1.08,0.66c-6.55,2.25-12.65,6.73-18.64,11.04
	c-9.28,6.84-17.93,15.21-26.57,23.56c-1.89,1.77-3.77,3.56-5.64,5.36c-1.65-0.87-3.3-1.8-4.91-2.81c4.23-4.06,8.5-8.04,12.82-11.9
	c12.93-11.96,26.78-23.41,42.16-27.22c0.53-0.09,1.42-0.12,1.75,0.63C504.04,167.94,504.05,168.16,504.07,168.4z"/>
<path class="st0" d="M141.18,357.09c0.98,0.42,1.96,0.85,2.94,1.27c-4.05,3.85-8.1,7.69-12.15,11.53
	c-13.96,13.45-27.73,27.29-41.59,40.94c-2.3,2.21-4.63,4.33-6.95,6.5c-0.84,0.79-2.05,0.25-2.54-0.95
	c-0.52-1.25-0.19-2.88,0.67-3.63c1.61-1.77,3.33-3.35,5.02-4.98c5.21-5.11,10.34-10.38,15.52-15.53
	c12.13-12.33,24.43-24.31,36.8-36.15C139.66,356.43,140.42,356.76,141.18,357.09z"/>
<path class="st1" d="M316.87,338.41c1.92-1.98,3.84-3.96,5.77-5.93c-3.74-2.74-7.4-5.71-11.1-8.55
	c-7.56-5.81-15.18-11.5-22.62-17.61c-2.15-1.77-4.29-3.57-6.47-5.29c-2.16-1.71-4.36-3.35-6.56-4.95c-3.13-2.22-6.29-4.38-9.47-6.44
	c-3.35-2.17-6.73-4.22-10.09-6.35c-4.82-3.05-9.55-6.41-14.38-9.41c-2.3,1.8-4.59,3.64-6.88,5.47
	c-7.54,6.06-15.03,12.26-22.39,18.77c-3.64,3.22-7.26,6.51-10.87,9.8c-3.64,3.31-7.29,6.57-10.91,9.93
	c-3.64,3.38-7.26,6.82-10.9,10.23c-3.75,3.52-7.51,7.02-11.26,10.54c-4.2,3.95-8.4,7.92-12.59,11.9c5.25,1.97,10.49,3.98,15.74,5.96
	c5.36,2.02,10.69,4.17,16,6.48c5.21,2.27,10.36,4.79,15.53,7.23c10.48,4.94,21.1,9.23,31.75,13.38c8.56,3.34,17.2,6.22,25.81,9.25
	c2.92-2.72,5.83-5.45,8.73-8.19c4.04-3.81,8.09-7.59,12.11-11.42c5.94-5.82,11.84-11.72,17.79-17.54
	C305.41,350.02,311.18,344.29,316.87,338.41z M381.95,271.36c-3.34-2.47-6.61-5.11-9.82-7.92c-5.74-5.03-11.15-10.72-16.62-16.32
	c-2.53-2.59-5.11-5.1-7.57-7.82c-2.68-2.96-5.3-6.04-7.76-9.36c-2.79-3.77-5.52-7.67-8.07-11.78c-1.25,0.6-2.49,1.21-3.73,1.82
	c-4.15,2.09-8.29,4.21-12.43,6.37c-4.08,2.13-8.12,4.39-12.17,6.64c-8.07,4.47-16.05,9.24-23.97,14.21
	c-7.41,4.66-14.69,9.76-21.96,14.88c-2.08,1.49-4.15,2.99-6.22,4.5c2.48,1.5,4.96,3.01,7.46,4.45c4.24,2.44,8.51,4.79,12.7,7.41
	c4.22,2.63,8.41,5.39,12.49,8.44c4.08,3.05,8.04,6.38,12.07,9.58c5.41,4.29,10.88,8.45,16.34,12.62
	c5.67,4.33,11.28,8.83,17.02,12.98c0.6,0.43,1.21,0.85,1.82,1.28c1.18-1.21,2.36-2.43,3.54-3.64c2.71-2.79,5.39-5.65,8.1-8.45
	c3.14-3.24,6.3-6.44,9.46-9.64c5.82-5.91,11.58-11.92,17.39-17.85C374.01,279.66,378,275.55,381.95,271.36z M437,212.5
	c-3.56-2.67-7.03-5.54-10.35-8.81c-2.25-2.21-4.44-4.54-6.45-7.17c-1.05-1.37-2.03-2.8-2.99-4.3c-1.02-1.59-1.9-3.36-2.73-5.16
	c-0.3-0.66-0.59-1.33-0.87-2.01c-5.04,1.59-10.07,3.28-15.08,5.09c-8.54,3.09-17.07,6.28-25.56,9.67
	c-7.47,2.98-14.87,6.35-22.27,9.69c-2.81,1.27-5.62,2.55-8.42,3.85c2.3,3.41,4.69,6.69,7.17,9.84c1.77,2.14,3.57,4.21,5.43,6.18
	c1.96,2.09,3.97,4.1,5.96,6.13c3.74,3.81,7.45,7.7,11.24,11.42c5.15,4.85,10.47,9.28,15.95,13.35c0.85,0.6,1.7,1.18,2.56,1.75
	c10.07-11.07,19.96-22.47,30.26-33.11C426.2,223.38,431.57,217.87,437,212.5z M644.51,388.98c0.34,1.76,0.12,3.5-0.47,5.08
	c-0.88,2.36-2.67,3.54-4.33,4.47c-2.22,1.24-4.53,2.15-6.82,3.08c-5.06,2.06-10.2,3.72-15.31,5.49c-5.36,1.86-10.73,3.59-16.13,5.21
	c-5.41,1.62-10.85,3.04-16.28,4.52c-5.26,1.42-10.51,2.92-15.77,4.38c-5.51,1.53-11.06,2.83-16.61,4.08
	c-5.18,1.18-10.36,2.36-15.54,3.49c-5.57,1.22-11.14,2.48-16.73,3.56c-11.22,2.15-22.45,4.24-33.71,5.87
	c-11.13,1.62-22.3,2.44-33.47,3.06c-5.84,0.32-11.68,0.55-17.52,0.63c-1.64,0.02-3.28,0.03-4.92,0.03c-3.75,0-7.49-0.05-11.23-0.14
	c-11.24-0.27-22.49-0.77-33.71-1.83c-11.45-1.09-22.83-3.01-34.21-5.16c-10.99-2.07-21.96-4.45-32.83-7.57
	c-5.65-1.62-11.28-3.37-16.88-5.31c-5.35-1.86-10.69-3.79-16.03-5.7c-5.65-2.02-11.31-3.96-16.93-6.09
	c-2.83-1.08-5.67-2.11-8.51-3.13c-0.43,0.39-0.86,0.79-1.29,1.18c-2.9,2.65-5.79,5.3-8.72,7.86c-3.1,2.71-6.21,5.38-9.33,8.04
	c-3.17,2.7-6.34,5.38-9.53,8.02c-3.1,2.57-6.26,5.02-9.4,7.5c-6.24,4.91-12.58,9.52-19,13.91c-6.39,4.37-12.87,8.62-19.58,11.87
	c-3.6,1.75-7.3,3.03-10.98,4.36c-0.21,0.07-0.42,0.11-0.63,0.11c-0.97,0-1.9-0.79-2.3-2.13c-0.5-1.69,0.05-3.95,1.31-4.6
	c2.24-1.16,4.4-2.6,6.57-4.01c1.9-1.23,3.82-2.42,5.72-3.67c4.21-2.76,8.37-5.63,12.11-8.24c12.79-9.17,25.39-18.9,37.66-29.43
	c5.57-4.78,11.1-9.63,16.58-14.61c-4.43-1.57-8.86-3.15-13.28-4.8c-5.38-2.01-10.72-4.21-16.07-6.41c-5.32-2.18-10.62-4.5-15.9-6.9
	c-5.25-2.39-10.45-5-15.68-7.5c-5.13-2.46-10.31-4.74-15.5-6.93c-5.28-2.23-10.59-4.33-15.88-6.57c-3.57-1.51-7.15-3.04-10.71-4.58
	c-3.41,3.22-6.83,6.43-10.24,9.65c-3.66,3.52-7.3,7.08-10.94,10.62c-3.47,3.36-6.95,6.69-10.39,10.09
	c-6.96,6.88-13.91,13.8-20.91,20.63c-3.24,3.16-6.51,6.25-9.87,9.14c-0.57,0.49-1.2,0.72-1.84,0.72c-1.14,0-2.27-0.74-2.98-2.06
	c-0.61-1.12-0.88-2.56-0.74-3.95c0.13-1.41,0.66-2.58,1.41-3.47c1.56-1.85,3.28-3.44,4.95-5.09c1.68-1.66,3.36-3.35,5.02-5.04
	c3.48-3.53,6.96-7.05,10.45-10.56c3.44-3.45,6.84-6.96,10.28-10.4c3.55-3.55,7.12-7.05,10.69-10.55c4.39-4.31,8.78-8.62,13.2-12.84
	c0.51-0.48,1.02-0.97,1.53-1.45c-3.63-1.7-7.23-3.55-10.77-5.61c-2.66-1.55-5.3-3.17-8.01-4.58c-1.57-0.72-3.14-1.36-4.75-1.87
	c-0.76-0.21-1.53-0.42-2.3-0.64c-0.77-0.22-1.64-0.4-2.33-0.98c-0.35-0.29-0.66-0.77-0.71-1.35c-0.04-0.47,0.09-0.83,0.24-1.23
	c0.03-0.09,0.05-0.17,0.08-0.26c0.01-0.02,0.01-0.04,0.01-0.05c0.03-0.68,0.52-1.18,0.98-1.09c0.35,0.07,0.6,0.4,0.7,0.83
	c0.8-0.21,1.61-0.43,2.42-0.61c1.26-0.28,2.54-0.33,3.8-0.34c1.2-0.01,2.44,0.19,3.62,0.45c1.46,0.33,2.89,0.76,4.33,1.23
	c2.56,0.85,5.08,1.97,7.62,2.93c2.76,1.05,5.53,2.04,8.32,2.99c1.84,0.63,3.67,1.25,5.51,1.88c0.61-0.58,1.21-1.16,1.8-1.72
	c7.35-7.08,14.73-14.09,22.14-21.02c7.22-6.75,14.39-13.58,21.66-20.21c7.23-6.59,14.45-13.18,21.78-19.55
	c6.22-5.41,12.53-10.61,18.87-15.73c-1.45-0.55-2.91-1.02-4.37-1.48c-4.02-1.11-8.06-2-12.15-2.48c-4.98-0.47-10.02-0.75-15.01-0.37
	c-0.45,0.54-1.16,0.54-1.61-0.09c-0.01-0.01-0.01-0.01-0.01-0.01c-0.39-0.43-0.61-1.01-0.54-1.76c0.12-1.25,1.08-1.74,1.79-2.16
	c0.88-0.52,1.82-0.88,2.74-1.25c1.02-0.41,2.05-0.79,3.09-1.1c2.28-0.68,4.57-1.22,6.88-1.63c2.35-0.42,4.73-0.55,7.1-0.56
	c2.27-0.01,4.54,0.23,6.8,0.51c2.1,0.25,4.21,0.66,6.27,1.25c2.44,0.7,4.82,1.55,7.2,2.6c0.55,0.24,1.1,0.5,1.65,0.77
	c5.75-4.39,11.58-8.57,17.43-12.69c3.93-2.77,7.91-5.44,11.88-8.09c3.72-2.48,7.47-4.89,11.25-7.2
	c14.47-8.81,29.12-17.07,43.73-24.3c0.31-0.15,0.62-0.31,0.92-0.46c-0.57-1.16-1.11-2.35-1.64-3.54c-0.77-1.76-1.43-3.57-1.84-5.57
	c-0.42-2.05-0.65-4.21-0.85-6.32c-0.29-3.08,1.09-6.09,3.2-6.92c2.12-0.83,4.38,0.76,5.25,3.62c0.57,1.88,1,3.84,1.61,5.69
	c0.58,1.52,1.25,2.97,1.92,4.42c0.65,1.34,1.32,2.65,2.02,3.94c6.11-2.87,12.25-5.59,18.39-8.31c8.03-3.56,16.1-6.92,24.23-10
	c8.32-3.15,16.64-6.29,25.03-9.03c2.18-0.71,4.36-1.41,6.55-2.08c-0.11-0.52-0.21-1.05-0.3-1.58c-0.14-0.84-0.25-1.71-0.28-2.57
	c-0.03-0.84-0.08-1.89,0.4-2.51c0.34-0.43,0.81-0.37,1.09,0.01c0,0,0,0,0.01-0.01c0.35,0.47,0.6,1.14,0.87,1.71
	c0.24,0.51,0.48,1.01,0.72,1.52c0.38,0.78,0.76,1.56,1.15,2.33c5.11-1.52,10.25-2.91,15.4-4.07c4.21-0.95,8.43-1.76,12.68-2.13
	c4.31-0.38,8.64-0.48,12.95-0.6c4.02-0.11,8.04-0.25,12.06-0.35c2.14-0.05,4.27-0.08,6.41-0.05c2.09,0.02,4.18,0.19,6.26,0.34
	c1.82,0.14,3.65,0.4,5.48,0.44c0.08-0.03,0.16-0.04,0.25-0.04c0.55,0,1.1,0.62,1.15,1.43c0.12,1.89-1.33,2.27-2.33,2.61
	c-0.93,0.32-1.88,0.53-2.81,0.76c-1.1,0.26-2.2,0.51-3.29,0.75c-4.17,0.89-8.33,1.8-12.51,2.58c-4,0.76-8.01,1.33-12.03,1.81
	c-4.25,0.51-8.5,0.87-12.73,1.6c-6.02,1.03-11.97,2.79-17.83,4.46c-1.04,0.3-2.09,0.61-3.13,0.93c0.55,0.79,1.11,1.55,1.68,2.31
	c1.49,1.77,3.03,3.41,4.62,4.99c2.12,1.97,4.29,3.83,6.49,5.62c2.08,1.7,4.22,3.25,6.36,4.78c1.96,1.36,3.92,2.68,5.91,3.97
	c3.78-3.6,7.59-7.14,11.4-10.66c3-2.77,6.03-5.49,9.09-8.14c2.88-2.5,5.84-4.78,8.83-6.98c3.19-2.34,6.48-4.49,9.83-6.34
	c1.79-0.98,3.59-1.9,5.42-2.74c1.74-0.8,3.5-1.46,5.28-2.11c1.82-0.67,3.67-1.17,5.53-1.56c0.61-0.13,1.22-0.2,1.84-0.24
	c0.55-0.04,1.23,0.05,1.72,0.45c0.44,0.37,0.66,0.87,0.75,1.51v0c0,0.01,0,0.02,0,0.02c0,0,0,0.01,0,0.01
	c0,0.01,0.01,0.03,0.01,0.05c0.12,1.08-0.42,2.13-1.23,2.13c-0.16,0-0.31-0.04-0.45-0.12c-0.29,0.11-0.58,0.23-0.87,0.37
	c-3.32,1.72-6.51,3.89-9.68,6.09c-7.8,5.7-15.31,12.11-22.17,18.63c-5.21,5.02-10.39,10.1-15.6,15.14c1.68,0.78,3.38,1.51,5.09,2.19
	c1.74,0.69,3.5,1.24,5.26,1.79c8.83,2.46,17.78,4.03,26.76,4.93c7.48,0.59,14.98,0.77,22.46,0.22c0.46-0.05,0.94-0.13,1.41-0.14
	c2.03-0.25,4.06-0.55,6.08-0.98c2.17-0.47,4.33-1.04,6.49-1.66c2.09-0.6,4.17-1.22,6.27-1.74c2.06-0.51,4.13-0.99,6.19-1.55
	c2.89-0.88,5.71-2.02,8.51-3.36c2.04-1.02,4.08-2.09,6.11-3.15c1.82-0.95,3.64-1.91,5.39-3.11c0.97-0.72,1.92-1.49,2.87-2.25
	c1.91-1.53,4.35-0.91,5.7,1.58c1.43,2.64,1.14,6.77-0.79,8.78c-2.14,2.22-4.55,3.99-7,5.39c-2.37,1.36-4.77,2.6-7.17,3.84
	c-2.55,1.32-5.11,2.61-7.73,3.59c-2.57,0.97-5.18,1.72-7.81,2.36c-2.66,0.65-5.31,1.3-7.96,2.04c-2.6,0.73-5.2,1.45-7.83,2.01
	c-4.89,1.04-9.86,1.37-14.8,1.37c-0.54,0-1.08,0-1.61-0.01c-5.77-0.08-11.53-0.35-17.29-0.94c-5.28-0.54-10.56-1.42-15.8-2.52
	c-5.46-1.14-10.95-2.43-16.27-4.61c-3.8-1.56-7.54-3.43-11.18-5.64c-3.53,3.48-7.05,7.01-10.54,10.58
	c-5.73,5.86-11.47,11.71-17.08,17.81c-5.78,6.29-11.52,12.65-17.25,19.02c-0.46,0.51-0.92,1.02-1.38,1.53
	c1.7,0.93,3.42,1.81,5.13,2.67c12.46,5.94,25.24,10.39,38.11,14.17c0.39,0.11,0.78,0.23,1.17,0.34c5.06,1.43,10.15,2.73,15.27,3.69
	c5.37,1,10.74,1.8,15.51,2.34c6.77,0.64,13.54,1.12,20.32,1.45c6.72,0.32,13.45,0.27,20.18,0.25c7.19-0.03,14.37-0.27,21.54-0.92
	c2.4-0.28,4.8-0.56,7.2-0.95c2.63-0.42,5.26-0.92,7.88-1.46c4.76-0.97,9.48-2.35,14.11-3.69c4.98-1.47,9.95-3,14.89-4.7
	c4.8-1.66,9.58-3.37,14.26-5.65c3.6-1.87,7.17-3.89,10.64-6.22c1.71-1.15,3.4-2.37,5.12-3.49c0.86-0.56,2.09-1.39,3-0.63
	c0.68,0.56,0.83,1.55,0.63,2.48c-0.01,0.03-0.02,0.07-0.02,0.07c-0.14,0.82-0.63,1.41-1.19,1.5c-1.11,1.28-2.17,2.65-3.3,3.9
	c-1.51,1.67-3.08,3.22-4.46,4.55c-2.73,2.63-5.61,4.99-8.59,6.99c-3.09,2.07-6.32,3.63-9.56,5.14c-6.3,2.92-12.75,5.21-19.19,7.43
	c-6.53,2.24-13.1,4.23-19.75,5.61c-6.69,1.39-13.43,2.13-20.18,2.61c-6.51,0.46-13.05,0.48-19.57,0.51c-0.56,0-1.11,0-1.66,0
	c-6.13,0-12.25-0.15-18.37-0.53c-7.07-0.45-14.12-1-21.17-1.92c-3.26-0.42-6.5-1-9.74-1.59c-3.17-0.58-6.35-1.26-9.5-2.07
	c-6.75-1.73-13.46-3.73-20.16-5.82c-6.47-2.02-12.86-4.39-19.22-7.01c-3.27-1.36-6.5-2.91-9.72-4.5c-2.88-1.43-5.75-3.03-8.54-4.79
	c-2.3,2.46-4.63,4.89-6.95,7.32c-5.78,6.04-11.66,11.87-17.48,17.84c-5.83,5.99-11.71,11.88-17.53,17.9
	c-2.83,2.93-5.64,5.9-8.46,8.85c-0.05,0.05-0.09,0.09-0.14,0.14c0.12,0.09,0.24,0.17,0.36,0.26c3.64,2.61,7.25,5.3,10.88,7.91
	c4.99,3.54,10.02,7.03,15.14,10.18c5.42,3.32,10.9,6.39,16.46,9.19c4.56,2.19,9.15,4.16,13.8,5.9c4.67,1.75,9.38,3.24,14.11,4.65
	c3.95,1.12,7.9,2.17,11.88,3.08c4.02,0.93,8.06,1.73,12.1,2.49c4.03,0.76,8.06,1.54,12.1,2.19c4.22,0.68,8.45,1.24,12.68,1.7
	c5.54,0.49,11.09,0.77,16.65,0.92c2.57,0.07,5.15,0.1,7.72,0.06c2.77-0.05,5.53-0.22,8.29-0.44c6.97-0.76,13.9-1.87,20.83-3.16
	c7.05-1.31,14.09-2.87,21.07-4.85c4.4-1.35,8.76-2.88,13.13-4.42c4.23-1.5,8.46-3.01,12.65-4.72c4.31-1.76,8.62-3.57,12.91-5.43
	c4.34-1.88,8.66-3.9,13.03-5.61c7.84-3.08,15.73-5.86,23.72-8.05c3.75-1.03,7.51-2.07,11.27-2.97c3.01-0.72,6.05-1.22,9.11-1.2
	c2.65,0.02,4.87,3.14,4.87,6.93c0,1.83-0.52,3.61-1.43,4.9c-0.92,1.32-2.14,1.98-3.44,2.03c-0.81,0.03-1.62,0.05-2.43,0.11
	c-3.06,0.34-6.09,1.13-9.11,1.93c-3.47,0.92-6.94,1.85-10.4,2.83c-4.22,1.27-8.41,2.71-12.58,4.24c-4.3,1.57-8.59,3.2-12.84,5.08
	c-8.6,3.8-17.2,7.57-25.9,10.85c-4.42,1.66-8.86,3.2-13.3,4.74c-4.43,1.54-8.88,2.88-13.37,3.99c-9.05,2.24-18.17,3.95-27.31,5.37
	c-4.48,0.69-9,1.31-13.51,1.53c-2.71,0.13-5.41,0.2-8.11,0.2c-1.83,0-3.66-0.03-5.5-0.08c-9.32-0.24-18.63-0.9-27.9-2.38
	c-9.16-1.47-18.31-3.18-27.41-5.27c-9.18-2.11-18.3-4.91-27.3-8.27c-8.76-3.27-17.32-7.58-25.7-12.48
	c-8.41-4.92-16.58-10.59-24.67-16.48c-2.36-1.71-4.71-3.45-7.07-5.15c-1.48-1.04-2.95-2.07-4.43-3.11
	c-5.71,5.85-11.4,11.74-17.19,17.44c-6.06,5.96-12.16,11.84-18.23,17.8c-3,2.95-6.01,5.89-9.03,8.8c-2.88,2.78-5.82,5.46-8.74,8.14
	c-2.15,1.98-4.3,3.95-6.45,5.93c1.17,0.44,2.33,0.89,3.51,1.31c2.82,1.02,5.64,2.01,8.46,3.01c5.47,1.94,10.94,3.92,16.42,5.86
	c6.03,2.13,12.07,4.13,18.14,5.96c5.39,1.54,10.79,2.97,16.21,4.24c5.48,1.29,10.99,2.43,16.49,3.49
	c11.05,2.13,22.12,4.01,32.58,5.21c11.1,1.06,22.21,1.74,33.33,2c11.16,0.26,22.33,0.33,33.49-0.29c7.84-0.43,15.68-0.94,23.5-1.66
	c5.43-0.59,10.84-1.28,16.24-2.13c5.39-0.85,10.78-1.78,16.16-2.76c5.56-1.01,11.13-2,16.68-3.16c5.64-1.19,11.27-2.43,16.9-3.68
	c10.13-2.24,20.26-4.51,30.33-7.28c9.66-2.66,19.33-5.19,28.98-7.93c6.3-1.84,12.57-3.83,18.82-5.95c3.18-1.08,6.37-2.15,9.54-3.28
	c2.71-0.96,5.42-1.97,8.06-3.23c0.52-0.27,1.03-0.55,1.53-0.87c0.04-0.04,0.09-0.07,0.13-0.11c1.67-1.77,3.99-1.82,5.65,0.01
	C643.66,386.39,644.24,387.62,644.51,388.98z"/>
<path class="st2" d="M82.93,422.87c-22.55-11.46-17.45-41.35,4.77-48.85c13.96-5.53,28.61,6.41,28.58,23.3
	C117.09,415.92,97.66,430.67,82.93,422.87z"/>
<path class="st2" d="M181.86,483.63c-15.61-1.47-25.82-22.31-14.8-38c11.93-17.77,36.85-10.66,37.32,13.74
	C204.03,473.26,193.25,485.5,181.86,483.63z"/>
<path class="st2" d="M354.15,485.25c-20.2-8.01-20.84-36.91,0.3-44.07c10.28-4.03,22.07,2.48,25.69,14.1
	c5.44,12.95,0.09,28.34-13.21,29.99C362.74,486.07,358.28,487.09,354.15,485.25z"/>
<path class="st2" d="M495.67,485.88c-13.31,2.22-22.79-18.46-15.56-31.59c8.32-15.47,29.56-13.55,34.05,4.94
	C519.64,474.75,508.93,488.87,495.67,485.88z"/>
<path class="st3" d="M492.38,468.52c-3.12-5.15,2.54-9.44,4.03-13.74c3.21-7.19,5.36-15.27,7.44-23.22
	c8.22-34.95,10.87-71.88,13.03-108.43c0.18-36.57-0.96-73.35-4.83-109.54c-1.95-10.85-3.14-22.12-6.07-32.53
	c-0.93-2.73-3.18-5.15-1.81-8.39c6.41-10.27,11.07,19.07,13.07,24.52c7.68,28.18,7.75,59.22,7.3,89.03
	c1.56,39.55-3.3,78.78-9.23,117.29c-3.63,19.21-6.22,39.48-13.63,56.64C499.45,464,496.49,473.23,492.38,468.52z"/>
<path class="st0" d="M369.94,465.25c-4.06-0.14-8.11-0.64-12.18-0.81c-1.1-0.04-2.06-1.16-2.21-2.74c-0.16-1.65,0.7-3.43,1.91-3.57
	c2.62-0.33,5.22-0.93,7.83-1.47c2.92-0.6,5.85-1.09,8.77-1.63c5.72-1.06,11.42-2.26,17.13-3.38c5.81-1.14,11.64-2.18,17.46-3.19
	c5.64-0.98,11.27-2.01,16.88-3.3c3.79-0.87,7.56-1.84,11.33-2.91c4.13-1.23,8.26-2.52,12.35-4.01c4.47-1.62,8.92-3.3,13.39-4.96
	c8.21-3.07,16.39-6.26,24.43-10.16c2.53-1.27,5.05-2.61,7.51-4.17c2.43-1.54,4.82-3.18,7.2-4.87c4.5-3.27,8.86-6.86,13.21-10.52
	c4.55-3.83,9.16-7.58,13.56-11.76c2.38-2.37,4.7-4.84,7.03-7.29c2.49-2.61,4.94-5.28,7.28-8.15c2.83-3.66,5.49-7.54,8.05-11.58
	c2.55-4.17,5-8.45,7.44-12.76c2.39-4.23,4.7-8.54,6.87-12.99c1.25-2.7,2.45-5.43,3.58-8.24c1.24-3.11,2.41-6.27,3.55-9.46
	c1.24-3.58,2.41-7.19,3.46-10.89c0.97-3.4,1.83-6.85,2.68-10.32c1.05-4.38,2.02-8.77,2.74-13.29c0.43-3.18,0.74-6.36,0.93-9.59
	c0.19-5.01,0.08-10.02-0.14-15.03c-0.23-4.36-0.57-8.69-1.12-12.99c-0.45-2.92-1-5.77-1.67-8.59c-0.92-3.53-1.96-6.99-3.12-10.38
	c-0.76-2.01-1.57-3.95-2.44-5.84c-0.84-1.65-1.72-3.24-2.64-4.81c-1.44-2.3-2.92-4.54-4.45-6.71c-1.82-2.57-3.71-5.02-5.62-7.45
	c-2.72-3.35-5.5-6.53-8.43-9.51c-1.73-1.65-3.49-3.24-5.29-4.73c-1.98-1.64-4-3.15-6.03-4.64c-6.47-4.56-13.05-8.73-19.85-12.21
	c-1.84-0.87-3.69-1.69-5.56-2.45c-1.82-0.74-3.67-1.31-5.52-1.86c-4.05-1.1-8.12-2.05-12.22-2.76c-4.47-0.78-8.96-1.38-13.45-1.86
	c-4.18-0.37-8.34-0.61-12.53-0.65c-4.49-0.04-8.98,0.05-13.46,0.14c-8.63,0.17-17.24,0.79-25.85,1.56
	c-11.55,1.16-23.1,2.5-34.58,4.63c-6.01,1.12-11.99,2.39-17.97,3.79c-6.06,1.41-12.1,3.02-18.13,4.64
	c-1.33,0.36-2.66,0.74-3.99,1.12c-10.8,3.17-21.52,6.78-32.21,10.7c-5.19,1.9-10.38,3.81-15.53,5.88
	c-5.3,2.13-10.56,4.43-15.77,6.97c-5.18,2.62-10.34,5.36-15.46,8.23c-5.49,3.09-11,6.14-16.46,9.35
	c-10.9,6.41-21.55,13.58-32.15,20.96c-2.06,1.44-4.12,2.89-6.17,4.34c-5.05,3.7-10.07,7.47-15.03,11.39
	c-5.27,4.16-10.49,8.45-15.75,12.62c-4.91,3.88-9.83,7.71-14.71,11.66c-5.25,4.25-10.47,8.55-15.68,12.89
	c-5.18,4.32-10.38,8.58-15.56,12.87c-4.75,3.93-9.46,7.96-14.27,11.74c-10.37,8.16-20.87,15.96-31.37,23.79
	c-5.15,3.84-10.38,7.5-15.58,11.21c-4.74,3.44-9.43,7.04-14.09,10.69c-4.53,3.56-8.96,7.47-13.64,10.63
	c-4.61,3.12-9.43,5.52-14.34,7.48c-2.34,0.93-4.7,1.8-7.07,2.59c-2.44,0.82-4.91,1.56-7.27,2.62c-0.02,0.01-0.04,0.02-0.05,0.03
	l-0.03,0.01c-0.2,0.1-0.4,0.21-0.59,0.34c-0.05,0.04-0.09,0.07-0.13,0.11c-0.01,0.02-0.03,0.03-0.04,0.05
	c0,0.01-0.01,0.02-0.01,0.03c-0.01,0.03-0.01,0.05-0.02,0.08c-0.01,0.03-0.01,0.05-0.02,0.08c-0.17,0.8-1.07,0.56-0.96-0.28
	c0.03-0.23,0.03-0.47,0.08-0.7c0.08-0.44,0.28-0.81,0.46-1.18c0.33-0.67,0.82-1.21,1.25-1.76c0.46-0.59,0.96-1.11,1.46-1.64
	c0.99-1.06,2.06-1.97,3.12-2.9c1.22-1.08,2.48-2.07,3.73-3.08c4.58-3.69,9.3-7,13.91-10.59c4.83-3.76,9.37-8.2,14.09-12.21
	c4.92-4.19,9.91-8.18,14.99-11.95c5.11-3.79,10.29-7.38,15.38-11.2c5.19-3.89,10.38-7.78,15.57-11.67
	c5.31-3.98,10.58-8.06,15.83-12.19c4.85-3.82,9.61-7.88,14.41-11.85c5.15-4.27,10.32-8.49,15.46-12.79
	c5.19-4.33,10.4-8.62,15.62-12.85c4.91-3.98,9.86-7.85,14.8-11.75c5.3-4.18,10.54-8.5,15.84-12.68c5.12-4.04,10.29-7.94,15.49-11.75
	c5.47-4,11.03-7.74,16.57-11.54c10.62-7.28,21.46-13.86,32.42-20c10.7-5.99,21.38-12.04,32.4-16.78c5.55-2.39,11.15-4.55,16.77-6.64
	c5.99-2.22,11.98-4.4,17.99-6.48c5.68-1.97,11.39-3.82,17.12-5.49c6.11-1.79,12.24-3.43,18.38-5.01c11.61-2.97,23.27-5.47,35-7.23
	c11.8-1.77,23.64-3.11,35.49-3.96c5.86-0.42,11.73-0.71,17.61-0.83c2.97-0.06,5.94-0.11,8.91-0.12c2.93-0.01,5.86-0.05,8.78,0.1
	c5.92,0.31,11.83,0.86,17.72,1.78c5.88,0.91,11.77,1.98,17.55,3.73c2.75,0.83,5.5,1.7,8.19,2.89c2.87,1.27,5.72,2.64,8.52,4.21
	c5.32,3,10.54,6.33,15.67,9.95c2.67,1.89,5.3,3.88,7.88,6.01c2.48,2.05,4.87,4.33,7.2,6.71c2.38,2.41,4.63,5.1,6.83,7.82
	c2.22,2.74,4.41,5.54,6.49,8.48c1.98,2.79,3.94,5.66,5.73,8.7c0.91,1.55,1.78,3.14,2.61,4.79c0.93,1.83,1.74,3.77,2.53,5.73
	c1.34,3.34,2.42,6.92,3.44,10.48c0.99,3.43,1.79,6.97,2.45,10.55c1.32,7.17,1.73,14.66,2,22.04c0.29,7.85,0.17,15.77-0.93,23.49
	c-0.58,4.06-1.33,8.03-2.23,11.97c-0.8,3.48-1.65,6.93-2.54,10.37c-1.97,7.68-4.42,15.06-7.11,22.27c-1.29,3.46-2.65,6.89-4.13,10.2
	c-1.58,3.54-3.27,6.96-5.03,10.32c-1.56,2.98-3.19,5.87-4.83,8.75c-1.85,3.25-3.71,6.47-5.62,9.65
	c-3.81,6.37-7.96,12.29-12.47,17.67c-2.13,2.55-4.42,4.85-6.66,7.2c-2.17,2.28-4.33,4.59-6.56,6.74c-2.33,2.24-4.73,4.32-7.14,6.37
	c-2.33,1.98-4.66,3.96-7,5.92c-4.71,3.94-9.42,7.83-14.33,11.27c-2.42,1.7-4.87,3.3-7.35,4.81c-2.62,1.6-5.32,2.94-8.01,4.24
	c-5.23,2.53-10.56,4.62-15.89,6.68c-5.52,2.14-11.06,4.16-16.6,6.22c-5.64,2.1-11.3,4.11-17.01,5.74
	c-5.58,1.59-11.18,2.85-16.81,3.93c-5.68,1.08-11.39,1.85-17.1,2.61c-8.23,1.1-16.47,2.3-24.71,3.3c-3.29,0.4-6.62,0.68-9.93,0.68
	C371.21,465.29,370.58,465.28,369.94,465.25z"/>
<path class="st4" d="M357.76,462.86c-1.47-0.15-1.47-3.04,0-3.17c5.2-0.49,10.38-1.34,15.57-1.98c10.41-1.5,20.76-3.77,31.16-5.4
	c16.58-2.51,33.12-6.03,49.24-12.27c13.54-5.08,27.24-9.67,40.3-16.99c8.1-4.88,15.79-11.02,23.32-17.46
	c10.34-8.5,20.43-17.88,29.23-29.44c4.2-5.75,8.03-12.02,11.68-18.49c11.64-19.23,20.05-42.15,24.74-66.63
	c1.46-7.72,1.88-15.75,1.61-23.72c-0.21-7.87-0.68-15.77-2.12-23.4c-2.91-14.85-7.89-25.32-15.8-35.67
	c-6.74-9.25-14.22-17.45-22.6-23.45c-9.42-6.91-19.2-13.15-29.49-16.92c-28.24-9.14-57.52-7.02-86.21-4.45
	c-46.43,4.71-92.53,17.91-136.75,38.56c-32.74,16.76-64.48,37.47-94.59,62.33c-20.36,15.87-40.35,32.65-60.41,49.28
	c-20.32,16.58-41.43,31.04-62.07,46.73c-7.26,5.57-14.15,12.16-21.78,16.72c-7.3,4.53-15.06,7.24-22.47,11.31
	c-0.5,0.37-1.09,0.6-1.44,1.25c-0.02,0.1-0.05,0.2-0.06,0.29c-0.08,0.44-0.54,0.25-0.48-0.19c0.06-0.92,0.56-1.58,1.05-2.11
	c1.08-1.19,2.23-2.17,3.41-3.13c7.07-5.42,14.56-9.62,21.63-15.02c4.84-3.72,9.43-8.07,14.19-11.99
	c14.98-12.4,30.75-22.71,45.94-34.55c20.86-15.56,40.86-33.28,61.36-49.76c15.23-11.92,30.21-24.56,45.71-35.76
	c26.31-18.73,53.45-35.46,81.52-48.05c28.69-11.76,57.86-21.22,87.42-27.26c23.59-4.61,47.39-7.21,71.2-7.65
	c17.45-0.54,35.01,0.95,52.12,6.09c11.35,3.69,22.03,10.67,32.39,18.08c12.7,9.23,27.36,26.41,35,43.54
	c6.04,14.57,8.19,30.89,8.25,47.64c0.16,8.29-0.53,16.66-2.13,24.64c-3.86,18.59-9.39,36.63-17.21,52.55
	c-6.78,12.97-13.8,25.89-22.23,36.79c-6.27,7.6-12.98,14.55-19.93,20.83c-9.33,7.96-18.61,16.14-28.54,22.51
	c-10.19,6.58-21.08,10.52-31.84,14.66c-11.01,4.12-22,8.45-33.23,11.26c-11.37,2.95-22.9,4.4-34.38,6.09
	C385.99,461.39,371.93,463.62,357.76,462.86z"/>
<path class="st0" d="M602.68,469.55c-0.44-1.47-0.01-3.07,0.91-3.9c0.08-0.07,0.16-0.15,0.24-0.22c1.64-1.6,3.22-3.33,4.74-5.13
	c3-3.84,5.93-7.84,8.63-12.11c2.07-3.43,4.02-6.98,5.83-10.7c2.05-4.39,4.03-8.82,5.72-13.51c1.09-3.16,2.08-6.37,2.93-9.67
	c0.94-4.04,1.7-8.15,2.32-12.31c0.79-6.02,1.24-12.09,1.55-18.2c0.26-6.01,0.28-12,0.05-18.01c-0.5-9.18-1.43-18.34-2.69-27.37
	c-0.54-3.73-1.13-7.45-1.8-11.14c-0.71-3.86-1.53-7.66-2.44-11.44c-1.15-4.62-2.4-9.2-3.62-13.79c-1.15-4.32-2.47-8.52-3.9-12.66
	c-2.47-6.94-4.98-13.89-8.01-20.38c-1.78-3.66-3.65-7.23-5.47-10.85c-1.74-3.44-3.55-6.77-5.49-9.98
	c-2.68-4.21-5.51-8.17-8.43-12.03c-2.9-3.85-5.8-7.71-8.76-11.48c-1.73-2.16-3.49-4.26-5.32-6.24c-1.83-1.98-3.73-3.84-5.64-5.68
	c-2.15-2.05-4.31-4.07-6.49-6.05c-2.38-2.15-4.81-4.18-7.24-6.22c-4.65-3.92-9.27-7.88-14.08-11.37c-2.2-1.57-4.41-3.11-6.66-4.53
	c-2.33-1.46-4.7-2.76-7.09-4.01c-4.56-2.39-9.07-4.94-13.65-7.25c-3.63-1.75-7.34-3.19-10.85-5.4c-1.67-1.05-3.27-2.26-4.76-3.77
	c-0.95-0.97-2.27-2.46-2.02-4.37c0.25-1.92,1.47-2.77,2.7-3.1c0.56-0.15,1.14-0.14,1.7-0.12c0.87,0.04,1.74,0.17,2.6,0.3
	c3.09,0.46,6.15,1.37,9.19,2.27c1.65,0.49,3.29,1.03,4.9,1.72c1.45,0.61,2.88,1.36,4.31,2.05c3.21,1.54,6.37,3.24,9.55,4.89
	c3.02,1.56,6,3.2,8.91,5.13c3.19,2.12,6.35,4.37,9.47,6.72c2.79,2.12,5.5,4.46,8.21,6.76c3,2.54,6.02,5.03,8.98,7.66
	c2.83,2.5,5.6,5.13,8.35,7.79c2.7,2.6,5.36,5.26,7.88,8.2c2.64,3.08,5.16,6.35,7.67,9.65c2.35,3.09,4.7,6.19,7.03,9.31
	c2.49,3.34,4.87,6.83,7.12,10.49c2.29,3.72,4.35,7.67,6.38,11.69c2.08,4.12,4.22,8.16,6.16,12.42c1.79,3.93,3.33,8.06,4.86,12.2
	c1.51,4.1,3.05,8.2,4.39,12.42c1.34,4.19,2.49,8.48,3.64,12.79c1.23,4.61,2.46,9.21,3.53,13.9c0.98,4.29,1.81,8.63,2.54,13.02
	c0.78,4.66,1.44,9.37,2.05,14.08c0.6,4.67,0.99,9.39,1.4,14.1c0.41,4.73,0.7,9.48,0.77,14.25c0.08,5.19-0.02,10.34-0.28,15.52
	c-0.24,4.68-0.55,9.35-1.06,14c-0.49,4.54-1.19,9.04-2.06,13.47c-0.49,2.48-1.06,4.93-1.67,7.36c-0.57,2.26-1.28,4.46-1.99,6.64
	c-1.43,4.44-3.1,8.74-5.02,12.8c-1.2,2.52-2.44,4.97-3.83,7.29c-1.56,2.61-3.29,4.99-4.69,6.73c-2.91,3.65-5.98,6.94-9.18,10.04
	c-1.64,1.59-3.32,3.2-5.12,4.39c-1.73,1.14-3.52,1.9-5.32,2.75c-0.19,0.09-0.39,0.13-0.58,0.13
	C603.84,471.48,603.01,470.67,602.68,469.55z"/>
<path class="st4" d="M603.75,469.12c-0.3-0.72-0.13-1.72,0.39-2.13c4.85-3.71,8.91-9.06,12.89-14.41
	c17.65-23.81,22.92-57.19,20.8-90.74c-2.52-40.12-13.18-79.14-30.77-110.73c-3.7-6.73-7.99-12.72-12.4-18.49
	c-6.41-8.63-12.94-17.14-20.44-23.85c-11.38-10.48-22.98-20.73-35.42-28.46c-5.84-3.26-11.73-6.35-17.63-9.36
	c-6.28-3.16-13.06-4.85-18.8-9.87c-2.27-6.09,13.09,1.2,14.73,1.27c15.83,6.2,31.19,15.28,45.14,27.66
	c17.35,13.72,32.83,31.36,46.09,52.38c10.75,18.42,19.48,39.19,25.12,61.8c11.13,42.18,15.86,97.75-3.27,136.59
	c-5.55,10.94-13.03,20.01-21.24,26.68C607.55,467.98,604.72,471.2,603.75,469.12z"/>
<path class="st0" d="M537.28,480.49c-1.43-2.05-1.37-5.31,0-7.37c2-2.99,3.97-6,5.96-9c0.67-1.14,1.31-2.3,1.93-3.49
	c0.31-0.67,0.61-1.34,0.89-2.03c0.33-0.83,0.64-1.67,0.95-2.52c1.48-4.59,2.69-9.31,3.88-14.06c1.71-7.17,3.16-14.45,4.27-21.86
	c0.81-6.04,1.44-12.11,1.99-18.21c0.56-6.28,1.08-12.57,1.42-18.89c0.37-9.18,0.29-18.36-0.09-27.54
	c-0.45-8.54-1.23-17.02-2.04-25.51c-0.41-4.28-0.83-8.56-1.29-12.84c-0.44-4.11-1-8.2-1.57-12.28c-0.81-5.39-1.69-10.76-2.75-16.05
	c-1.09-5.44-2.31-10.81-3.6-16.16c-1.67-6.5-3.54-12.86-5.54-19.17c-1.9-6.01-3.85-11.99-5.88-17.91c-1.6-4.5-3.25-8.97-5.04-13.32
	c-1.91-4.65-3.93-9.22-6.02-13.7c-3.6-7.51-7.46-14.74-11.47-21.82c-2.04-3.61-3.98-7.33-5.52-11.43
	c-1.52-4.04-2.85-8.23-4.41-11.69c-0.22-0.47-0.44-0.94-0.68-1.37c-0.04-0.06-0.07-0.12-0.11-0.18c0,0,0.01,0,0.01,0
	c-0.36-0.61-0.53-1.45-0.33-2.33c0.71-3.14,3.47-2.51,5.05-1.2c1.44,1.2,2.74,2.71,3.88,4.46c2.19,3.37,4.12,7.05,6.22,10.53
	c2.22,3.52,4.48,6.99,6.62,10.61c2.14,3.63,4.15,7.42,6.1,11.26c4.1,8.09,7.86,16.55,11.22,25.31c3.35,8.73,6.26,17.78,9.16,26.83
	c1.44,4.5,2.82,9.03,4.11,13.62c1.36,4.83,2.52,9.78,3.66,14.72c1.08,4.71,2.05,9.47,2.92,14.27c0.92,5.05,1.68,10.15,2.41,15.26
	c1.37,9.56,2.21,19.27,3.12,28.93c0.93,9.9,1.66,19.85,1.81,29.84c0.07,4.82,0.13,9.65-0.02,14.47c-0.16,5.26-0.46,10.49-0.86,15.72
	c-0.36,4.8-0.82,9.59-1.27,14.38c-0.47,4.96-1.01,9.93-1.79,14.81c-1.56,9.8-3.81,19.34-6.37,28.69c-0.72,2.64-1.47,5.27-2.34,7.81
	c-0.51,1.49-1.03,2.97-1.64,4.38c-0.57,1.32-1.16,2.7-1.86,3.89c-0.79,1.33-1.58,2.61-2.43,3.84c-0.74,1.07-1.57,2.11-2.41,3.04
	c-1.77,1.95-3.57,3.84-5.38,5.71c-0.68,0.7-1.48,1.06-2.27,1.06C538.9,481.99,537.99,481.5,537.28,480.49z"/>
<path class="st4" d="M538.57,478.64c-0.69-0.99-0.72-2.7,0-3.68c2.45-3.43,5.2-7.03,7.46-10.64c5.2-9.98,7.29-22.49,9.9-34.16
	c5.43-30.74,6.78-63.52,3.48-94.83c-3.18-45.08-14.43-88.54-31.67-126.53c-4.67-10.44-10.31-19.86-15.69-29.54
	c-3.26-5.54-4.72-13.34-8.73-17.85c-0.55-0.78-0.16-2.02,0.51-2.32c4.32-0.22,7.66,9.4,10.19,13.6c4.24,7.36,8.81,14.35,12.72,22.1
	c20.2,39.95,33.41,87.35,37.14,136.35c2.71,24.52,3.03,49.51,0.31,74.06c-1.15,14.69-3.65,29.07-7.39,42.86
	c-2.51,10.59-6.19,20.85-12.8,27.35C542.4,476.84,540.55,481.01,538.57,478.64z"/>
<path class="st0" d="M398.14,483.25c-0.67-2.26-0.04-4.97,1.45-6.21c2.27-1.88,4.45-3.97,6.72-5.84c2.38-1.95,4.74-3.91,7.06-6
	c1.38-1.34,2.74-2.7,4.07-4.14c1.49-1.62,2.93-3.31,4.35-5.03c5.17-6.56,10.01-13.6,14.6-20.98c5.36-8.91,10.13-18.46,14.76-28.16
	c1.36-2.89,2.7-5.79,3.96-8.77c1.24-2.91,2.42-5.88,3.6-8.85c2.41-6.08,4.72-12.25,6.96-18.46c6.03-17.36,11.37-35.16,16.05-53.34
	c1.1-4.27,2.16-8.56,3.22-12.86c2.22-9.23,4.37-18.52,6.07-27.97c1.76-9.78,3.36-19.62,4.82-29.49c0.04-0.28,0.08-0.56,0.12-0.84
	c0.87-6.24,1.62-12.5,2.17-18.81c0.55-6.34,0.97-12.7,1.28-19.08c0.28-6.85,0.4-13.71,0.64-20.57c0.24-6.96,0.67-13.91,1.01-20.86
	c0.09-2.1,0.18-4.19,0.11-6.29c-0.03-0.44-0.08-0.89-0.11-1.33c-0.18-0.7-0.17-1.49,0.04-2.2c0.15-0.51,0.41-0.95,0.72-1.27
	c0.51-0.6,1.21-0.86,1.88-0.73c1.03,0.2,1.87,1.21,2.51,2.3c1.12,1.89,1.75,4.22,2.23,6.56c0.48,2.31,0.67,4.78,0.79,7.17
	c0.13,2.59,0.17,5.19,0.19,7.79c0.04,4.69,0.01,9.38-0.03,14.07c-0.04,5-0.11,9.98-0.29,14.98c-0.19,5.13-0.48,10.25-0.85,15.36
	c-0.34,4.71-0.72,9.43-1.27,14.1c-1.2,10.23-2.77,20.35-4.43,30.44c-0.75,4.54-1.51,9.08-2.37,13.59c-0.95,5-1.98,9.96-3.07,14.91
	c-2.12,9.67-4.55,19.22-7,28.73c-2.32,9-4.83,17.93-7.52,26.72c-2.81,9.17-5.75,18.28-8.96,27.2c-1.51,4.21-3.08,8.4-4.69,12.54
	c-1.68,4.32-3.36,8.65-5.15,12.88c-1.87,4.4-3.86,8.67-5.9,12.9c-1.92,3.98-3.84,7.96-5.86,11.84c-2.14,4.12-4.32,8.17-6.62,12.11
	c-2.27,3.88-4.68,7.59-7.12,11.26c-4.81,7.24-9.96,14.01-15.58,19.95c-1.46,1.54-2.99,3.05-4.56,4.35
	c-1.71,1.41-3.42,2.85-5.23,3.99c-0.87,0.55-1.73,1.11-2.62,1.58c-0.98,0.52-1.96,1.02-2.96,1.46c-1.67,0.75-3.37,1.41-5.05,2.13
	c-0.3,0.13-0.61,0.19-0.91,0.19C399.99,486.29,398.68,485.06,398.14,483.25z"/>
<path class="st4" d="M399.84,482.57c-1.43-3.76,4-5.33,5.57-7.12c3.43-2.49,6.82-5.09,10.03-8.14
	c10.64-10.41,19.53-24.09,27.61-38.31c18.29-33.53,31.22-72.28,41.39-112.02c10.94-41.94,17.95-86.19,17.99-131.07
	c-0.01-8.74,1.38-17.75-0.04-26.35c-1.03-1.07,0.04-3.38,1.19-2.74c0.81,0.26,1.37,1.58,1.76,2.5c2.26,6.39,1.78,13.93,1.8,20.88
	c-0.12,9.62-0.11,19.25-0.51,28.86c-3.62,75.43-30,173.77-64.15,231.83c-9.11,14.65-19,29.25-31.57,37.73
	c-2.95,1.98-6.04,3.49-9.1,5.09C401.08,484.09,400.21,483.46,399.84,482.57z"/>
<path class="st0" d="M294.16,464.63c-0.44-1.49-0.44-3.21,0-4.7c0.44-1.48,1.25-2.53,2.26-3.21c0.08-0.05,0.15-0.1,0.23-0.15
	c4.34-3.16,8.5-6.74,12.56-10.58c5.69-5.57,11.28-11.35,16.67-17.5c5.44-6.2,10.79-12.55,16.02-19.1c0.33-0.41,0.66-0.82,0.87-1.09
	c5.07-6.38,10.14-12.77,15.13-19.28c5.14-6.71,10.27-13.42,15.29-20.3c2.47-3.38,4.97-6.72,7.42-10.13
	c2.61-3.63,5.19-7.31,7.77-10.98c2.38-3.38,4.74-6.81,7.08-10.26c2.57-3.77,5.15-7.52,7.7-11.31c6.16-9.19,12.17-18.58,17.68-27.42
	c2.19-3.56,4.39-7.11,6.5-10.51c1.1-1.79,2.2-3.58,3.3-5.37c0.57-0.94,1.15-1.88,1.73-2.81c0.37-0.59,0.73-1.19,1.1-1.78
	c0.18-0.29,0.36-0.58,0.54-0.85c0.08-0.14,0.17-0.28,0.25-0.43c0.65-1.05,1.3-2.09,1.92-3.09c4.51-7.36,8.95-14.8,13.36-22.28
	c4.45-7.55,8.9-15.09,13.28-22.73c4.31-7.52,8.54-15.13,12.82-22.7c4.27-7.55,8.59-15.03,12.64-22.83
	c2.71-5.23,5.36-10.52,8.14-15.67c1.38-2.56,2.81-5.07,4.39-7.39c0.66-0.97,1.38-1.89,2.15-2.66c0.34-0.34,0.71-0.67,1.11-0.82
	c0.72-0.28,1.44,0,1.98,0.72c1.13,1.5,0.72,4.11,0.39,5.96c-0.39,2.18-1.02,4.32-1.67,6.36c-1.39,4.35-3.05,8.51-4.81,12.57
	c-3.65,8.42-7.74,16.39-12.06,24.13c-4.26,7.63-8.57,15.21-12.84,22.83c-4.26,7.6-8.58,15.13-12.97,22.57
	c-6.78,11.5-13.57,22.98-20.42,34.03c-0.1,0.17-0.21,0.33-0.31,0.5c-0.08,0.14-0.17,0.28-0.25,0.41c-0.67,1.09-1.34,2.17-1.6,2.6
	c-3.08,4.98-6.15,9.97-8.81,14.28c-4.67,7.57-9.36,15.11-14.19,22.46c-2.41,3.67-4.83,7.34-7.27,10.98
	c-2.49,3.71-5.02,7.36-7.53,11.05c-9.67,14.22-19.66,28.03-29.87,41.45c-10.24,13.45-20.53,26.86-31.18,39.64
	c-5.32,6.39-10.77,12.58-16.36,18.5c-2.78,2.95-5.62,5.8-8.49,8.57c-2.95,2.84-5.95,5.51-9.12,7.83c-1.18,0.87-2.39,1.67-3.63,2.33
	c-1.26,0.67-2.54,1.17-3.84,1.64c-0.36,0.13-0.73,0.19-1.09,0.19C296.42,468.3,294.84,466.93,294.16,464.63z"/>
<path class="st4" d="M296.02,463.09c-0.31-1.56,0.35-3.18,1.41-3.67c9.44-6.07,17.79-14.98,26.03-23.81
	c61.63-69.89,113.91-154.69,162.57-242.51c6.35-11.3,11.47-24.22,18.16-34.99c6.03-1.52-9.77,29.99-10.99,32.64
	c-44.26,81.92-92.48,160.01-147.48,227.67C340.05,425.44,299.77,474.8,296.02,463.09z"/>
<path class="st0" d="M134.29,448.62c-0.56-1.9,0-3.92,1.17-5.01c0.06-0.05,0.11-0.11,0.17-0.16c1.25-1.24,2.46-2.59,3.71-3.83
	c0.7-0.68,1.4-1.35,2.1-2.02c0.09-0.09,0.19-0.18,0.28-0.27c0.54-0.62,1.16-1.13,1.73-1.67c2.93-2.84,5.82-5.77,8.64-8.84
	c2.84-3.08,5.57-6.35,8.26-9.7c5.68-7.17,11.41-14.27,17.07-21.33c6.06-7.63,12.07-15.32,18.16-22.9
	c5.96-7.42,12.01-14.72,18.11-21.9c6.15-7.23,12.42-14.26,18.84-20.99c6.57-6.9,13.19-13.71,19.92-20.3
	c13.37-13.11,27.01-25.68,40.98-37.46c13.68-11.53,27.61-22.47,41.8-32.69c1.59-1.15,3.19-2.3,4.78-3.44c0,0,0,0,0,0
	c0,0,0.01,0,0.01-0.01l0,0c0.09-0.07,0.19-0.14,0.28-0.2c0.07-0.05,0.14-0.1,0.21-0.15c0.09-0.07,0.18-0.14,0.28-0.2
	c0.11-0.08,0.21-0.15,0.32-0.23c0.09-0.07,0.19-0.14,0.29-0.21c0.4-0.29,0.79-0.59,1.2-0.86c0.03-0.02,0.05-0.04,0.08-0.06
	c0.08-0.06,0.15-0.12,0.23-0.17c0.24-0.21,0.49-0.4,0.75-0.56c0.17-0.14,0.35-0.26,0.53-0.37c0.59-0.45,1.21-0.83,1.78-1.24
	c0.96-0.68,1.92-1.38,2.88-2.05c1.77-1.23,3.53-2.47,5.31-3.67c14.61-9.9,29.51-18.91,44.52-27.53c7.56-4.34,15.22-8.34,22.88-12.3
	c7.39-3.82,14.87-7.32,22.37-10.61c3.83-1.67,7.67-3.29,11.52-4.85c3.87-1.57,7.77-2.96,11.66-4.36c3.78-1.35,7.58-2.61,11.38-3.86
	c3.91-1.28,7.84-2.53,11.8-3.45c1.8-0.42,3.6-0.84,5.41-1.09c1.9-0.27,3.83-0.52,5.74-0.44c1.77,0.08,3.52,0.3,5.26,0.82
	c1.15,0.34,2.8,0.9,3.12,2.73c0.29,1.46-0.43,3.22-1.66,3.23c-0.09,0.04-0.18,0.08-0.27,0.12c-1.57,0.82-3.12,1.77-4.7,2.54
	c-1.71,0.83-3.46,1.5-5.2,2.19c-3.65,1.45-7.32,2.86-11,4.21c-7.7,2.82-15.44,5.44-23.11,8.41c-11.76,4.54-23.38,9.72-34.9,15.38
	c-7.61,3.82-15.16,7.83-22.69,11.98c-7.51,4.15-14.94,8.61-22.36,13.06c-12.08,7.23-23.97,15.09-35.7,23.41
	c-0.09,0.07-0.18,0.13-0.27,0.2c-0.07,0.05-0.14,0.1-0.21,0.15c-0.1,0.08-0.21,0.16-0.32,0.23c-0.09,0.07-0.19,0.13-0.28,0.2
	c-0.09,0.07-0.18,0.13-0.27,0.2c-0.41,0.29-0.81,0.6-1.22,0.87c-0.03,0.03-0.07,0.05-0.1,0.08c-0.07,0.05-0.14,0.11-0.21,0.16
	c-0.24,0.21-0.49,0.4-0.74,0.56c-0.19,0.15-0.38,0.28-0.57,0.39c-0.5,0.38-1.01,0.71-1.5,1.06c-0.88,0.63-1.75,1.25-2.63,1.89
	c-1.73,1.27-3.46,2.53-5.19,3.81c-7.16,5.32-14.31,10.67-21.33,16.36c-7.04,5.7-14.04,11.47-20.96,17.42
	c-9.64,8.29-19.1,17-28.44,25.97c-6.46,6.28-12.88,12.64-19.21,19.19c-6.64,6.86-13.17,13.9-19.61,21.12
	c-2.11,2.37-4.18,4.84-6.25,7.29c-2.26,2.68-4.53,5.36-6.78,8.07c-4.42,5.32-8.79,10.71-13.15,16.13
	c-5.87,7.4-11.69,14.88-17.61,22.21c-6.02,7.46-12.15,14.71-18.4,21.78c-3.84,4.34-7.77,8.53-11.95,12.19
	c-2.1,1.83-4.33,3.35-6.59,4.72c-1.06,0.64-2.17,1.18-3.27,1.64c-1.17,0.49-2.37,0.85-3.55,1.32c-0.24,0.1-0.49,0.14-0.73,0.14
	C135.79,451.06,134.74,450.11,134.29,448.62z"/>
<path class="st4" d="M135.67,448.07c-0.38-0.92-0.16-2.21,0.51-2.74c3.02-2.47,6.01-5.05,8.97-7.69
	c15.93-14.96,29.53-34.33,43.97-51.98c18-22.98,36.65-44.99,56.43-64.79c72.17-72.18,153.36-128.99,239.6-156.94
	c4.22-1.33,24.72-7.51,23.76-1.38c-7.15,2.87-14.96,4.87-22.32,7.67C403.73,197.74,325.52,251,255.5,319.34
	c-28.55,27.32-54.16,60.08-79.88,92.47c-11.93,13.95-23.38,30.23-38.37,37.18C136.67,449.29,135.97,448.79,135.67,448.07z"/>
<path class="st0" d="M548.59,271.34c-6.39-0.02-12.77-0.3-19.15-0.82c-6.6-0.54-13.21-1.08-19.78-2.04
	c-6.47-0.95-12.91-2.08-19.33-3.54c-6.77-1.54-13.49-3.34-20.19-5.41c-6.39-1.98-12.6-4.85-18.78-7.86
	c-6.27-3.05-12.6-5.95-18.68-9.71c-6.19-3.82-12.03-8.69-17.58-14.14c-5.39-5.3-10.38-11.55-14.7-18.57
	c-2.55-4.15-5.02-8.44-6.98-13.21c-1-2.42-1.87-4.97-2.56-7.59c-0.33-1.27-0.65-2.53-0.92-3.83c-0.29-1.45-0.52-2.91-0.74-4.38
	c-0.59-4.36-0.69-9.14,0.61-13.27c0.61-1.94,1.37-3.79,2.61-5.04c0.45-0.46,1.07-0.87,1.64-0.83c0.71,0.05,1.32,0.56,1.54,1.58
	c0.12,0.55,0.07,1.14,0,1.7c-0.08,0.71-0.16,1.43-0.21,2.15c-0.03,0.96-0.03,1.91,0,2.87c0.06,0.83,0.14,1.64,0.24,2.46
	c0.23,1.36,0.51,2.69,0.82,4.01c0.68,2.66,1.46,5.25,2.34,7.79c0.8,2.11,1.65,4.15,2.58,6.15c1.27,2.48,2.62,4.85,4.01,7.19
	c1.15,1.83,2.31,3.62,3.5,5.39c1.28,1.91,2.65,3.7,4.03,5.48c1.31,1.62,2.62,3.24,4,4.74c1.47,1.6,2.96,3.14,4.48,4.63
	c1.82,1.71,3.66,3.4,5.55,4.97c1.98,1.65,3.99,3.2,6.03,4.7c2.17,1.45,4.34,2.82,6.57,4.09c2.1,1.2,4.24,2.28,6.37,3.36
	c4.76,2.35,9.52,4.77,14.32,6.94c2.69,1.21,5.39,2.34,8.12,3.36c2.46,0.93,4.95,1.68,7.44,2.45c6.2,1.76,12.41,3.36,18.66,4.71
	c6.55,1.41,13.12,2.49,19.71,3.34c2.51,0.33,5.03,0.57,7.15,0.79c6.33,0.59,12.66,1.14,19,1.38c6.41,0.25,12.85,0.29,19.25-0.25
	c0.19-0.02,0.39-0.03,0.58-0.05c4.53-0.48,9.06-1.16,13.53-2.35c2.72-0.85,5.39-2,8.03-3.28c1.19-0.62,2.35-1.3,3.49-2.09
	c1.52-1.14,2.97-2.41,4.41-3.75c1.14-1.06,2.28-2.1,3.41-3.16c0.51-0.5,1-1.01,1.48-1.57c0.26-0.34,0.5-0.69,0.74-1.06
	c0.11-0.19,0.22-0.38,0.32-0.58c0.04-0.1,0.08-0.2,0.13-0.31c0.03-0.09,0.05-0.17,0.08-0.26c0.03-0.16,0.06-0.32,0.09-0.48
	c0.12-1.09,0.18-2.2,0.39-3.26c0.6-2.91,2.46-5,4.61-5c2.15,0,4,2.09,4.61,5c0.33,1.59,0.24,3.31,0.07,4.94
	c-0.14,1.33-0.38,2.57-0.7,3.84c-0.63,2.53-1.85,4.74-3.17,6.6c-1.88,2.65-4.21,4.54-6.41,6.59c-2.68,2.49-5.39,4.83-8.36,6.56
	c-1.55,0.9-3.16,1.63-4.75,2.36c-1.38,0.63-2.76,1.24-4.17,1.72c-3.17,1.08-6.39,1.81-9.63,2.34c-6.39,1.04-12.81,1.51-19.24,1.51
	C548.93,271.34,548.76,271.34,548.59,271.34z"/>
<path class="st4" d="M546.84,267.86c-22.68-0.41-45.39-3.12-67.68-9.24c-9.69-2.42-19.18-6.19-28.43-10.93
	c-6.29-3.1-12.65-6.01-18.71-9.95c-9.81-6.56-19.01-15.19-26.74-26.05c-4.49-6.59-8.93-13.64-11.68-22.03
	c-2.13-6.92-4.09-14.91-2.34-22.4c0.45-1.81,1.73-5.68,3.35-4.93c0.21,0.17,0.32,0.49,0.32,0.81c0,0,0,0,0,0
	c-2.04,6.29-0.67,13.18,1.1,19.28c2.62,9.11,7.25,16.61,12.02,23.58c8.15,11.64,18.1,20.58,28.65,27.12
	c6.05,3.44,12.22,6.37,18.38,9.36c6.24,3.06,12.58,5.76,19.06,7.63c26.2,7.91,53.08,11.12,79.84,10.72
	c10.36-0.46,20.93-1.65,30.61-7.32c3.87-2.55,7.43-5.98,10.93-9.42c1.39-1.57,2.68-3.56,2.83-6.19c0.13-1.27,0.08-2.7,0.81-3.64
	c1.18-1.83,3.63-0.96,3.99,1.5c0.85,9.37-5.01,14.49-9.86,18.76C579.7,267.34,562.59,267.62,546.84,267.86z"/>
<path class="st0" d="M470.28,347.7c-6.69-0.5-13.37-1.42-20.04-2.33c-3.31-0.45-6.62-0.87-9.91-1.6c-3.42-0.76-6.8-1.74-10.18-2.79
	c-6.58-2.05-13.08-4.5-19.5-7.37c-3.4-1.52-6.77-3.17-10.09-5.01c-3.07-1.7-6.1-3.52-9.12-5.38c-3-1.84-5.98-3.73-8.91-5.79
	c-3.19-2.23-6.37-4.53-9.54-6.81c-2.91-2.09-5.82-4.21-8.63-6.58c-3.03-2.54-5.97-5.27-8.85-8.13c-2.86-2.84-5.69-5.72-8.48-8.7
	c-2.68-2.87-5.2-6.06-7.66-9.29c-2.41-3.16-4.85-6.3-7.24-9.48c-2.48-3.3-4.88-6.7-7.17-10.27c-4.56-7.08-8.59-14.78-12.15-22.94
	c-1.5-3.44-2.9-6.96-4.27-10.51c-1.34-3.49-2.73-7.01-3.75-10.72c-1.05-3.82-1.76-7.76-2.03-11.86c-0.14-2.04-0.13-4.08,0.04-6.12
	c0.13-1.55,0.54-3.65,1.63-4.34c0.34-0.22,0.73-0.16,1.04,0.11c0.53-0.05,1.03,0.49,1.03,1.32c0,0.25-0.05,0.48-0.13,0.67
	c0.1,0.33,0.19,0.67,0.29,0.99c0.31,1.02,0.62,2.04,0.93,3.05c0.65,2.1,1.33,4.18,2.03,6.24c0.66,1.83,1.35,3.63,2.1,5.39
	c0.69,1.64,1.45,3.23,2.14,4.67c1.8,3.78,3.56,7.61,5.33,11.41c3.26,6.83,6.68,13.46,10.47,19.71c2.71,4.31,5.53,8.49,8.52,12.41
	c3.22,4.22,6.45,8.42,9.7,12.6c2.3,2.85,4.66,5.57,7.12,8.14c2.67,2.78,5.37,5.49,8.1,8.16c3.19,3.01,6.45,5.87,9.84,8.43
	c3.6,2.71,7.24,5.29,10.88,7.9c3.97,2.82,7.99,5.45,12.07,7.95c4.08,2.5,8.2,4.9,12.38,7.06c4.53,2.21,9.12,4.18,13.74,5.99
	c4.58,1.8,9.22,3.28,13.86,4.66c2.56,0.72,5.13,1.35,7.72,1.86c2.75,0.54,5.52,0.88,8.29,1.25c5.55,0.75,11.11,1.49,16.02,1.96
	c6.35,0.55,12.73,0.77,19.09,0.43c3.31-0.18,6.62-0.44,9.93-0.68c3.15-0.23,6.31-0.44,9.46-0.72c6.27-0.63,12.5-1.9,18.73-3.03
	c3.27-0.59,6.54-1.26,9.8-2c3.12-0.7,6.24-1.42,9.35-2.26c0.48-0.13,0.95-0.26,1.42-0.39c3.44-1.03,6.86-2.24,10.26-3.55
	c3.41-1.31,6.81-2.67,10.16-4.29c6.28-3.18,12.38-7.1,18.36-11.3c2.39-1.72,4.77-3.48,7.1-5.36c2.41-1.93,4.74-4.05,7.04-6.24
	c3.54-3.44,7.05-6.96,10.29-10.96c1.27-1.61,2.5-3.27,3.64-5.06c0.56-0.93,1.1-1.89,1.6-2.89c0.2-0.45,0.39-0.91,0.57-1.38
	c0.14-0.4,0.26-0.81,0.38-1.23c0.01-0.03,0.01-0.07,0.02-0.1c0.72-3.5,3.29-5.66,5.79-4.68c2.49,0.97,3.94,4.71,3.28,8.24
	c-0.46,2.47-1.38,4.8-2.4,6.9c-1.46,3.01-3.27,5.7-5.18,8.15c-4.78,6.13-10.06,11.4-15.45,16.4c-5.41,5.03-11.17,9.29-17,13.22
	c-2.8,1.89-5.62,3.69-8.47,5.41c-2.92,1.76-5.92,3.28-8.93,4.71c-3.04,1.45-6.14,2.66-9.23,3.86c-3.08,1.2-6.19,2.3-9.32,3.24
	c-3.22,0.96-6.46,1.73-9.71,2.51c-3.33,0.8-6.67,1.55-10.02,2.24c-3.28,0.68-6.56,1.29-9.84,1.92c-2.94,0.56-5.88,1.11-8.84,1.45
	c-3.47,0.39-6.94,0.67-10.41,0.91c-3.33,0.23-6.66,0.5-9.99,0.72c-2.93,0.19-5.87,0.29-8.8,0.29
	C477.15,348.08,473.71,347.95,470.28,347.7z"/>
<path class="st4" d="M469.43,344.16c-10.14-1.03-20.3-2.14-30.37-4.21c-16.52-4.12-32.71-10.96-48-20.79
	c-12.08-7.91-24.27-15.96-35.11-27.05c-5.57-5.52-11-11.33-15.91-18.02c-4.96-6.44-9.99-12.81-14.44-20
	c-6.24-9.87-11.34-21.08-15.9-32.64c-3.29-7.94-6.11-16.87-5.81-26.27c0.08-1.07,0.35-3.49,1.41-2.73c0.09,0.01,0.18,0.01,0.27-0.01
	c0.3-0.05,0.45,0.31,0.45,0.67c0.01,0.39-0.18,0.74-0.49,0.66c1.52,10.64,5.57,19.92,9.71,28.86c2.72,6.1,5.55,12.08,8.6,17.85
	c5.91,10.99,13.08,20.33,20.29,29.56c9.74,12.61,20.78,23.26,32.56,31.58c18.4,13.89,37.98,24.56,58.45,30.23
	c5.83,1.81,11.77,2.65,17.71,3.42c9.81,1.38,19.64,2.51,29.5,2.37c21.35-0.42,42.64-3.61,63.61-9.32
	c21.67-6.29,42.57-18.85,60.3-37.78c3.31-3.56,6.54-7.41,9.15-12.03c0.7-1.33,1.3-2.72,1.78-4.23c0.27-2.06,1.56-3.77,3.08-3.15
	c3.23,1.64,1,7.01-0.29,9.73c-5.33,10.33-13.18,17.29-20.53,24.37c-10.63,9.41-22.09,17.02-33.93,22.75
	c-12.33,5.71-25.11,8.99-37.93,11.49c-9.68,1.95-19.4,3.76-29.18,4.17C488.75,344.46,479.07,345.09,469.43,344.16z"/>
<path class="st0" d="M453.14,418.71c-4.46-0.01-8.92-0.07-13.38-0.26c-4.47-0.19-8.94-0.55-13.4-0.81
	c-4.63-0.26-9.25-0.43-13.88-0.67c-9.49-0.47-18.95-1.51-28.4-2.73c-4.81-0.63-9.62-1.3-14.42-2.18c-4.67-0.86-9.32-2.03-13.98-3.06
	c-4.54-1-9.08-2.01-13.6-3.16c-4.64-1.18-9.23-2.63-13.82-4.16c-8.74-2.93-17.34-6.64-25.95-10.3c-8.81-3.74-17.38-8.66-25.6-14.5
	c-4.13-2.93-8.08-6.32-12.04-9.69c-4.02-3.43-8.1-6.73-12.12-10.18c-4.14-3.55-8.08-7.53-11.97-11.61
	c-3.7-3.88-7.34-7.91-10.7-12.38c-3.24-4.31-6.22-9-9.29-13.57c-1.45-2.17-2.92-4.33-4.33-6.57c-1.6-2.54-3.16-5.11-4.71-7.71
	c-1.52-2.55-3.04-5.1-4.57-7.63c-1.39-2.3-2.78-4.61-4.06-7.05c-1.39-2.66-2.68-5.41-3.93-8.2c-1.24-2.75-2.25-5.64-3.06-8.7
	c-0.65-2.48-1.13-5.18-1.3-7.83c-0.08-1.22-0.12-2.41,0.01-3.63c0.09-0.81,0.37-1.6,0.91-1.94c0.31-0.2,0.61-0.16,0.86,0.01
	c0,0,0-0.01,0-0.01c0.62,0.38,0.98,1.42,1.34,2.18c0.57,1.21,1.15,2.41,1.73,3.6c1.32,2.68,2.71,5.27,4.21,7.74
	c2.65,4.21,5.26,8.49,8.02,12.55c1.41,2.08,2.84,4.14,4.22,6.26c1.51,2.31,2.99,4.66,4.49,6.99c2.65,4.15,5.44,8.12,8.19,12.15
	c2.83,4.14,5.61,8.32,8.59,12.25c4.6,5.69,9.5,10.85,14.49,15.83c2.18,2.09,4.39,4.12,6.64,6.05c2.46,2.11,4.96,4.13,7.44,6.21
	c5.01,4.2,9.96,8.54,15.12,12.38c6.06,4.26,12.29,7.98,18.66,11.2c3.16,1.5,6.34,2.86,9.54,4.2c3.29,1.38,6.57,2.78,9.86,4.14
	c6.65,2.73,13.4,5,20.17,7.02c4.39,1.23,8.8,2.32,13.23,3.3c4.64,1.03,9.27,2.12,13.91,3.12c4.68,1,9.37,1.8,14.07,2.48
	c4.6,0.66,9.21,1.24,13.82,1.76c1.88,0.21,3.76,0.41,5.64,0.6c4.58,0.41,9.17,0.74,13.77,0.97c4.57,0.23,9.14,0.38,13.7,0.67
	c4.61,0.28,9.23,0.61,13.85,0.81c4.44,0.19,8.89,0.2,13.33,0.21c3.35,0.01,6.7-0.2,10.05-0.51c4.54-0.46,9.08-0.95,13.61-1.56
	c4.5-0.61,9.02-1.05,13.52-1.67c9.21-1.27,18.4-3.04,27.52-5.3c4.63-1.15,9.25-2.42,13.87-3.72c8.34-2.47,16.62-5.37,24.88-8.37
	c8.22-2.99,16.39-6.2,24.41-10.13c4.65-2.42,9.2-5.23,13.76-7.96c4.33-2.59,8.64-5.24,12.85-8.21c3.52-2.6,6.94-5.46,10.38-8.25
	c3.25-2.64,6.47-5.35,9.58-8.3c1.24-1.21,2.45-2.49,3.6-3.87c0.39-0.5,0.76-1.02,1.12-1.56c0.1-0.17,0.19-0.33,0.29-0.5
	c0.8-1.41,1.91-2.38,3.19-2.63c1.28-0.25,2.6,0.25,3.63,1.38c1,1.11,1.67,2.75,1.85,4.54c0.18,1.87-0.2,3.65-0.97,5.17
	c-0.61,1.2-1.36,2.28-2.13,3.28c-1.14,1.48-2.34,2.86-3.6,4.14c-3.44,3.53-7.1,6.64-10.78,9.63c-3.78,3.08-7.53,6.23-11.41,9.07
	c-4.04,2.97-8.22,5.53-12.41,8.05c-4.32,2.6-8.63,5.31-13.02,7.68c-4.37,2.35-8.84,4.35-13.32,6.26c-4.43,1.89-8.91,3.54-13.39,5.21
	c-4.35,1.61-8.72,3.11-13.09,4.63c-4.4,1.52-8.81,2.94-13.23,4.25c-4.54,1.33-9.11,2.53-13.68,3.71c-4.63,1.2-9.29,2.16-13.95,3.09
	c-4.41,0.87-8.84,1.68-13.27,2.29c-4.6,0.64-9.21,1.09-13.81,1.71c-4.54,0.61-9.07,1.14-13.62,1.6c-4.53,0.46-9.04,0.74-13.58,0.74
	C453.26,418.71,453.2,418.71,453.14,418.71z"/>
<path class="st4" d="M448.06,415.2c-27.77-1.15-55.66-1.93-83.2-7.65c-18.18-3.76-36.32-8.26-53.88-16.13
	c-8.72-3.51-17.37-7.4-25.66-12.67c-8.55-5-16.39-12-24.32-18.68c-10.23-8.17-19.94-17.67-28.78-28.66
	c-8.01-10.79-15.39-22.52-22.59-34.4c-4.47-7.2-8.92-14.68-11.98-23.32c-0.9-2.51-3.77-13.59-1.41-12.72c0-0.01,0-0.02,0-0.02
	c1.71,4.55,3.32,9.37,5.58,13.51c4.08,7.42,8.53,14.37,13.06,21.23c4.36,7.08,8.93,13.89,13.56,20.63
	c3.98,6.1,8.22,11.86,12.88,16.91c7.23,8.17,15.04,15.12,23.05,21.61c7.86,6.76,15.76,13.51,24.29,18.45
	c7.96,4.97,16.31,8.42,24.64,11.87c18.58,8.27,37.83,12.59,57.05,16.56c18.44,3.27,37,4.81,55.57,5.48
	c9.02,0.58,18.03,1.17,27.06,1.09c8.97,0.04,17.93-1.07,26.86-2.28c8.12-1.03,16.25-1.85,24.33-3.47
	c23.8-4.44,47.25-12.25,70.29-21.73c8.15-3.32,16.01-7.96,23.77-12.72c6.36-3.77,12.62-7.91,18.56-12.91
	c5.38-4.44,10.9-8.64,15.89-13.96c1.21-1.36,2.37-2.8,3.33-4.52c0.3-0.43,0.66-0.73,1.07-0.89c1.94-0.9,3.94,2.57,2.74,5.08
	c-4.24,7.39-10.46,11.8-16.11,16.65c-3.77,3.07-7.49,6.28-11.38,9.04c-9.6,6.49-19.39,12.52-29.38,17.66
	c-12.95,6.14-26.22,10.74-39.5,15.21c-22.54,7.58-45.54,11.68-68.61,14.16C465.95,414.79,457.01,415.49,448.06,415.2z"/>
<path class="st0" d="M393.02,473.8c-5.36-0.1-10.71-0.25-16.07-0.31c-5.37-0.07-10.76-0.17-16.12-0.64
	c-2.29-0.2-4.58-0.42-6.61-0.61c-0.11-0.01-0.23-0.02-0.34-0.03c-0.05,0-0.11-0.01-0.16-0.02c-0.48-0.04-0.95-0.09-1.43-0.13
	c-0.1,0-0.2-0.01-0.3-0.03c-4.67-0.41-9.35-0.74-14.02-1.21c-5.28-0.54-10.53-1.29-15.8-2.02c-5.32-0.74-10.65-1.44-15.97-2.24
	c-5.77-0.87-11.51-1.97-17.24-3.23c-5.43-1.19-10.87-2.23-16.29-3.5c-5.5-1.29-10.97-2.76-16.45-4.15
	c-5.34-1.35-10.71-2.51-16.06-3.8c-5.38-1.3-10.72-2.95-16.03-4.8c-5.06-1.77-10.06-3.96-15.04-6.16
	c-5.4-2.38-10.81-4.74-16.17-7.33c-5.41-2.62-10.73-5.55-15.98-8.77c-1.24-0.76-2.5-1.49-3.73-2.3c-1.46-0.98-2.96-1.89-4.39-2.97
	c-2.52-1.89-5.02-3.85-7.5-5.85c-9.84-7.93-19.68-16.04-28.69-25.82c-4.3-4.67-8.44-9.6-12.23-15.11c-1.88-2.74-3.61-5.68-5.34-8.61
	c-1.73-2.94-3.44-5.91-5.1-8.92c-2.06-3.75-4.01-7.63-5.61-11.83c-0.69-1.82-1.29-3.76-1.61-5.78c-0.13-0.79-0.19-1.61-0.06-2.38
	c-0.01-0.19,0.01-0.38,0.04-0.57c0.24-1.27,1.27-1.7,2.01-1.04c-0.02-0.02-0.05-0.04-0.07-0.07c-0.04-0.03-0.08-0.06-0.11-0.08
	c0.44,0.25,0.78,0.67,1.13,1.15c0.94,1.28,1.82,2.63,2.76,3.92c2.21,3.04,4.47,6,6.71,8.99c2.35,3.15,4.67,6.35,6.96,9.59
	c2.26,3.2,4.52,6.38,6.88,9.41c4.69,5.71,9.64,10.94,14.72,15.91c4.82,4.56,9.76,8.81,14.76,12.95c4.99,4.14,10,8.26,15.09,12.15
	c1.48,1,2.95,2.03,4.45,2.96c1.92,1.19,3.83,2.39,5.77,3.52c3.71,2.19,7.46,4.22,11.25,6.15c6.89,3.34,13.85,6.38,20.82,9.37
	c3.42,1.47,6.87,2.84,10.33,4.13c3.33,1.24,6.69,2.27,10.06,3.27c5.13,1.43,10.28,2.65,15.42,3.95c5.37,1.36,10.72,2.86,16.07,4.3
	c5.52,1.49,11.06,2.77,16.61,3.98c5.66,1.24,11.3,2.52,16.98,3.56c6.72,1.23,13.47,2.09,20.22,3c3.2,0.43,6.4,0.93,9.6,1.37
	c3.33,0.46,6.66,0.84,9.99,1.17c3.66,0.33,7.32,0.61,10.98,0.95c0.19,0.02,0.38,0.04,0.56,0.06c0.06,0,0.13,0.01,0.19,0.01
	c0.57,0.05,1.16,0.05,1.73,0.16c0.22,0.02,0.44,0.05,0.66,0.07l1.17,0.11c5.1,0.48,10.2,0.82,15.32,0.93
	c5.16,0.1,10.32,0.09,15.48,0.2c4.83,0.1,9.66,0.2,14.49,0.05c5.08-0.16,10.16-0.47,15.23-0.92c10.92-1.1,21.86-2.07,32.76-3.63
	c5.47-0.79,10.92-1.84,16.36-2.92c5.37-1.06,10.74-2.11,16.11-3.21c4.76-0.98,9.5-2.06,14.26-3.04c4.91-1.02,9.82-1.97,14.73-2.99
	c10.1-2.09,20.15-4.57,29.94-7.36c3.65-1.06,7.3-2.14,10.91-3.42c3.64-1.29,7.26-2.73,10.91-4.01c4.09-1.44,8.2-2.74,12.27-4.29
	c3.71-1.42,7.34-3.19,10.97-4.97c2.8-1.39,5.61-2.79,8.37-4.35c3.13-1.76,6.22-3.67,9.3-5.6c5.82-3.62,11.68-7.16,17.38-11.13
	c2.62-1.9,5.15-3.98,7.59-6.29c0.96-0.94,1.9-1.91,2.79-2.99c0.57-0.74,1.11-1.51,1.63-2.32c0.28-0.47,0.55-0.95,0.8-1.46
	c0.08-0.19,0.16-0.37,0.24-0.56c0.08-0.42,0.15-0.85,0.22-1.28c0.15-0.84,0.34-1.66,0.56-2.47c0.79-2.88,3.16-4.4,5.21-3.6
	c2.01,0.79,3.59,3.85,3.18,6.88c-0.14,1.08-0.36,2.15-0.53,3.22c-0.23,1.45-0.63,2.79-1.18,4.05c-1.41,3.25-3.39,6.04-5.47,8.42
	c-1.53,1.74-3.17,3.3-4.82,4.79c-2.13,1.94-4.35,3.66-6.6,5.28c-4.61,3.32-9.34,6.26-14.05,9.26c-4.65,2.96-9.29,5.94-14.03,8.56
	c-2.32,1.28-4.66,2.45-7.01,3.62c-2.53,1.26-5.05,2.54-7.61,3.69c-5.22,2.37-10.56,4.1-15.88,6c-5.07,1.82-10.11,3.85-15.2,5.52
	c-5.5,1.81-11.04,3.34-16.59,4.83c-5.17,1.38-10.37,2.7-15.57,3.84c-5.52,1.22-11.04,2.32-16.57,3.46
	c-5.4,1.11-10.8,2.26-16.19,3.42c-4.96,1.06-9.93,1.96-14.9,2.9c-5.08,0.96-10.16,1.93-15.25,2.79
	c-10.34,1.75-20.75,2.66-31.14,3.65c-5.4,0.54-10.8,1.04-16.21,1.31c-3.95,0.19-7.9,0.31-11.85,0.31
	C395.54,473.83,394.28,473.82,393.02,473.8z"/>
<path class="st4" d="M386.52,470.43c-43.84-0.37-87.67-6.66-130.74-18.27c-10.42-2.66-20.96-4.57-31.21-8.45
	c-5.2-1.94-10.35-4.11-15.49-6.37c-13.69-5.89-27.31-12.39-40.11-21.58c-16.87-13.34-34.14-26.84-47.82-46.56
	c-3.65-5.55-7.12-11.34-10.57-17.14c-2.71-5.01-6.02-9.97-7.13-16.22c0-0.31-0.14-0.6-0.06-0.9c0.11-0.56,0.52-0.79,0.88-0.61
	c0.25,0.16,0.39,0.36,0.56,0.68c4.09,8.02,9.37,14.63,14.12,21.83c7.36,11.58,15.9,21.38,25.03,29.98
	c8.01,7.5,16.39,14.19,24.73,20.91c4.1,3.32,8.41,6.04,12.74,8.68c15.24,8.94,31.11,15.7,47.04,21.64
	c9.41,3.32,19.03,5.14,28.55,7.67c24.29,6.93,48.84,11.57,73.51,14.58c10.75,1.41,21.55,2.13,32.33,3.13
	c10.61,0.67,21.24,0.44,31.86,0.72c10.7,0.14,21.38-0.84,32.05-1.96c11.96-1.14,23.92-2.41,35.79-4.76
	c21.41-4.25,42.84-8.45,64.18-13.42c10.64-2.69,21.27-5.53,31.69-9.61c13.83-4.65,27.59-9.82,40.69-17.79
	c11.12-7.22,22.93-12.96,32.88-23.25c1.65-1.95,3.31-4.05,4.32-6.78c0.51-2.55,0.81-6.34,3.35-5.53c1.18,0.46,1.81,2.19,1.53,3.85
	c-0.14,0.83-0.31,1.66-0.45,2.5c-0.2,1.25-0.58,2.41-1.07,3.49c-1.41,3.1-3.36,5.68-5.42,7.89c-7.71,8.23-16.75,13.25-25.47,18.85
	c-14.32,9.45-29.32,16.66-44.72,21.55c-20.83,8.21-42.21,13.05-63.6,17.25C462.64,464.67,424.82,471.57,386.52,470.43z"/>
<path class="st5" d="M99.92,341.05c-1.49-0.49-2.69-2.75-1.45-4.67c0.64-0.89,1.49-1.45,2.23-2.16c1.78-1.56,3.61-3.02,5.53-4.2
	c0.71-0.46,1.6-1.06,2.31-0.33c0.59-0.28,1.14-0.56,1.64-1.11c1.42-1.1,2.6,1.74,1.28,3.05c-0.09,1.44-1.12,1.98-1.92,2.46
	c-0.94,0.39-1.58,1.32-2.37,2.05c-1.59,1.16-3.14,2.44-4.71,3.64c-0.18,0.34-0.47,0.56-0.78,0.59
	C101.14,340.79,100.56,341.18,99.92,341.05z"/>
<path class="st5" d="M189.37,268.72c-0.64-0.51-0.84-1.72-0.48-2.61c0.33-0.86,1.01-1.24,1.55-1.81c2.37-2.23,4.67-4.63,6.91-7.12
	c2.22-2.07,6.05-7.96,8.77-6.64c0.78,0.47,1.27,1.64,1.15,2.85c-0.23,1.91-1.59,2.92-2.6,3.97c-1.29,1.26-2.61,2.45-3.91,3.69
	c-2.96,2.81-6.07,5.93-9.56,7.1C190.71,268.85,190.01,269.29,189.37,268.72z"/>
<path class="st5" d="M299.16,197.4c-0.39-0.63-0.18-1.62,0.38-1.85c1.23-0.84,2.47-1.61,3.7-2.44c3.72-2.25,7.32-5.03,11.18-6.74
	c2.21-0.76,3.24,3.8,1.13,5.02c-4.01,2.03-8.17,3.45-12.25,5.19c-0.71,0.19-1.73,0.85-2.31,0.93c-0.23-0.05-0.45,0.12-0.68,0.15
	C299.92,197.79,299.47,197.9,299.16,197.4z"/>
<path class="st5" d="M299.34,196.4c-1.39-0.11-1.2-3.05,0.17-2.8c3.37-1.3,6.57-3.48,9.95-4.83c1.66-0.53,4.47-3.14,5.28,0.34
	c0.41,3.74-3.15,3.24-4.84,3.97C306.34,193.88,302.89,195.68,299.34,196.4z"/>
<path class="st5" d="M384.9,170.21c-0.79,0.09-1.84-0.88-1.32-2.11c0.32-0.66,0.88-0.72,1.4-0.67c0.59-0.17,1.17-0.38,1.76-0.58
	c6.8-2.11,13.68-4.38,20.63-5.1c1.68,0,2.14,3.51,0.55,4.34c-2.76,1.3-5.68,1.68-8.56,2.17
	C394.54,168.89,389.74,170.09,384.9,170.21z"/>
<path class="st5" d="M384.29,167.78c-0.5-0.4-0.68-1.43-0.24-2.02c0.69-0.78,1.68-0.73,2.51-1.07c3.74-1.09,7.49-2.09,11.24-3.12
	c2.82-0.74,5.66-1.53,8.53-1.68c1.27-0.15,2.98,0.15,3.15,2.37c0.1,1.24-0.48,2.54-1.37,2.81c-7.59,1.01-15.24,1.53-22.84,2.63
	C385,168,384.59,168.08,384.29,167.78z"/>
<path class="st5" d="M387.21,166.86c-0.49-0.04-1.2,0.02-1.35-0.83c-0.08-0.43,0.07-0.87,0.33-1.09c1.23-0.69,2.6-0.88,3.89-1.34
	c6.73-1.74,13.51-4.49,20.41-3.99c1.99,0.07,2.13,4.27,0.15,4.6c-7.66,0.15-15.29,1.05-22.9,2.33
	C387.61,166.75,387.41,166.88,387.21,166.86z"/>
<path class="st5" d="M385.63,165.46c-0.78-2.59,2.07-2.53,3.18-2.92c4.11-0.97,8.26-1.46,12.41-1.91c3.11-0.32,6.22-0.82,9.33-1.16
	c1.4,0.15,4.37-1.11,4.69,1.61c0.07,0.9-0.35,1.84-0.99,2.03c-8.92,2.74-18.1,1.42-27.12,2.73c-0.45,0.62-1.22,0.4-1.5-0.39
	C385.63,165.44,385.63,165.46,385.63,165.46z"/>
<path class="st5" d="M608.91,254.9c-3.68-5.33-7.04-11.11-10.84-16.28c-1.85-2.7-3.55-5.59-5.23-8.49c-0.3-0.34-0.47-0.9-0.46-1.44
	c-0.01-1.26,1.07-2.1,1.82-1.44c-0.07-0.05-0.13-0.1-0.2-0.13c0.07,0.04,0.13,0.08,0.2,0.13c0,0,0-0.01,0-0.01
	c6.03,8.78,13.07,16.62,17.92,26.87c0.24,1.21-0.48,2.47-1.33,2.47C610.03,256.58,609.42,255.62,608.91,254.9z"/>
<path class="st5" d="M612.55,256.76c-0.69-1.03-1.34-2.11-1.99-3.19c-0.65-1.09-1.31-2.16-1.96-3.24c-0.21-0.08-0.39-0.26-0.52-0.57
	c-0.06-0.15-0.1-0.32-0.11-0.48c-3.85-6.38-8.35-11.92-12.72-17.56c-1.36-1.81-3.05-3.42-4.1-5.57c-0.47-1.49,0.52-3.35,1.68-3.02
	c1.99,0.75,3.44,3.09,4.95,4.96c3.81,4.39,7.18,9.53,10.41,14.77c2.27,3.83,4.44,7.89,5.72,12.6
	C614.25,256.6,613.16,257.67,612.55,256.76z"/>
<path class="st5" d="M610.26,255.85c-4.7-8.74-9.01-17.98-14.31-26.02c-2.25,0.33-1.79-6.65,1.81-2.07
	c3.3,3.85,6.05,8.59,8.65,13.37c2.21,4.11,4.07,8.59,5.64,13.25C612.53,255.89,610.97,257.2,610.26,255.85z"/>
<path class="st5" d="M609.23,253.61c-4-8.75-8.76-16.48-13.78-23.99c-1.04,0.13-1.27-2.33-0.27-2.67c1-0.17,1.76,1.17,2.51,1.94
	c3.34,4.24,6.61,8.67,9.46,13.6c1.58,2.86,2.89,6,4.07,9.22c0.28,0.75,0.18,1.67-0.3,2.21
	C610.42,254.46,609.61,254.37,609.23,253.61z"/>
<path class="st5" d="M611.86,257.34c-5.35-10.19-11.45-19.2-17.54-28.4c-1.09,0.28-1.6-1.19-1.61-2.54
	c-0.12-1.15,0.68-2.17,1.47-1.86c0.51,0.17,0.93,0.7,1.33,1.16c5.55,6.88,11.18,13.96,15.36,22.65c1.1,2.37,1.98,4.92,2.68,7.58
	c0.17,0.65,0.01,1.4-0.42,1.76C612.71,258.05,612.17,257.88,611.86,257.34z"/>
<path class="st5" d="M611.59,255.33c-3.73-5.7-7.15-11.67-10.53-17.77c-1.75-3.14-3.29-6.57-5.35-9.31
	c-1.24,2.42-2.57-6.02,3.07,0.18c3.48,4.02,6.44,8.85,9.26,13.79c0.99,1.83,6.3,11.6,4.76,13.21
	C612.44,255.82,611.91,255.78,611.59,255.33z"/>
<path class="st5" d="M624.82,289.78c-2.94-10.43-6.46-20.68-11.07-29.83c-2.68,1.72-1.95-8.09,2.61-0.71
	c4.62,7.12,8.55,15.43,11.08,24.42c0.44,1.73,0.93,3.62,0.76,5.49C627.98,291.65,625.48,292.13,624.82,289.78z"/>
<path class="st5" d="M624.22,290.63c-3.52-8.95-6.62-18.25-10.23-27.13c-0.55-0.95,0.03-2.53,0.93-1.9
	c2.2,3.21,3.92,7.08,5.76,10.72c2.39,5.36,5.37,10.65,6.33,16.97C627.21,291.54,625.03,292.63,624.22,290.63z"/>
<path class="st5" d="M623.39,288.7c-3.83-7.92-5.46-17.38-9.45-25.08c-0.32-1.21,0.74-1.57,1.14-0.5c3.61,7.8,7.27,15.72,9.76,24.39
	C625.2,288.74,623.95,289.79,623.39,288.7z"/>
<path class="st5" d="M639.01,358.04c-0.83-9.29-1.39-18.17-3.03-27.2c-0.62-0.07-0.58-1.12-0.54-1.74c0.01-0.7-0.06-1.24-0.25-1.85
	c-0.19-0.85-0.82-1.75-0.41-2.63c0.24-0.47,0.66-0.57,1.02-0.34c2.42,2.41,3.59,6.67,4.57,10.5c1.28,5.76,2.02,11.84,1.76,17.89
	c-0.05,1.83-0.25,3.67-0.49,5.47c-0.11,0.83-0.67,1.45-1.25,1.48C639.74,359.66,639.12,358.97,639.01,358.04z"/>
<path class="st5" d="M638.33,361.56c-2.18-10.74-2.15-22.26-4.5-32.88c-0.13-1.19,0.9-1.69,1.38-0.88
	c2.62,8.04,3.52,17.13,4.54,25.83c0.26,2.54,0.38,5.11,0.27,7.67c-0.02,0.55-0.34,1.01-0.71,1.11
	C638.89,362.52,638.44,362.15,638.33,361.56z"/>
<path class="st5" d="M636.54,409.66c-0.56-0.07-1.06-0.76-1.06-1.58c-0.02-7.72,0.89-15.35,1.81-22.94
	c0.51-5.33,0.97-10.72,1.06-16.1c-1.21-0.99,0.23-3.33,1.22-2.37c0.62,0.72,0.53,2.02,0.65,3.04c0.6,9.29-0.32,18.54-1.08,27.75
	C638.81,399.93,638.81,409.9,636.54,409.66z"/>
<path class="st5" d="M637.46,409.31c-1.32-0.7-1.46-3.07-0.82-4.61c0.55-3.12,0.99-6.27,1.44-9.42c0.92-6.44,1.86-12.8,2.14-19.31
	c-0.18-0.16-0.26-0.49-0.19-0.79c0.1-0.76,0.56-1.74,1.08-0.87c0.61,1.86,0.5,4.07,0.64,6.08c0.13,5.76,0.09,11.52-0.25,17.27
	C641.16,400.83,640.93,410.75,637.46,409.31z"/>
<path class="st5" d="M636.96,410.17c-0.63-0.48-1-1.57-0.82-2.56c0.35-1.85,0.79-3.67,1.19-5.5c1.72-8.23,3.01-16.79,2.99-25.39
	c-0.24-0.24-0.43-0.61-0.48-1.03c-0.12-2.69,2.53-2.31,2.62,0.15c0.72,9.09,0.81,18.58-1.17,27.37
	C640.66,405.62,639.39,411.68,636.96,410.17z"/>
<path class="st5" d="M635.78,412.84c-1.74-0.92,0.17-5.56,0.44-7.38c2.08-9.38,4.17-19.07,4.89-28.85c-1.07-1.3,0.55-3.01,1.37-1.71
	c0.76,2.12,0.38,4.76,0.45,7.08c-0.24,8.62-1.28,17.31-3.69,25.25C638.59,408.83,637.36,413.69,635.78,412.84z"/>
<path class="st6" d="M507.69,171.1c-4.97,0.6-9.54-7.62-7.44-14.28c1.38-4.59,5.71-6.91,8.91-5.05c1.78,1.32,3.91,2.29,4.77,5.14
	c0.9,2.73,0.63,6.04-0.51,8.54C512.86,169.07,510.31,171.8,507.69,171.1z"/>
<path class="st6" d="M505.96,163.8c-2.72-0.99-0.97-6.05,0-8.19c2.36-5.21,5.98-8.98,9.37-12.91c3.31-3.88,6.75-7.55,10.39-10.83
	c12.8-12.16,27.79-19.29,43.01-23.63c11.09-2.92,22.59-4,33.81-1.84c6.49,1.33,12.74,4.16,18.82,7.42c3.43,1.9,6.8,4.11,9.75,7.17
	c2.42,2.34,9.87,11.94,5.01,14.77c-1.94,0.61-2.36-1.42-3.3-3.06c-1.43-2.13-3.08-3.93-4.85-5.52c-7.27-6.18-15.69-9.88-24.03-12.43
	c-21.07-4.97-45.04,2.42-64.12,14.88c-7.34,5.17-14.24,11.45-20.61,18.6c-3.72,4.11-7.8,7.7-10.99,12.61
	c0.67,0.92,0.21,2.58-0.73,2.73C507,163.6,506.48,163.81,505.96,163.8z"/>
<path class="st6" d="M631.88,147.19c-3.48-1.35,0.1-7.63,0.87-10.37c0.67-1.27,1.48-5.6,2.85-4.85c1.38,0.88-0.28,6.45-0.52,8.11
	c-0.37,1.66-0.76,3.31-1.18,4.93C633.7,146.36,632.85,147.4,631.88,147.19z"/>
<path class="st6" d="M636.82,146.24c-0.88-2.09-0.85-4.69-1.16-7.03c-0.12-2.22-0.6-4.48-0.47-6.68c0.28-1.49,1.95-0.8,1.79,0.62
	c0.83,2.57,1.5,5.24,2.17,7.9c0.47,1.91,1.49,4.83-0.3,5.96C638.15,147.42,637.27,147.12,636.82,146.24z"/>
<path class="st6" d="M640.59,143.17c-2.76-1.27-3.2-5.94-4.58-9.05c-0.37-0.94-1.33-2.53-0.11-3.04c0.34-0.07,0.63,0.17,0.92,0.39
	c2.04,1.67,3.33,4.71,5.32,6.45C644.16,139.57,642.82,144.1,640.59,143.17z"/>
<path class="st6" d="M643.13,135.16c-2.19-0.9-4.35-2.24-6.67-2.18c-0.37,0.32-0.94,0.1-1.15-0.45c-0.67-2.66,3.45-2.94,4.63-3.17
	c1.41-0.16,2.86-0.03,4.24,0.38C646.68,130.77,645.63,136.06,643.13,135.16z"/>
<path class="st6" d="M635.73,131.42c-1.45-0.32-0.74-2.46-0.17-3.55c0.74-1.62,1.48-3.23,2.27-4.79c0.61-1.21,2.07-0.66,2.18,0.83
	c0.05,0.55-0.09,1.06-0.35,1.46c-1.04,1.6-2.17,3.04-3.12,4.6C636.76,130.7,636.27,131.57,635.73,131.42z"/>
<path class="st6" d="M635.4,131.87c-1.15-0.99-0.36-2.79,0.25-3.9c0.52-1.33,1.58-2.68,2.5-1.16c0.62,1.11-0.09,2.42-0.54,3.34
	C637.15,131.26,636.4,132.72,635.4,131.87z"/>
<path class="st6" d="M634.84,130.56c-0.5-0.12-0.38-1.05-0.08-1.4C635.54,128.56,635.58,130.66,634.84,130.56z"/>
<path class="st6" d="M10.75,400.63c-12.65-15.45-5.27-39.47,11.85-44.82c9.15-3.56,19.76,0.39,25.22,9.72
	c6.66,7.45,9.26,20.78,2.83,29.44C39.57,409.98,24.11,415.65,10.75,400.63z"/>
<path class="st6" d="M121.56,481.78c-12.76-6.54-21.38-28.34-10.56-41.99c9.95-12.23,30.18-12.18,37.93,3.28
	c4,8.19,4.74,19.34,0.65,27.68C143.97,481.92,131.48,486.95,121.56,481.78z"/>
<path class="st6" d="M292.22,474.18c-0.79-0.41-1.45-1.19-2.23-1.64c-0.61-0.36-0.9-1.4-0.64-2.26c0.88-2.38,2.66,0.08,3.86,0.56
	C294.74,471.82,293.76,475.07,292.22,474.18z"/>
<path class="st6" d="M291.71,497.99c-16.18-1.93-22.41-30.28-9.29-41.53c12.56-11.09,34.62-8.2,35.24,13.94
	C318.41,487.6,305.62,499.38,291.71,497.99z"/>
<path class="st6" d="M386.01,506.63c-15.61-17.4-1.21-43.93,18.44-38.74c13.4,3.15,18.93,23.33,9.6,35.23
	C408,514.76,394.02,516.36,386.01,506.63z"/>
<path class="st6" d="M531.62,505.85c-15.06-4.45-23.48-25.21-11.55-39.33c13.55-15.15,39.82-8.3,39.22,16.61
	C559.56,500.5,545,510.54,531.62,505.85z"/>
<path class="st6" d="M603.57,489.95c-23-3.17-25.92-37.69-5.39-48.26c11.22-5.78,25.28-0.77,29.66,13.29
	C634.83,473.13,619.28,492.09,603.57,489.95z"/>
<path class="st7" d="M14.72,370.19c-0.64-0.16-1.25-0.97-1.49-1.83c-0.89-4.64,6.55-7.27,8.88-8.07c0.87-0.27,1.87-0.55,2.74-0.14
	c1.02,0.56,2.12,1.91,1.68,3.63c-0.43,1.87-1.94,1.84-3.07,2.06c-1.83,0.5-3.65,1.13-5.37,2.17
	C16.97,368.76,15.94,369.87,14.72,370.19C14.71,370.19,14.72,370.19,14.72,370.19z"/>
<path class="st7" d="M31.63,363.87c-0.38-2.88,2.62-3.69,3.03-0.82C35.03,365.89,32.08,366.62,31.63,363.87z"/>
<path class="st7" d="M113.35,448.37c-2.9-1.78,1.22-6.92,2.65-8.19c1.93-1.79,4.25-2.44,6.53-2.56c1.56-0.34,3.31,0.78,3.3,3.3
	c-0.11,4.28-3.67,3.12-5.69,3.86c-1.68,0.49-3.28,1.37-4.85,2.32c-0.08,0.62-0.52,0.84-0.92,0.91
	C114.04,448.19,113.71,448.44,113.35,448.37z"/>
<path class="st7" d="M112.77,447.96c-1.23-2.46,0.92-4.29,2.07-5.69c2.03-2.05,9.44-6.3,10.22-0.83c0.18,4.27-3.89,3.51-5.81,4.84
	c-1.42,0.69-2.81,1.5-4.17,2.4C114.32,449.29,113.3,448.97,112.77,447.96z"/>
<path class="st7" d="M132.05,443.83c-3.86-0.73-2.88-9.08,0.93-7.33C135.79,438.01,135.24,444.21,132.05,443.83z"/>
<path class="st7" d="M280.14,474.44c-0.38-2.5,0.77-4.91,1.53-7.05c2.79-6.64,8.09-11.25,13.57-11.13c1.43,0.14,3.48-0.12,4.27,1.96
	c0.31,1.43-0.71,3.32-1.67,1.98c-4.66,1.76-9.39,4.96-12.22,10.73c-0.48,1.14-1.08,2.25-1.33,3.54
	C283.77,477.44,280.66,477.4,280.14,474.44z"/>
<path class="st7" d="M284.85,469.6c-1.53-1.18,1.78-5.73,2.45-6.87c0.99-1.48,2.21-2.67,3.49-3.58c2.48-1.56,7.41-3.33,9.67-0.63
	c1.01,1.47,0.66,4.12-0.72,4.85c-0.59,0.37-1.19,0.2-1.78-0.07c-4.2-0.66-8.08,2.11-11.61,4.99c0.26,0.31,0.15,1.01-0.19,1.11
	C285.73,469.46,285.29,469.7,284.85,469.6z"/>
<path class="st7" d="M385.37,488.84c-0.08-6.48,4.74-13.53,8.95-15.3c1.16-0.5,2.34-0.65,3.55-0.72c1.67-0.31,3.58-0.56,5.06,0.8
	c1.14,1.08,1.51,3.39,0.71,5.01c-0.69,1.47-2.07,1.89-3.18,1.18c-1.11-0.08-2.21,0.23-3.29,0.55c-2.4,1.22-5.32,2.33-6.56,5.79
	c-0.75,1.49-0.99,3.48-2.02,4.65C387.41,491.88,385.58,490.94,385.37,488.84z"/>
<path class="st7" d="M521.09,480.57c-1.38-2.13,0.15-4.83,1.17-6.57c1.49-3.09,3.41-5.84,5.76-7.57c2.49-1.79,8.55-3.66,10.37,0.24
	c0.99,1,1.26,3.05,0.62,4.5c-0.54,1.29-1.68,1.96-2.7,1.53c-0.6-0.26-1.15-0.78-1.79-0.84c-1.67,0-3.33,0.66-4.86,1.56
	c-1.62,1.18-3.18,2.7-4.31,4.74C524.28,480.27,522.99,482.95,521.09,480.57z"/>
<path class="st7" d="M541.1,471.11c-1.04-3.02,1.59-5.79,3.28-3.35C546.77,471.05,542.68,475.07,541.1,471.11z"/>
<path class="st7" d="M590.76,468.97c-3.32-1.16-1.02-6.64,0.01-9.31c1.87-4.17,4.42-8.15,7.64-10.18c1.61-0.83,3.3-1.62,5.01-1.8
	c3.5-0.22,4.08,6.96,0.44,7.23c-3.91-0.06-7.02,4.29-9.33,8.38c-0.44,0.91-0.84,1.85-1.21,2.82
	C592.92,467.71,592.1,469.26,590.76,468.97z"/>
<path class="st7" d="M611.21,454.53c-1.59-0.91-2.07-4.38-0.49-5.7c1.04-0.9,3.06-0.33,3.06,1.75
	C614.79,452.85,612.85,455.62,611.21,454.53z"/>
</svg>
